STARTFONT 2.3
FONT -FontForge-Pacifico-Book-R-Normal--18-180-72-72-P-105-ISO10646-1
SIZE 18 72 72  2
FONTBOUNDINGBOX 41 37 -11 -9
COMMENT "Generated by fontforge, http://fontforge.sourceforge.net"
COMMENT "Copyright 2018 The Pacifico Project Authors (https://github.com/googlefonts/Pacifico)"
STARTPROPERTIES 41
FOUNDRY "FontForge"
FAMILY_NAME "Pacifico"
WEIGHT_NAME "Book"
SLANT "R"
SETWIDTH_NAME "Normal"
ADD_STYLE_NAME ""
PIXEL_SIZE 18
POINT_SIZE 180
RESOLUTION_X 72
RESOLUTION_Y 72
SPACING "P"
AVERAGE_WIDTH 105
CHARSET_REGISTRY "ISO10646"
CHARSET_ENCODING "1"
FONTNAME_REGISTRY ""
CHARSET_COLLECTIONS "ISO8859-2 ISO8859-5 ISO8859-9 ISO8859-4 ISO10646-1"
BITS_PER_PIXEL 2
FONT_NAME "Pacifico-Regular"
FACE_NAME "Pacifico Regular"
COPYRIGHT "Copyright 2018 The Pacifico Project Authors (https://github.com/googlefonts/Pacifico)"
FONT_VERSION "3.001"
FONT_ASCENT 14
FONT_DESCENT 4
UNDERLINE_POSITION -2
UNDERLINE_THICKNESS 1
X_HEIGHT 8
CAP_HEIGHT 15
DEFAULT_CHAR 1
RAW_ASCENT 800
RAW_DESCENT 200
NORM_SPACE 5
RELATIVE_WEIGHT 40
RELATIVE_SETWIDTH 50
SUPERSCRIPT_X 0
SUPERSCRIPT_Y 6
SUPERSCRIPT_SIZE 10
SUBSCRIPT_X 0
SUBSCRIPT_Y 1
SUBSCRIPT_SIZE 10
AVG_LOWERCASE_WIDTH 84
AVG_UPPERCASE_WIDTH 147
ENDPROPERTIES
CHARS 1514
STARTCHAR NULL.dup1
ENCODING 0
SWIDTH 0 0
DWIDTH 0 0
BBX 1 1 0 0
BITMAP
00
ENDCHAR
STARTCHAR nonmarkingreturn
ENCODING 13
SWIDTH 265 0
DWIDTH 5 0
BBX 1 1 0 0
BITMAP
00
ENDCHAR
STARTCHAR space
ENCODING 32
SWIDTH 265 0
DWIDTH 5 0
BBX 1 1 0 0
BITMAP
00
ENDCHAR
STARTCHAR exclam
ENCODING 33
SWIDTH 340 0
DWIDTH 6 0
BBX 7 16 0 0
BITMAP
00B4
01F4
01F4
02F0
03E0
03D0
07C0
0780
0B40
0B00
0A00
0000
2D00
7F00
7F00
2D00
ENDCHAR
STARTCHAR quotedbl
ENCODING 34
SWIDTH 510 0
DWIDTH 9 0
BBX 7 6 2 10
BITMAP
7C7C
BCBC
BCBC
B8F8
F4F4
B0B0
ENDCHAR
STARTCHAR numbersign
ENCODING 35
SWIDTH 700 0
DWIDTH 13 0
BBX 12 12 0 0
BITMAP
001014
00B478
00F4B8
1FFFFF
1FFFFF
02D1E0
03D2E0
07C3D0
7FFFFD
7FFFFD
0F4B80
0E0B00
ENDCHAR
STARTCHAR dollar
ENCODING 36
SWIDTH 524 0
DWIDTH 9 0
BBX 9 17 0 -3
BITMAP
001000
003400
003400
06FD00
0FFF40
1E7780
2E6240
1FE000
0BF800
01FE00
24EF40
78DB40
3EEF00
1FFD00
02D000
028000
028000
ENDCHAR
STARTCHAR percent
ENCODING 37
SWIDTH 896 0
DWIDTH 16 0
BBX 15 15 1 0
BITMAP
0A400900
7FD02E00
B6E1BD00
F2FFF800
F0FFF400
F5D3E000
7FC7C000
1A0F8690
001F1FF4
003D3D78
00BC783C
00F47838
02F07878
03D03EF0
02800B90
ENDCHAR
STARTCHAR ampersand
ENCODING 38
SWIDTH 851 0
DWIDTH 15 0
BBX 14 19 1 -2
BITMAP
007E4000
02FFD000
07D2E000
0B81E000
0B81E000
0B83D000
07DBC000
03FF0000
03F80000
1FF80090
7E7E02E0
BC2F47D0
F40FDF80
F407FE00
FD07FC00
7FFFFE00
1BF93F40
00001F80
00000500
ENDCHAR
STARTCHAR quotesingle
ENCODING 39
SWIDTH 290 0
DWIDTH 5 0
BBX 3 6 2 10
BITMAP
7C
BC
BC
B8
F4
B0
ENDCHAR
STARTCHAR parenleft
ENCODING 40
SWIDTH 613 0
DWIDTH 11 0
BBX 13 21 1 -3
BITMAP
0006F900
002FFF40
00BD1B00
01F40000
03E00000
07C00000
0F800000
1F400000
1F000000
2E000000
3E000000
3D000000
7D000000
7C000000
7C000000
7C000000
7C000000
3D01C000
2E0BC000
1FFF4000
06F80000
ENDCHAR
STARTCHAR parenright
ENCODING 41
SWIDTH 613 0
DWIDTH 11 0
BBX 13 21 -2 -3
BITMAP
001BE000
007FFC00
01F87E00
00D01F00
00001F00
00001F40
00001F00
00001F00
00001F00
00002F00
00002E00
00003E00
00007D00
0000BC00
0000F800
0001F400
0002E000
0007D000
792F8000
7FFE0000
1BE40000
ENDCHAR
STARTCHAR asterisk
ENCODING 42
SWIDTH 520 0
DWIDTH 9 0
BBX 8 8 2 10
BITMAP
01C0
76C0
7E9D
1BFD
BFE0
A7B8
0B68
0700
ENDCHAR
STARTCHAR plus
ENCODING 43
SWIDTH 700 0
DWIDTH 13 0
BBX 11 12 1 0
BITMAP
001400
003C00
007C00
007800
007800
7FFFF4
7FFFF4
15F540
00F400
00F000
00F000
00E000
ENDCHAR
STARTCHAR comma
ENCODING 44
SWIDTH 257 0
DWIDTH 5 0
BBX 4 7 0 -3
BITMAP
14
3D
7D
7D
78
B4
A0
ENDCHAR
STARTCHAR hyphen
ENCODING 45
SWIDTH 403 0
DWIDTH 7 0
BBX 6 3 1 4
BITMAP
6A90
FFD0
6540
ENDCHAR
STARTCHAR period
ENCODING 46
SWIDTH 257 0
DWIDTH 5 0
BBX 4 4 0 0
BITMAP
2D
7E
7E
3D
ENDCHAR
STARTCHAR slash
ENCODING 47
SWIDTH 509 0
DWIDTH 9 0
BBX 10 18 0 0
BITMAP
0000A0
0001F0
0003E0
0007C0
000F80
001F00
003E00
007C00
00F800
01F000
03E000
07C000
0F8000
1F0000
3E0000
7C0000
B80000
B00000
ENDCHAR
STARTCHAR zero
ENCODING 48
SWIDTH 543 0
DWIDTH 10 0
BBX 8 11 1 0
BITMAP
07F4
2FFD
7D2E
B81F
F40F
F41F
F41F
F42E
B87D
7FF8
1FD0
ENDCHAR
STARTCHAR one
ENCODING 49
SWIDTH 376 0
DWIDTH 7 0
BBX 5 12 1 0
BITMAP
0540
7FC0
FFC0
5B80
0F80
0F40
0F40
1F40
1F00
1F00
2F00
1D00
ENDCHAR
STARTCHAR two
ENCODING 50
SWIDTH 560 0
DWIDTH 10 0
BBX 9 11 1 0
BITMAP
0BF800
2FFE00
7D2F00
781F00
642E00
007D00
01F800
07E000
6F4000
FFFF40
FFFF00
ENDCHAR
STARTCHAR three
ENCODING 51
SWIDTH 520 0
DWIDTH 9 0
BBX 9 11 0 0
BITMAP
06FE00
1FFF40
3E0F80
2C0F80
006F00
02FC00
01AF00
740F40
791F40
7FFF00
1BF800
ENDCHAR
STARTCHAR four
ENCODING 52
SWIDTH 577 0
DWIDTH 10 0
BBX 9 12 1 0
BITMAP
014000
0BC000
0F4000
2F0E00
3D1E00
7C2E00
B43D00
FFFF80
FFFF80
007C00
007C00
003800
ENDCHAR
STARTCHAR five
ENCODING 53
SWIDTH 518 0
DWIDTH 9 0
BBX 8 11 1 0
BITMAP
7FFF
BFFE
3D00
7C00
7FE0
7FFC
01BD
E02E
F47D
FFF8
2FE0
ENDCHAR
STARTCHAR six
ENCODING 54
SWIDTH 541 0
DWIDTH 10 0
BBX 9 11 1 0
BITMAP
06F800
1FFF00
7D1F40
B80500
FBF400
FFFD00
F83E00
F42E00
B87D00
7FFC00
1BE000
ENDCHAR
STARTCHAR seven
ENCODING 55
SWIDTH 497 0
DWIDTH 9 0
BBX 9 11 1 0
BITMAP
FFFF40
FFFF40
00BD00
02F400
07D000
0B8000
1F4000
2F0000
2E0000
2E0000
1D0000
ENDCHAR
STARTCHAR eight
ENCODING 56
SWIDTH 512 0
DWIDTH 9 0
BBX 9 11 0 0
BITMAP
06FE00
0FFF40
2F0B80
2E0B80
1FAF00
0BFD00
1E7F00
3C0B80
7D1F40
3FFF00
0BF800
ENDCHAR
STARTCHAR nine
ENCODING 57
SWIDTH 541 0
DWIDTH 10 0
BBX 9 11 0 0
BITMAP
02FD00
0FFF40
2F4B80
2E07C0
2F1FC0
1FFFC0
07EBC0
140B80
7D2F00
3FFD00
0BE400
ENDCHAR
STARTCHAR colon
ENCODING 58
SWIDTH 257 0
DWIDTH 5 0
BBX 5 9 0 0
BITMAP
1F00
2F40
2F40
1E00
0000
2D00
7E00
7E00
3D00
ENDCHAR
STARTCHAR semicolon
ENCODING 59
SWIDTH 257 0
DWIDTH 5 0
BBX 5 12 0 -3
BITMAP
1F00
2F40
2F40
1E00
0000
1400
3D00
7D00
7D00
7800
B400
A000
ENDCHAR
STARTCHAR less
ENCODING 60
SWIDTH 700 0
DWIDTH 13 0
BBX 11 9 1 1
BITMAP
000014
0006F8
01BFE0
2FF900
7F4000
7F9000
0BFE40
006FE0
0002E0
ENDCHAR
STARTCHAR equal
ENCODING 61
SWIDTH 700 0
DWIDTH 13 0
BBX 11 6 1 3
BITMAP
3FFFF4
3FFFF4
000000
000000
7FFFF0
BFFFF0
ENDCHAR
STARTCHAR greater
ENCODING 62
SWIDTH 700 0
DWIDTH 13 0
BBX 11 9 1 1
BITMAP
140000
3F9000
1FF900
01BFE0
0007F4
006FF0
1BFE40
BF9000
B90000
ENDCHAR
STARTCHAR question
ENCODING 63
SWIDTH 476 0
DWIDTH 9 0
BBX 9 16 1 0
BITMAP
0BF800
2FFF00
7D2F40
781F40
242F00
007D00
01F800
07D000
0B4000
0E0000
1D0000
000000
7C0000
BD0000
BD0000
780000
ENDCHAR
STARTCHAR at
ENCODING 64
SWIDTH 1015 0
DWIDTH 18 0
BBX 18 19 0 -5
BITMAP
0002BFE400
002FFFFE00
00BE406F40
02F40007C0
07D00002D0
0F807D01E0
1F02FF81E0
2E07DB81E0
3D0F4B42E0
7D1F0F43D0
7C1F0F07C0
7C1F2F5F40
3D0FFBFE00
3D07D2F400
2F00000000
0F80000500
07F401BF00
01FFFFFD00
001BFE9000
ENDCHAR
STARTCHAR A
ENCODING 65
SWIDTH 786 0
DWIDTH 14 0
BBX 16 16 1 0
BITMAP
0006FF90
007FFFF0
02FE5590
0BE00A00
1F801F00
3F002F00
7D003E00
BC003D00
BC007D00
F800BC00
F800FC00
F801FC00
BC03FC0D
7E5FBD7D
2FFD7FF4
0BE41F90
ENDCHAR
STARTCHAR B
ENCODING 66
SWIDTH 827 0
DWIDTH 15 0
BBX 16 17 0 -1
BITMAP
006BFE90
1BFFFFF4
7F9405FD
B800007E
00F4003E
01F400BD
02F006F8
02E1FFD0
03D1FF40
07D01BD0
07C003E0
0BC003E0
0BC00BD0
0B816F80
0FFFFE00
0FFFA400
0B400000
ENDCHAR
STARTCHAR C
ENCODING 67
SWIDTH 686 0
DWIDTH 12 0
BBX 14 16 1 0
BITMAP
006FE000
01FFFC00
0BE47D00
1F802E00
2F003E00
7D003D00
7C000400
BC000000
BC000000
B8000000
BC000000
BD000000
3E000050
2FD01BE0
0BFFFFC0
01AFE900
ENDCHAR
STARTCHAR D
ENCODING 68
SWIDTH 836 0
DWIDTH 15 0
BBX 14 16 1 0
BITMAP
06BFA000
6FFFFD00
FE417F40
90000FC0
07D007D0
07C003E0
0B8003E0
0F8003E0
0F4003E0
1F0007D0
2F000BC0
2F001F80
2E007F00
3E16FD00
3FFFE000
2FFE4000
ENDCHAR
STARTCHAR E
ENCODING 69
SWIDTH 686 0
DWIDTH 12 0
BBX 15 16 0 0
BITMAP
002BF900
01FFFF40
07F41F80
0BD00B80
0BC00B80
07E40500
01FF8000
06FF4000
1FD00000
3E000000
7D000000
7D000000
7E000014
3F9016F8
0FFFFFE0
01BFF940
ENDCHAR
STARTCHAR F
ENCODING 70
SWIDTH 712 0
DWIDTH 13 0
BBX 17 16 0 0
BITMAP
005AFFFA40
02FFFFFF80
0F96E00500
1F03E00000
1E03E00000
1F03D00000
0507D00000
007FFFD000
007FFFD000
000BC00000
000BC00000
000F800000
901F400000
F47F000000
7FFD000000
1BE4000000
ENDCHAR
STARTCHAR G
ENCODING 71
SWIDTH 811 0
DWIDTH 15 0
BBX 16 25 1 -9
BITMAP
002FE400
01FFFD00
0BE46F00
1F801F00
2F001F00
7D001E00
BC000400
BC000000
BC000000
B801FF40
BC01FF80
BD000B40
3E000F49
2FD05F7D
0BFFFFF4
01BFAF80
00007E00
0001FD00
0003BD00
000F3C00
001D7800
003CB400
0039F000
003FD000
001F4000
ENDCHAR
STARTCHAR H
ENCODING 72
SWIDTH 873 0
DWIDTH 16 0
BBX 19 17 -1 0
BITMAP
00000007D0
01B8001FF0
0BFE002EB0
2E2F007C70
781F00B8B0
201F00F4E0
002F01F2D0
002E01FB40
002E02FD00
03FFFFE000
07FFEBE000
007C03E000
00BC03E000
00F802E01C
00F401F47C
01F400FFF0
01E0002F80
ENDCHAR
STARTCHAR I
ENCODING 73
SWIDTH 495 0
DWIDTH 9 0
BBX 11 16 -1 0
BITMAP
02FFF8
03FFF8
002F00
002E00
003E00
003E00
003D00
007D00
007C00
00BC00
00B800
00F800
00F400
01F400
2FFF80
7FFF80
ENDCHAR
STARTCHAR J
ENCODING 74
SWIDTH 743 0
DWIDTH 13 0
BBX 13 18 1 -2
BITMAP
01BFFA40
1FFFFF80
7E402F40
B8003E00
B4003E00
B8003D00
38007D00
0000BC00
0007FC00
007FF800
01F8F800
07E0F400
0B81F000
1F02E000
1F07D000
1F4F8000
0FFE0000
06F80000
ENDCHAR
STARTCHAR K
ENCODING 75
SWIDTH 937 0
DWIDTH 17 0
BBX 19 16 0 0
BITMAP
01BFE002D0
0BFFF807D0
1F42F00FC0
2D03E01F40
2D03D03E00
1E07D0BC00
0407D7F400
002FFF8000
002FFE0000
000B9F8000
000F8BD000
100F43E004
741F42F41C
7D7F01FDBC
3FFD00BFF0
0BE4002F80
ENDCHAR
STARTCHAR L
ENCODING 76
SWIDTH 673 0
DWIDTH 12 0
BBX 16 16 -1 0
BITMAP
0001BF40
000BFFE0
002F42F0
007D01F4
00BC01F0
00F801E0
00F80000
00F40000
01F40000
01F40000
01F00000
01F00004
2FF9000D
BFFFD47C
BFEFFFF4
6F41BF90
ENDCHAR
STARTCHAR M
ENCODING 77
SWIDTH 1232 0
DWIDTH 22 0
BBX 25 16 0 0
BITMAP
06E01F807E4000
2FF4BFE2FF8000
78B9E2E78BC000
E0BB81FA07C000
40BB01FC0BC000
00FD02F80BC000
00FC02F40F8000
00F803F00F8000
01F803E01F4000
01F407E02F0000
02F007D02F0000
02F00BC02E0000
03E00BC03E0240
03E00BC02F5B40
03D00F801FFD00
02C00B4007E400
ENDCHAR
STARTCHAR N
ENCODING 78
SWIDTH 884 0
DWIDTH 16 0
BBX 19 16 0 0
BITMAP
06E01BE000
2FF87FF800
78B9E5F800
E0BA80BC00
40BB00B800
00FE00F800
00FD01F400
00FC01F400
01F802F000
01F402F000
02F003E000
02F003D000
03E003D034
03E003E1F0
03D002FFD0
02C000BE00
ENDCHAR
STARTCHAR O
ENCODING 79
SWIDTH 816 0
DWIDTH 15 0
BBX 14 16 1 0
BITMAP
006FE400
02FFFD00
0BE47F40
1F800F80
2F000BC0
3D0007D0
7C0007D0
BC0007D0
BC0007C0
B8000BC0
BC000F80
BC001F40
7E003E00
2F81FC00
0FFFF000
01BE4000
ENDCHAR
STARTCHAR P
ENCODING 80
SWIDTH 805 0
DWIDTH 14 0
BBX 14 19 1 -3
BITMAP
001BF900
00BFFF40
07E41FD0
0F8007E0
2E0F03E0
3C2F03E0
782F03E0
B43E0BD0
F43E6F80
F2FFFE00
F2FFE400
F0BC0000
F0BC0000
F0B80000
F4F80000
B9F40000
3FF00000
1FE00000
01400000
ENDCHAR
STARTCHAR Q
ENCODING 81
SWIDTH 816 0
DWIDTH 15 0
BBX 15 22 1 -6
BITMAP
006FE400
01FFFD00
07E47F40
1F800F80
2F000BC0
3D0007D0
7C0007D0
BC0007D0
BC0007D0
B8000BC0
BC000F80
BC001F40
7E007F00
3F95FD00
0FFFF400
02FF8000
001F8000
000BD000
0007E018
0002F478
0001FFF0
00007F80
ENDCHAR
STARTCHAR R
ENCODING 82
SWIDTH 880 0
DWIDTH 16 0
BBX 17 16 1 0
BITMAP
002BF90000
01FFFF8000
07E41FD000
1F4507D000
3D1F07E000
782E07D000
B43E0BC000
B43D6F4000
F1FFF80000
F1FFF40000
F0BDFC0000
F0B87E0000
B4F83F01C0
79F41F87C0
2FF00BFF40
0BD002F800
ENDCHAR
STARTCHAR S
ENCODING 83
SWIDTH 693 0
DWIDTH 12 0
BBX 13 16 0 0
BITMAP
006FE400
02FFFE00
0BE46F40
0F800F40
0F400F40
0F800B00
0BF40000
02FF4000
007FF400
0006FD00
28007E00
7C002E00
7C003E00
3E41BD00
2FFFF800
06FF9000
ENDCHAR
STARTCHAR T
ENCODING 84
SWIDTH 697 0
DWIDTH 13 0
BBX 16 16 0 0
BITMAP
01AFFFFE
0BFFFFFF
2E52F000
7C03E000
7803E000
3C07D000
1807D000
000BC000
000BC000
000F8000
000F8000
001F4000
001F4000
001F0000
002F0000
001E0000
ENDCHAR
STARTCHAR U
ENCODING 85
SWIDTH 890 0
DWIDTH 16 0
BBX 19 16 0 0
BITMAP
06F4007800
2FFC00BC00
79BC00BC00
E07C00B800
40BC00F800
00B801F800
00F801F400
01F402F400
01F403F000
02F007F000
02E00FE000
03E01EE000
03E07AE074
03F6F2FAF0
02FFD2FFD0
00BE00BE40
ENDCHAR
STARTCHAR V
ENCODING 86
SWIDTH 763 0
DWIDTH 14 0
BBX 15 16 2 0
BITMAP
2C00BD00
7D02FF00
7D079F40
BC074F40
BC0B4F00
BC075F00
B807EE00
B802FE00
B800BFF4
B800BFF0
BC01F400
7C03E000
7D0BC000
3FBF4000
1FFD0000
0BE00000
ENDCHAR
STARTCHAR W
ENCODING 87
SWIDTH 1217 0
DWIDTH 22 0
BBX 23 16 2 0
BITMAP
2C001E00BD00
7D003E02FF00
7C003E03CF40
BC007D074B40
BC00BD074F40
BC00BD078F40
B800FD03DF00
B801FC02FE00
B802FD00BFF4
B803FD00BFF4
BC07BD00F400
BC0F7D02E000
7D2F2E0BD000
3FBD1FAF4000
2FF80FFD0000
0BD007E40000
ENDCHAR
STARTCHAR X
ENCODING 88
SWIDTH 712 0
DWIDTH 13 0
BBX 15 16 0 0
BITMAP
0BE001E0
3FFC07E0
B4BD1F80
903E3F00
002FBC00
001FF400
000FD000
001F8000
003FC000
00BFD000
02F7E000
0BD2E000
1F81F01C
7F00F87C
FC00BFF4
F4002F80
ENDCHAR
STARTCHAR Y
ENCODING 89
SWIDTH 851 0
DWIDTH 15 0
BBX 18 22 0 -6
BITMAP
06F4007800
2FFC00BC00
79BC00BC00
E07C00B800
80BC00F800
00BC01F800
00F801F400
01F402F400
01F407F000
01F00BF000
02F01EF000
01F47AE000
00FFE2EBD0
006F9BFF80
0000BFE400
0007E7C000
001F47C000
007C0B8000
00B80F4000
00B82E0000
007FFC0000
001FE00000
ENDCHAR
STARTCHAR Z
ENCODING 90
SWIDTH 721 0
DWIDTH 13 0
BBX 16 16 0 0
BITMAP
01BFFA40
0BFFFFF0
2F501FE0
3D001F40
3D003F00
2E00BD00
0401F800
0002F000
000BD000
001F8000
003F4000
00BD0004
2FFD001D
BFFF907C
BFEFFFF4
6E41BF80
ENDCHAR
STARTCHAR bracketleft
ENCODING 91
SWIDTH 405 0
DWIDTH 7 0
BBX 8 19 1 -1
BITMAP
07FE
0BFE
0F80
0F40
0F40
1F40
1F00
2F00
2E00
2E00
3E00
3D00
7D00
7C00
7C00
BC00
B800
BFE0
7FE0
ENDCHAR
STARTCHAR backslash
ENCODING 92
SWIDTH 509 0
DWIDTH 9 0
BBX 7 18 2 0
BITMAP
A000
F400
F800
B800
7C00
3D00
2E00
2F00
1F00
0F40
0B80
07C0
07D0
03D0
02E0
01F0
00F4
00A0
ENDCHAR
STARTCHAR bracketright
ENCODING 93
SWIDTH 405 0
DWIDTH 7 0
BBX 8 19 -1 -1
BITMAP
0BFE
0BFF
002E
002E
003E
003D
007D
007C
007C
00BC
00B8
00B8
00F4
00F4
01F4
01F0
01F0
BFE0
BFD0
ENDCHAR
STARTCHAR asciicircum
ENCODING 94
SWIDTH 700 0
DWIDTH 13 0
BBX 10 10 1 1
BITMAP
002800
007D00
00FE00
02EE00
03CB00
0B4B40
0F0780
2D03C0
7C02D0
7401D0
ENDCHAR
STARTCHAR underscore
ENCODING 95
SWIDTH 354 0
DWIDTH 6 0
BBX 7 2 -1 -2
BITMAP
7FF8
7FF8
ENDCHAR
STARTCHAR grave
ENCODING 96
SWIDTH 600 0
DWIDTH 11 0
BBX 4 6 2 10
BITMAP
B0
B8
7C
2D
0F
07
ENDCHAR
STARTCHAR a
ENCODING 97
SWIDTH 470 0
DWIDTH 8 0
BBX 11 9 0 0
BITMAP
01F400
0BFE00
1F6E00
3E2E00
7C3D00
7C3D28
7DBDB8
3FEFE0
1F4B80
ENDCHAR
STARTCHAR b
ENCODING 98
SWIDTH 473 0
DWIDTH 9 0
BBX 10 18 1 0
BITMAP
01E000
07F800
0F7800
1E3800
2D7400
3CB400
78E000
B9D000
BB8000
FBE000
FEF800
F8FC50
F4BFF0
F43FD0
F43C00
B8B800
7FF000
1F8000
ENDCHAR
STARTCHAR c
ENCODING 99
SWIDTH 368 0
DWIDTH 7 0
BBX 9 9 0 0
BITMAP
06E000
1FF800
3E7800
7C7400
7C0040
7C02C0
7E1B80
2FFE00
0BE400
ENDCHAR
STARTCHAR d
ENCODING 100
SWIDTH 515 0
DWIDTH 9 0
BBX 12 18 0 0
BITMAP
0000B4
0002F8
0007AC
000B6C
000F28
001F38
001E34
002E70
002EA0
01FED0
0BFFC0
1F7F80
3D3F00
7C2E00
7C2D0A
7D7E2D
3FEFF8
1F87D0
ENDCHAR
STARTCHAR e
ENCODING 101
SWIDTH 393 0
DWIDTH 7 0
BBX 10 9 0 0
BITMAP
06E400
1FF800
3E7C00
7C7800
7EF400
7F81D0
3E1BC0
2FFF40
0BF800
ENDCHAR
STARTCHAR f
ENCODING 102
SWIDTH 371 0
DWIDTH 7 0
BBX 8 24 1 -6
BITMAP
00B8
02FD
079D
0B5D
0F1D
1E2C
2D38
3D74
7CE0
7EC0
BF40
BD00
F800
F7FD
FBFD
F740
F740
F740
F780
F680
B680
BB40
7F00
2E00
ENDCHAR
STARTCHAR g
ENCODING 103
SWIDTH 479 0
DWIDTH 9 0
BBX 11 18 0 -9
BITMAP
01F400
0BFE00
1F6E00
3E2E00
7C3D00
7C3D78
7CBEF4
3FFFD0
1FBE00
01F800
07F400
1EF400
3CF000
75E000
B2D000
F7C000
FF4000
7D0000
ENDCHAR
STARTCHAR h
ENCODING 104
SWIDTH 502 0
DWIDTH 9 0
BBX 11 18 1 0
BITMAP
01E000
07F800
0F7800
1E3800
2D7400
3C7400
7CE000
79D000
BB8000
BE6D00
FDFD00
F7FD00
FB7C00
FE7C10
FC7874
F8B9F0
F87FD0
A02E40
ENDCHAR
STARTCHAR i
ENCODING 105
SWIDTH 246 0
DWIDTH 4 0
BBX 6 13 1 0
BITMAP
2E00
7F00
2D00
0000
7800
B800
B800
F400
F010
F0A0
F6D0
FF80
7E00
ENDCHAR
STARTCHAR j
ENCODING 106
SWIDTH 254 0
DWIDTH 5 0
BBX 11 22 -4 -9
BITMAP
001F40
002F40
001E00
000000
001E00
002E00
002E00
002D00
003D00
003D74
003EF4
007F80
007E00
00F800
07F400
0EF400
3CF000
75E000
E2D000
E7C000
FF4000
7D0000
ENDCHAR
STARTCHAR k
ENCODING 107
SWIDTH 525 0
DWIDTH 9 0
BBX 11 18 1 0
BITMAP
01E000
07F800
0F7800
1E3800
2D7400
3C7000
7CE000
79C000
BB4000
BE6D00
F9FF00
F79F40
FB1F00
FD7D04
FDF428
F8F4B4
F8BFE0
B02F80
ENDCHAR
STARTCHAR l
ENCODING 108
SWIDTH 326 0
DWIDTH 6 0
BBX 7 18 1 0
BITMAP
01E0
07F4
0F78
1E38
2D38
3C74
78B4
78B0
B4E0
B6C0
F780
FB00
FE00
FC00
F41C
B87C
7FF4
1F80
ENDCHAR
STARTCHAR m
ENCODING 109
SWIDTH 744 0
DWIDTH 13 0
BBX 15 9 1 0
BITMAP
38782E00
B9FCBE00
B7FEFE00
FB7BAD00
FD7F3D04
FC7E3C28
F8BD3DB4
F4BC3FE0
B0742F40
ENDCHAR
STARTCHAR n
ENCODING 110
SWIDTH 496 0
DWIDTH 9 0
BBX 11 9 1 0
BITMAP
387C00
B9FD00
B7FC00
FB7C00
FD7810
FC7874
F8B9F0
F4BFD0
B02E40
ENDCHAR
STARTCHAR o
ENCODING 111
SWIDTH 451 0
DWIDTH 8 0
BBX 11 9 0 0
BITMAP
06E400
1FFD00
3E7E10
7C7FF4
7C2FE4
7C1E00
3D7C00
2FF800
0BE000
ENDCHAR
STARTCHAR p
ENCODING 112
SWIDTH 481 0
DWIDTH 9 0
BBX 13 18 -2 -9
BITMAP
02DB8000
03FFE000
03F5F000
03D1F000
03D1E000
03D2D1C0
0BDBC780
0FFFFF00
1FF9F800
3BD00000
77C00000
B3C00000
A3C00000
E7800000
D7400000
EB000000
FE000000
78000000
ENDCHAR
STARTCHAR q
ENCODING 113
SWIDTH 500 0
DWIDTH 9 0
BBX 12 18 0 -8
BITMAP
000740
01BF40
0BFF40
1F9F00
3E2E00
7C3D00
7C3DFD
7DBDFC
3FF9C0
1FB9C0
00B9C0
00F5C0
00F5C0
00F6C0
00F680
00BB40
007F00
002D00
ENDCHAR
STARTCHAR r
ENCODING 114
SWIDTH 455 0
DWIDTH 8 0
BBX 10 9 1 0
BITMAP
387C00
B9FD00
B7FC00
FB7CA0
FD3FE0
FC2F80
F80000
F40000
B00000
ENDCHAR
STARTCHAR s
ENCODING 115
SWIDTH 427 0
DWIDTH 8 0
BBX 10 9 0 0
BITMAP
01E000
03D000
07C000
0FE000
1EF410
78BCB0
F6BEE0
9BFFC0
07FE00
ENDCHAR
STARTCHAR t
ENCODING 116
SWIDTH 393 0
DWIDTH 7 0
BBX 10 17 0 0
BITMAP
006D00
00FE00
02DE00
03CE00
078E00
0B5D00
0F7800
0FB000
BFFF00
FFFE00
1E0000
1E0000
1F0000
1F00D0
0F87D0
0BFF40
02F900
ENDCHAR
STARTCHAR u
ENCODING 117
SWIDTH 462 0
DWIDTH 8 0
BBX 10 9 1 0
BITMAP
382800
787800
B4B800
F4F400
F1F400
F2F0A0
FFF6D0
FDFF80
787D00
ENDCHAR
STARTCHAR v
ENCODING 118
SWIDTH 449 0
DWIDTH 8 0
BBX 10 9 1 0
BITMAP
F07800
F1FC00
F1F840
F1FFD0
F6FF80
F7C000
FF4000
BE0000
780000
ENDCHAR
STARTCHAR w
ENCODING 119
SWIDTH 700 0
DWIDTH 13 0
BBX 14 9 1 0
BITMAP
F0742D00
F0B8BD00
F0F8BD50
F1F8BFF0
F7F8FFD0
FBBAE000
FF7FC000
BE3F4000
782E0000
ENDCHAR
STARTCHAR x
ENCODING 120
SWIDTH 529 0
DWIDTH 10 0
BBX 12 9 0 0
BITMAP
0B86D0
1FFFE0
1DFDD0
00B800
14B801
78F80A
B9FD2E
BFFFF8
2E1BD0
ENDCHAR
STARTCHAR y
ENCODING 121
SWIDTH 479 0
DWIDTH 9 0
BBX 11 18 0 -9
BITMAP
0E0A00
1E1E00
2D2E00
3D3D00
3C7D00
3CBD78
3FFEF4
3FBF80
1E7E00
01F800
07F400
1EF000
3CF000
B5E000
E2D000
E7C000
FF4000
7D0000
ENDCHAR
STARTCHAR z
ENCODING 122
SWIDTH 445 0
DWIDTH 8 0
BBX 10 9 1 0
BITMAP
BFFD00
BFFD00
06F800
1F8000
7D0040
B801D0
BD1BC0
7FFF40
1BE400
ENDCHAR
STARTCHAR braceleft
ENCODING 123
SWIDTH 490 0
DWIDTH 9 0
BBX 10 20 1 -2
BITMAP
002FD0
00BFD0
01F800
01F000
02F000
02E000
03E000
07D000
BF8000
FF4000
1F8000
0BC000
0BC000
0B8000
0B8000
0F8000
0F4000
0B9000
07FD00
01FD00
ENDCHAR
STARTCHAR bar
ENCODING 124
SWIDTH 326 0
DWIDTH 6 0
BBX 6 24 0 -6
BITMAP
01E0
02E0
02E0
03D0
03D0
03C0
07C0
07C0
0B80
0B80
0B40
0F40
0F40
1F00
1F00
1E00
2E00
2D00
3D00
3D00
3C00
7C00
7C00
7800
ENDCHAR
STARTCHAR braceright
ENCODING 125
SWIDTH 490 0
DWIDTH 9 0
BBX 10 20 -1 -2
BITMAP
0BE400
0BFC00
007D00
003E00
003D00
003D00
007D00
003E00
002FE0
002FE0
007D00
00B800
00F400
00F400
00F400
01F400
01F000
07E000
BFD000
BE4000
ENDCHAR
STARTCHAR asciitilde
ENCODING 126
SWIDTH 700 0
DWIDTH 13 0
BBX 11 5 1 3
BITMAP
050010
2FD0B4
7EFEF0
B87FE0
100B80
ENDCHAR
STARTCHAR uni00A0
ENCODING 160
SWIDTH 265 0
DWIDTH 5 0
BBX 1 1 0 0
BITMAP
00
ENDCHAR
STARTCHAR exclamdown
ENCODING 161
SWIDTH 340 0
DWIDTH 6 0
BBX 7 17 -1 -8
BITMAP
01F0
02F4
02F4
01E0
0000
0280
03C0
0780
0B80
0B40
0F40
1F00
2F00
3E00
3E00
7D00
7800
ENDCHAR
STARTCHAR cent
ENCODING 162
SWIDTH 466 0
DWIDTH 8 0
BBX 8 14 0 -3
BITMAP
0010
0060
00A0
02F8
1FFE
2DDE
3CDD
7CC0
3DC6
2FDE
1FFC
0290
0240
0240
ENDCHAR
STARTCHAR sterling
ENCODING 163
SWIDTH 525 0
DWIDTH 9 0
BBX 10 11 0 0
BITMAP
01BF40
03FFC0
0BD3D0
0F4180
1F0000
7FFC00
7FFC00
1E0000
2E0000
7FFFC0
7FFF80
ENDCHAR
STARTCHAR currency
ENCODING 164
SWIDTH 700 0
DWIDTH 13 0
BBX 9 9 2 1
BITMAP
A6E740
7FFF40
3D1E00
380B00
740B00
380B00
3D1E00
7FFF40
A6E740
ENDCHAR
STARTCHAR yen
ENCODING 165
SWIDTH 497 0
DWIDTH 9 0
BBX 10 12 0 0
BITMAP
140050
7C02E0
3D07C0
2F0F40
0F6E00
0BBD00
07F800
3FFF00
06E400
7FFF00
07D400
03C000
ENDCHAR
STARTCHAR brokenbar
ENCODING 166
SWIDTH 326 0
DWIDTH 6 0
BBX 6 24 0 -6
BITMAP
01D0
02E0
02D0
03D0
03D0
03C0
07C0
07C0
0B80
0B80
0100
0000
0000
0500
1F00
1E00
2E00
2E00
3D00
3D00
3C00
7C00
7C00
7400
ENDCHAR
STARTCHAR section
ENCODING 167
SWIDTH 607 0
DWIDTH 11 0
BBX 9 16 1 0
BITMAP
01BE00
0BFF80
0F47C0
1F03C0
0F4240
0FE400
2EFE00
3C1F80
3E0780
2FDB40
07FE00
607E00
B41F00
B92F00
7FFD00
1BE400
ENDCHAR
STARTCHAR dieresis
ENCODING 168
SWIDTH 600 0
DWIDTH 11 0
BBX 7 3 2 10
BITMAP
7878
BCB8
78B4
ENDCHAR
STARTCHAR copyright
ENCODING 169
SWIDTH 647 0
DWIDTH 12 0
BBX 11 11 1 7
BITMAP
01BE40
0B56D0
2C7D70
35D728
72862C
73401C
73401C
768628
28B974
0E41D0
02FF40
ENDCHAR
STARTCHAR ordfeminine
ENCODING 170
SWIDTH 393 0
DWIDTH 7 0
BBX 7 7 1 8
BITMAP
06D4
1FB8
3CB4
78B4
B4F4
7EF4
2EB0
ENDCHAR
STARTCHAR guillemotleft
ENCODING 171
SWIDTH 615 0
DWIDTH 11 0
BBX 10 7 0 1
BITMAP
02D0B0
1BD7F0
7E5F80
7C2F00
3F5F80
0BD7F0
02C0A0
ENDCHAR
STARTCHAR logicalnot
ENCODING 172
SWIDTH 700 0
DWIDTH 13 0
BBX 11 6 1 0
BITMAP
7FFFF0
7FFFF4
0000F0
0000F0
0001F0
0000E0
ENDCHAR
STARTCHAR uni00AD
ENCODING 173
SWIDTH 403 0
DWIDTH 7 0
BBX 6 3 1 4
BITMAP
6A90
FFD0
6540
ENDCHAR
STARTCHAR registered
ENCODING 174
SWIDTH 647 0
DWIDTH 12 0
BBX 11 11 1 7
BITMAP
01BE40
0B56D0
2DBD70
349728
70DA2C
70F81C
71E81C
758D28
294574
0E41D0
02FF40
ENDCHAR
STARTCHAR macron
ENCODING 175
SWIDTH 600 0
DWIDTH 11 0
BBX 7 2 2 10
BITMAP
7FF4
7FF0
ENDCHAR
STARTCHAR degree
ENCODING 176
SWIDTH 385 0
DWIDTH 7 0
BBX 7 6 1 10
BITMAP
0BD0
2FF0
78B4
78B0
3FE0
1B80
ENDCHAR
STARTCHAR plusminus
ENCODING 177
SWIDTH 700 0
DWIDTH 13 0
BBX 9 11 2 0
BITMAP
00A000
00F000
05E500
7FFF80
7FFF80
02D000
02D000
02C000
155400
FFFF00
FFFE00
ENDCHAR
STARTCHAR uni00B2
ENCODING 178
SWIDTH 450 0
DWIDTH 8 0
BBX 7 9 1 6
BITMAP
1BE0
3EB8
747C
6078
00F4
02E0
1F40
BFA8
BFFC
ENDCHAR
STARTCHAR uni00B3
ENCODING 179
SWIDTH 450 0
DWIDTH 8 0
BBX 7 9 1 6
BITMAP
0BE4
3EBC
743C
10B8
07E0
01F8
B07C
BAF8
2FE0
ENDCHAR
STARTCHAR acute
ENCODING 180
SWIDTH 600 0
DWIDTH 11 0
BBX 4 6 5 10
BITMAP
1D
2E
3D
B8
E0
D0
ENDCHAR
STARTCHAR uni00B5
ENCODING 181
SWIDTH 462 0
DWIDTH 8 0
BBX 11 14 0 -5
BITMAP
0E0A00
1E1E00
2D2E00
3D3D00
3C7D00
3CBC28
7FFDB4
7FBFE0
7E1F40
780000
780000
780000
780000
740000
ENDCHAR
STARTCHAR paragraph
ENCODING 182
SWIDTH 739 0
DWIDTH 13 0
BBX 11 16 2 0
BITMAP
06FF90
7FFFF4
FFF9F8
FFF4F4
FFF5F4
BFF1F0
2FF1F0
02E2E0
03E2E0
03D3D0
07D3D0
07C7D0
07C7C0
0BCBC0
0B8BC0
074780
ENDCHAR
STARTCHAR periodcentered
ENCODING 183
SWIDTH 257 0
DWIDTH 5 0
BBX 3 4 1 3
BITMAP
B8
FC
FC
B8
ENDCHAR
STARTCHAR cedilla
ENCODING 184
SWIDTH 600 0
DWIDTH 11 0
BBX 6 6 1 -5
BITMAP
2E40
2FC0
02D0
02C0
BF80
BE00
ENDCHAR
STARTCHAR uni00B9
ENCODING 185
SWIDTH 450 0
DWIDTH 8 0
BBX 5 9 2 6
BITMAP
1B80
FF80
9B80
0B40
0B40
0F40
0F00
1F00
0E00
ENDCHAR
STARTCHAR ordmasculine
ENCODING 186
SWIDTH 408 0
DWIDTH 7 0
BBX 7 7 1 8
BITMAP
0BD0
2EF4
7878
7478
78B4
3EF0
1F90
ENDCHAR
STARTCHAR guillemotright
ENCODING 187
SWIDTH 615 0
DWIDTH 11 0
BBX 10 7 1 1
BITMAP
A03800
BD3E00
2F4FC0
0B83E0
2F8BD0
FD7F40
E07800
ENDCHAR
STARTCHAR onequarter
ENCODING 188
SWIDTH 955 0
DWIDTH 17 0
BBX 15 16 2 -1
BITMAP
1B800000
FF803400
9B80B800
0B41F000
0B43D000
0F47C000
0F0F4000
1F2E0B00
0E7C1E00
00B83DF0
01F079E0
02D0B5E0
0280FBF4
0000FFF8
000002D0
000002C0
ENDCHAR
STARTCHAR onehalf
ENCODING 189
SWIDTH 1024 0
DWIDTH 18 0
BBX 16 16 2 -1
BITMAP
1B800000
FF803400
9B80B800
0B41F000
0B43D000
0F47C000
0F0F4000
1F2E07F4
0E7C1EBD
00B82C2D
01F0283D
02D0007C
028001F4
00000B90
00007FA9
00007FFD
ENDCHAR
STARTCHAR threequarters
ENCODING 190
SWIDTH 1035 0
DWIDTH 19 0
BBX 17 16 1 -1
BITMAP
0BE4000000
3EBC028000
743C07C000
10B80F4000
07E01F0000
01F83D0000
B07CB80000
BAF9F47400
2FE2E0F500
0007C1E740
000F43CB40
001F078F00
001D0BEF80
00000BFFC0
0000001E00
0000001D00
ENDCHAR
STARTCHAR questiondown
ENCODING 191
SWIDTH 476 0
DWIDTH 9 0
BBX 9 17 -1 -8
BITMAP
001E00
003F40
003F40
001E00
000000
002800
003800
00B800
01F000
0BD000
1F4000
7E0000
BC0E00
BC0F00
BD2E00
7FFD00
1BE400
ENDCHAR
STARTCHAR Agrave
ENCODING 192
SWIDTH 786 0
DWIDTH 14 0
BBX 16 22 1 0
BITMAP
00140000
003E0000
002F8000
0007E000
0000B000
00000000
0006FF90
007FFFF0
02FE5590
0BE00A00
1F801F00
3F002F00
7D003E00
BC003D00
BC007D00
F800BC00
F800FC00
F801FC00
BC03FC0D
7E5FBD7D
2FFD7FF4
0BE41F90
ENDCHAR
STARTCHAR Aacute
ENCODING 193
SWIDTH 786 0
DWIDTH 14 0
BBX 16 22 1 0
BITMAP
00000010
000001F4
000007F4
00001F80
00002900
00000000
0006FF90
007FFFF0
02FE5590
0BE00A00
1F801F00
3F002F00
7D003E00
BC003D00
BC007D00
F800BC00
F800FC00
F801FC00
BC03FC0D
7E5FBD7D
2FFD7FF4
0BE41F90
ENDCHAR
STARTCHAR Acircumflex
ENCODING 194
SWIDTH 786 0
DWIDTH 14 0
BBX 16 22 1 0
BITMAP
00002D00
0000BF00
0001EB40
0003D780
00078280
00000000
0006FF90
007FFFF0
02FE5590
0BE00A00
1F801F00
3F002F00
7D003E00
BC003D00
BC007D00
F800BC00
F800FC00
F801FC00
BC03FC0D
7E5FBD7D
2FFD7FF4
0BE41F90
ENDCHAR
STARTCHAR Atilde
ENCODING 195
SWIDTH 786 0
DWIDTH 14 0
BBX 16 21 1 0
BITMAP
0002E050
0007F9F0
000F6FE0
00050B80
00000000
0006FF90
007FFFF0
02FE5590
0BE00A00
1F801F00
3F002F00
7D003E00
BC003D00
BC007D00
F800BC00
F800FC00
F801FC00
BC03FC0D
7E5FBD7D
2FFD7FF4
0BE41F90
ENDCHAR
STARTCHAR Adieresis
ENCODING 196
SWIDTH 786 0
DWIDTH 14 0
BBX 16 20 1 0
BITMAP
0002D3C0
0007D7D0
0003C780
00000000
0006FF90
007FFFF0
02FE5590
0BE00A00
1F801F00
3F002F00
7D003E00
BC003D00
BC007D00
F800BC00
F800FC00
F801FC00
BC03FC0D
7E5FBD7D
2FFD7FF4
0BE41F90
ENDCHAR
STARTCHAR Aring
ENCODING 197
SWIDTH 786 0
DWIDTH 14 0
BBX 16 23 1 0
BITMAP
00007E00
0000FF40
0001D740
0001E740
0000FF00
00007D00
00000000
0006FF90
007FFFF0
02FE5590
0BE00A00
1F801F00
3F002F00
7D003E00
BC003D00
BC007D00
F800BC00
F800FC00
F801FC00
BC03FC0D
7E5FBD7D
2FFD7FF4
0BE41F90
ENDCHAR
STARTCHAR AE
ENCODING 198
SWIDTH 1015 0
DWIDTH 18 0
BBX 20 16 1 0
BITMAP
000BD2FFF4
00BFE7FFF4
02FE4B8000
0BE00F4000
1F801F4000
3F002F0000
7D002F0000
BC003FFFC0
BC007FFFC0
F800BD0000
F800FD0000
F801FD0000
BC03FE0004
7E1B6F917D
2FFE0FFFF8
07F802BF90
ENDCHAR
STARTCHAR Ccedilla
ENCODING 199
SWIDTH 686 0
DWIDTH 12 0
BBX 14 21 1 -5
BITMAP
006FE000
01FFFC00
0BE47D00
1F802E00
2F003E00
7D003D00
7C000400
BC000000
BC000000
B8000000
BC000000
BD000000
3E000050
2FD01BE0
0BFFFFC0
01FFE900
00BE0000
000F0000
001E0000
07FD0000
03F40000
ENDCHAR
STARTCHAR Egrave
ENCODING 200
SWIDTH 686 0
DWIDTH 12 0
BBX 15 22 0 0
BITMAP
00500000
01F40000
00FD0000
002F4000
00028000
00000000
002BF900
01FFFF40
07F41F80
0BD00B80
0BC00B80
07E40500
01FF8000
06FF4000
1FD00000
3E000000
7D000000
7D000000
7E000014
3F9016F8
0FFFFFE0
01BFF940
ENDCHAR
STARTCHAR Eacute
ENCODING 201
SWIDTH 686 0
DWIDTH 12 0
BBX 15 22 0 0
BITMAP
00000140
000007C0
00002F80
0000BD00
0000E000
00000000
002BF900
01FFFF40
07F41F80
0BD00B80
0BC00B80
07E40500
01FF8000
06FF4000
1FD00000
3E000000
7D000000
7D000000
7E000014
3F9016F8
0FFFFFE0
01BFF940
ENDCHAR
STARTCHAR Ecircumflex
ENCODING 202
SWIDTH 686 0
DWIDTH 12 0
BBX 15 22 0 0
BITMAP
0001F400
0003F800
000BBC00
001F2E00
001D1D00
00000000
002BF900
01FFFF40
07F41F80
0BD00B80
0BC00B80
07E40500
01FF8000
06FF4000
1FD00000
3E000000
7D000000
7D000000
7E000014
3F9016F8
0FFFFFE0
01BFF940
ENDCHAR
STARTCHAR Edieresis
ENCODING 203
SWIDTH 686 0
DWIDTH 12 0
BBX 15 20 0 0
BITMAP
000E1E00
001F2F00
001E1E00
00000000
002BF900
01FFFF40
07F41F80
0BD00B80
0BC00B80
07E40500
01FF8000
06FF4000
1FD00000
3E000000
7D000000
7D000000
7E000014
3F9016F8
0FFFFFE0
01BFF940
ENDCHAR
STARTCHAR Igrave
ENCODING 204
SWIDTH 495 0
DWIDTH 9 0
BBX 11 22 -1 0
BITMAP
010000
0BC000
07F400
01BD00
001A00
000000
02FFF8
03FFF8
002F00
002E00
003E00
003E00
003D00
007D00
007C00
00BC00
00B800
00F800
00F400
01F400
2FFF80
7FFF80
ENDCHAR
STARTCHAR Iacute
ENCODING 205
SWIDTH 495 0
DWIDTH 9 0
BBX 12 22 -1 0
BITMAP
000005
00002F
0000BE
0003F4
000740
000000
02FFF8
03FFF8
002F00
002E00
003E00
003E00
003D00
007D00
007C00
00BC00
00B800
00F800
00F400
01F400
2FFF80
7FFF80
ENDCHAR
STARTCHAR Icircumflex
ENCODING 206
SWIDTH 495 0
DWIDTH 9 0
BBX 11 22 -1 0
BITMAP
000780
001FD0
003DF0
00B8F4
00B074
000000
02FFF8
03FFF8
002F00
002E00
003E00
003E00
003D00
007D00
007C00
00BC00
00B800
00F800
00F400
01F400
2FFF80
7FFF80
ENDCHAR
STARTCHAR Idieresis
ENCODING 207
SWIDTH 495 0
DWIDTH 9 0
BBX 11 20 -1 0
BITMAP
0078B4
00BCF8
0074B4
000000
02FFF8
03FFF8
002F00
002E00
003E00
003E00
003D00
007D00
007C00
00BC00
00B800
00F800
00F400
01F400
2FFF80
7FFF80
ENDCHAR
STARTCHAR Eth
ENCODING 208
SWIDTH 821 0
DWIDTH 15 0
BBX 15 16 0 0
BITMAP
006FE400
00BFFF40
00F46FD0
01F007E0
02E002F0
03E001F4
7FFF81F4
BFFF81F4
0BC001F4
0B8002F0
0F8003E0
0F400BD0
1F401F80
1F45BE00
1FFFF800
0BFE8000
ENDCHAR
STARTCHAR Ntilde
ENCODING 209
SWIDTH 884 0
DWIDTH 16 0
BBX 19 21 0 0
BITMAP
0001E01000
0007FDB400
000B6FE000
0005078000
0000000000
06E01BE000
2FF87FF800
78B9E5F800
E0BA80BC00
40BB00B800
00FE00F800
00FD01F400
00FC01F400
01F802F000
01F402F000
02F003E000
02F003D000
03E003D034
03E003E1F0
03D002FFD0
02C000BE00
ENDCHAR
STARTCHAR Ograve
ENCODING 210
SWIDTH 816 0
DWIDTH 15 0
BBX 14 22 1 0
BITMAP
01400000
03E00000
02F80000
007E0000
000B0000
00000000
006FE400
02FFFD00
0BE47F40
1F800F80
2F000BC0
3D0007D0
7C0007D0
BC0007D0
BC0007C0
B8000BC0
BC000F80
BC001F40
7E003E00
2F81FC00
0FFFF000
01BE4000
ENDCHAR
STARTCHAR Oacute
ENCODING 211
SWIDTH 816 0
DWIDTH 15 0
BBX 14 22 1 0
BITMAP
00000100
00001F40
00007F40
0001F800
00029000
00000000
006FE400
02FFFD00
0BE47F40
1F800F80
2F000BC0
3D0007D0
7C0007D0
BC0007D0
BC0007C0
B8000BC0
BC000F80
BC001F40
7E003E00
2F81FC00
0FFFF000
01BE4000
ENDCHAR
STARTCHAR Ocircumflex
ENCODING 212
SWIDTH 816 0
DWIDTH 15 0
BBX 14 22 1 0
BITMAP
0002D000
000BF000
001EB400
003D7800
00782800
00000000
006FE400
02FFFD00
0BE47F40
1F800F80
2F000BC0
3D0007D0
7C0007D0
BC0007D0
BC0007C0
B8000BC0
BC000F80
BC001F40
7E003E00
2F81FC00
0FFFF000
01BE4000
ENDCHAR
STARTCHAR Otilde
ENCODING 213
SWIDTH 816 0
DWIDTH 15 0
BBX 14 21 1 0
BITMAP
002E0500
007F9F00
00B6FE00
0050B800
00000000
006FE400
02FFFD00
0BE47F40
1F800F80
2F000BC0
3D0007D0
7C0007D0
BC0007D0
BC0007C0
B8000BC0
BC000F80
BC001F40
7E003E00
2F81FC00
0FFFF000
01BE4000
ENDCHAR
STARTCHAR Odieresis
ENCODING 214
SWIDTH 816 0
DWIDTH 15 0
BBX 14 20 1 0
BITMAP
002D3C00
007D7D00
003C7800
00000000
006FE400
02FFFD00
0BE47F40
1F800F80
2F000BC0
3D0007D0
7C0007D0
BC0007D0
BC0007C0
B8000BC0
BC000F80
BC001F40
7E003E00
2F81FC00
0FFFF000
01BE4000
ENDCHAR
STARTCHAR multiply
ENCODING 215
SWIDTH 700 0
DWIDTH 13 0
BBX 9 9 2 1
BITMAP
140140
7C0B80
3F2F40
0FFD00
07F400
0BF400
2FBD00
B82F00
A00A00
ENDCHAR
STARTCHAR Oslash
ENCODING 216
SWIDTH 816 0
DWIDTH 15 0
BBX 14 20 1 -2
BITMAP
0000A000
0000F000
006FF400
01FFFD00
07E7FF40
1F83CF80
2F078BC0
3D0B47D0
7C0B07D0
BC0E07D0
BC1E07C0
B82D0BC0
BC2C0F80
BC3C1F40
7E783E00
2FF5FC00
0FFFF000
02FE4000
01E00000
01D00000
ENDCHAR
STARTCHAR Ugrave
ENCODING 217
SWIDTH 890 0
DWIDTH 16 0
BBX 19 22 0 0
BITMAP
0014000000
003D000000
002F800000
0007E00000
0000B00000
0000000000
06F4007800
2FFC00BC00
79BC00BC00
E07C00B800
40BC00F800
00B801F800
00F801F400
01F402F400
01F403F000
02F007F000
02E00FE000
03E01EE000
03E07AE074
03F6F2FAF0
02FFD2FFD0
00BE00BE40
ENDCHAR
STARTCHAR Uacute
ENCODING 218
SWIDTH 890 0
DWIDTH 16 0
BBX 19 22 0 0
BITMAP
0000005000
000001F400
000007F000
00001F8000
0000280000
0000000000
06F4007800
2FFC00BC00
79BC00BC00
E07C00B800
40BC00F800
00B801F800
00F801F400
01F402F400
01F403F000
02F007F000
02E00FE000
03E01EE000
03E07AE074
03F6F2FAF0
02FFD2FFD0
00BE00BE40
ENDCHAR
STARTCHAR Ucircumflex
ENCODING 219
SWIDTH 890 0
DWIDTH 16 0
BBX 19 22 0 0
BITMAP
00002D0000
0000BF0000
0001EB4000
0003D78000
0007838000
0000000000
06F4007800
2FFC00BC00
79BC00BC00
E07C00B800
40BC00F800
00B801F800
00F801F400
01F402F400
01F403F000
02F007F000
02E00FE000
03E01EE000
03E07AE074
03F6F2FAF0
02FFD2FFD0
00BE00BE40
ENDCHAR
STARTCHAR Udieresis
ENCODING 220
SWIDTH 890 0
DWIDTH 16 0
BBX 19 20 0 0
BITMAP
0002D78000
0007DBC000
0003C78000
0000000000
06F4007800
2FFC00BC00
79BC00BC00
E07C00B800
40BC00F800
00B801F800
00F801F400
01F402F400
01F403F000
02F007F000
02E00FE000
03E01EE000
03E07AE074
03F6F2FAF0
02FFD2FFD0
00BE00BE40
ENDCHAR
STARTCHAR Yacute
ENCODING 221
SWIDTH 851 0
DWIDTH 15 0
BBX 18 28 0 -6
BITMAP
0000001000
000000F800
000007F400
00001F9000
0000290000
0000000000
06F4007800
2FFC00BC00
79BC00BC00
E07C00B800
80BC00F800
00BC01F800
00F801F400
01F402F400
01F407F000
01F00BF000
02F01EF000
01F47AE000
00FFE2EBD0
006F9BFF80
0000BFE400
0007E7C000
001F47C000
007C0B8000
00B80F4000
00B82E0000
007FFC0000
001FE00000
ENDCHAR
STARTCHAR Thorn
ENCODING 222
SWIDTH 776 0
DWIDTH 14 0
BBX 14 20 0 -2
BITMAP
0003C000
0007C000
000BC000
000BC000
001FF900
00BFFFC0
03FF9BE0
0B9F43F0
0F1F42F0
2E1F02F0
2D2F07E0
3C2E1FC0
3CFFFE00
78BFE400
787D0000
3C7C0000
3CBC0000
2EF80000
0FF40000
06E00000
ENDCHAR
STARTCHAR germandbls
ENCODING 223
SWIDTH 596 0
DWIDTH 11 0
BBX 13 19 0 -4
BITMAP
006F8000
01FFF000
07D1F400
0B80F400
1F01F000
1E0BD000
2E2E0000
2D7D0000
3D3E0000
3D2FE900
3D7FFFC0
3DF0F540
3DF5F400
3DFFF000
7C6F8000
7C000000
7C000000
7C000000
38000000
ENDCHAR
STARTCHAR agrave
ENCODING 224
SWIDTH 470 0
DWIDTH 8 0
BBX 11 16 0 0
BITMAP
074000
0B8000
07C000
02E000
00B000
003000
000000
01F400
0BFE00
1F6E00
3E2E00
7C3D00
7C3D28
7DBDB8
3FEFE0
1F4B80
ENDCHAR
STARTCHAR aacute
ENCODING 225
SWIDTH 470 0
DWIDTH 8 0
BBX 11 16 0 0
BITMAP
000380
000B80
000F40
001E00
002C00
003400
000000
01F400
0BFE00
1F6E00
3E2E00
7C3D00
7C3D28
7DBDB8
3FEFE0
1F4B80
ENDCHAR
STARTCHAR acircumflex
ENCODING 226
SWIDTH 470 0
DWIDTH 8 0
BBX 11 17 0 0
BITMAP
001400
003E00
00BF00
01EB00
02DB40
078740
074740
000000
01F400
0BFE00
1F6E00
3E2E00
7C3D00
7C3D28
7DBDB8
3FEFE0
1F4B80
ENDCHAR
STARTCHAR atilde
ENCODING 227
SWIDTH 470 0
DWIDTH 8 0
BBX 11 14 0 0
BITMAP
02D050
0BF9E0
0F7FD0
040B40
000000
01F400
0BFE00
1F6E00
3E2E00
7C3D00
7C3D28
7DBDB8
3FEFE0
1F4B80
ENDCHAR
STARTCHAR adieresis
ENCODING 228
SWIDTH 470 0
DWIDTH 8 0
BBX 11 13 0 0
BITMAP
03C780
07CBC0
078780
000000
01F400
0BFE00
1F6E00
3E2E00
7C3D00
7C3D28
7DBDB8
3FEFE0
1F4B80
ENDCHAR
STARTCHAR aring
ENCODING 229
SWIDTH 470 0
DWIDTH 8 0
BBX 11 16 0 0
BITMAP
007D00
01FF00
01DB40
02DB40
01FF00
00B900
000000
01F400
0BFE00
1F6E00
3E2E00
7C3D00
7C3D28
7DBDB8
3FEFE0
1F4B80
ENDCHAR
STARTCHAR ae
ENCODING 230
SWIDTH 653 0
DWIDTH 12 0
BBX 14 9 0 0
BITMAP
01B9F800
0BFFFD00
1F5F5E00
3D2E2D00
7C2EB810
7C3FD0B0
7DBF46E0
3FEFFF80
1B82F900
ENDCHAR
STARTCHAR ccedilla
ENCODING 231
SWIDTH 368 0
DWIDTH 7 0
BBX 9 14 0 -5
BITMAP
06E000
1FF400
2E7800
3D7800
7C2000
7C0080
7C02C0
3E1B40
1FFD00
0BE000
00B000
00B400
2FE000
2F8000
ENDCHAR
STARTCHAR egrave
ENCODING 232
SWIDTH 393 0
DWIDTH 7 0
BBX 10 16 0 0
BITMAP
1D0000
1F0000
0F4000
078000
02D000
009000
000000
06E400
1FF800
3E7C00
7C7800
7EF400
7F81D0
3E1BC0
2FFF40
0BF800
ENDCHAR
STARTCHAR eacute
ENCODING 233
SWIDTH 393 0
DWIDTH 7 0
BBX 10 16 0 0
BITMAP
000A00
001F00
002E00
003C00
00B400
009000
000000
06E400
1FF800
3E7C00
7C7800
7EF400
7F81D0
3E1BC0
2FFF40
0BF800
ENDCHAR
STARTCHAR ecircumflex
ENCODING 234
SWIDTH 393 0
DWIDTH 7 0
BBX 10 17 0 0
BITMAP
001000
00F800
01FC00
03ED00
079E00
0F1E00
0D0E00
000000
06E400
1FF800
3E7C00
7C7800
7EF400
7F81D0
3E1BC0
2FFF40
0BF800
ENDCHAR
STARTCHAR edieresis
ENCODING 235
SWIDTH 393 0
DWIDTH 7 0
BBX 10 13 0 0
BITMAP
0B4E00
0F5F00
0F1E00
000000
06E400
1FF800
3E7C00
7C7800
7EF400
7F81D0
3E1BC0
2FFF40
0BF800
ENDCHAR
STARTCHAR igrave
ENCODING 236
SWIDTH 246 0
DWIDTH 4 0
BBX 8 16 -1 0
BITMAP
3800
7D00
2E00
0F00
0740
0280
0000
0780
0B80
0B80
0F40
0F01
0F0A
0F6D
0FF8
07E0
ENDCHAR
STARTCHAR iacute
ENCODING 237
SWIDTH 246 0
DWIDTH 4 0
BBX 6 16 1 0
BITMAP
02C0
03D0
0B80
0F40
1D00
1800
0000
7800
B800
B800
F400
F010
F0A0
F6D0
FF80
7E00
ENDCHAR
STARTCHAR icircumflex
ENCODING 238
SWIDTH 246 0
DWIDTH 4 0
BBX 7 17 0 0
BITMAP
0140
0BC0
1FD0
2DE0
78E0
B4F0
E0A0
0000
1E00
2E00
2E00
3D00
3C04
3C28
3DB4
3FE0
1F80
ENDCHAR
STARTCHAR idieresis
ENCODING 239
SWIDTH 246 0
DWIDTH 4 0
BBX 7 13 0 0
BITMAP
B4B0
F9F4
B4F0
0000
1E00
2E00
2E00
3D00
3C04
3C28
3DB4
3FE0
1F80
ENDCHAR
STARTCHAR eth
ENCODING 240
SWIDTH 451 0
DWIDTH 8 0
BBX 10 18 0 0
BITMAP
078000
03E1D0
01FBC0
00BE00
07FD00
076D00
001E00
001F00
001F00
06EF00
1FFF00
3E1F00
7C1F00
7C1E00
7C2E00
7D7D00
2FF800
0BE000
ENDCHAR
STARTCHAR ntilde
ENCODING 241
SWIDTH 496 0
DWIDTH 9 0
BBX 11 14 1 0
BITMAP
0B4140
1FE780
3DBF40
142E00
000000
387C00
B9FD00
B7FC00
FB7C00
FD7810
FC7874
F8B9F0
F4BFD0
B02E40
ENDCHAR
STARTCHAR ograve
ENCODING 242
SWIDTH 451 0
DWIDTH 8 0
BBX 11 16 0 0
BITMAP
1D0000
1F0000
0F4000
078000
02C000
009000
000000
06E400
1FFD00
3E7E10
7C7FF4
7C2FE4
7C1E00
3D7C00
2FF800
0BE000
ENDCHAR
STARTCHAR oacute
ENCODING 243
SWIDTH 451 0
DWIDTH 8 0
BBX 11 16 0 0
BITMAP
000A00
001F00
002E00
007800
00B400
009000
000000
06E400
1FFD00
3E7E10
7C7FF4
7C2FE4
7C1E00
3D7C00
2FF800
0BE000
ENDCHAR
STARTCHAR ocircumflex
ENCODING 244
SWIDTH 451 0
DWIDTH 8 0
BBX 11 17 0 0
BITMAP
001000
00F800
02FC00
03ED00
0B5D00
0F1E00
1D0E00
000000
06E400
1FFD00
3E7E10
7C7FF4
7C2FE4
7C1E00
3D7C00
2FF800
0BE000
ENDCHAR
STARTCHAR otilde
ENCODING 245
SWIDTH 451 0
DWIDTH 8 0
BBX 11 14 0 0
BITMAP
0B8140
1FE780
3DBF40
142E00
000000
06E400
1FFD00
3E7E10
7C7FF4
7C2FE4
7C1E00
3D7C00
2FF800
0BE000
ENDCHAR
STARTCHAR odieresis
ENCODING 246
SWIDTH 451 0
DWIDTH 8 0
BBX 11 13 0 0
BITMAP
0B1E00
1F5F00
0F1E00
000000
06E400
1FFD00
3E7E10
7C7FF4
7C2FE4
7C1E00
3D7C00
2FF800
0BE000
ENDCHAR
STARTCHAR divide
ENCODING 247
SWIDTH 700 0
DWIDTH 13 0
BBX 11 11 1 0
BITMAP
007800
00BC00
007800
000000
000000
7FFFF4
7FFFF0
000000
01E000
01F400
01E000
ENDCHAR
STARTCHAR oslash
ENCODING 248
SWIDTH 459 0
DWIDTH 8 0
BBX 11 15 0 -3
BITMAP
001000
007000
00A000
06F400
1FFD00
3EEE00
7CDFA8
79CFF8
7D9F50
7EAD00
2FFC00
0BE000
030000
070000
010000
ENDCHAR
STARTCHAR ugrave
ENCODING 249
SWIDTH 462 0
DWIDTH 8 0
BBX 10 16 1 0
BITMAP
2C0000
3D0000
1F0000
0B4000
038000
018000
000000
382800
787800
B4B800
F4F400
F1F400
F2F0A0
FFF6D0
FDFF80
787D00
ENDCHAR
STARTCHAR uacute
ENCODING 250
SWIDTH 462 0
DWIDTH 8 0
BBX 10 16 1 0
BITMAP
001D00
003E00
007C00
00B400
00E000
01C000
000000
382800
787800
B4B800
F4F400
F1F400
F2F0A0
FFF6D0
FDFF80
787D00
ENDCHAR
STARTCHAR ucircumflex
ENCODING 251
SWIDTH 462 0
DWIDTH 8 0
BBX 10 17 1 0
BITMAP
005000
01F400
03F800
077800
0F3C00
1E2D00
2C1C00
000000
382800
787800
B4B800
F4F400
F1F400
F2F0A0
FFF6D0
FDFF80
787D00
ENDCHAR
STARTCHAR udieresis
ENCODING 252
SWIDTH 462 0
DWIDTH 8 0
BBX 10 13 1 0
BITMAP
1E2D00
2F3E00
1E2D00
000000
382800
787800
B4B800
F4F400
F1F400
F2F0A0
FFF6D0
FDFF80
787D00
ENDCHAR
STARTCHAR yacute
ENCODING 253
SWIDTH 479 0
DWIDTH 9 0
BBX 11 25 0 -9
BITMAP
000740
000F80
001F00
002D00
003800
007000
000000
0E0A00
1E1E00
2D2E00
3D3D00
3C7D00
3CBD78
3FFEF4
3FBF80
1E7E00
01F800
07F400
1EF000
3CF000
B5E000
E2D000
E7C000
FF4000
7D0000
ENDCHAR
STARTCHAR thorn
ENCODING 254
SWIDTH 508 0
DWIDTH 9 0
BBX 12 22 0 -7
BITMAP
078000
0B8000
0F4000
0F0000
1F0000
1E0000
2E2E00
2DBF40
3EDF40
3F4F40
3F0F44
7E1F0D
7D7E7C
7FFFF4
7F9B90
780000
780000
B80000
B80000
B80000
B80000
100000
ENDCHAR
STARTCHAR ydieresis
ENCODING 255
SWIDTH 479 0
DWIDTH 9 0
BBX 11 22 0 -9
BITMAP
078B40
0BCF80
078B40
000000
0E0A00
1E1E00
2D2E00
3D3D00
3C7D00
3CBD78
3FFEF4
3FBF80
1E7E00
01F800
07F400
1EF000
3CF000
B5E000
E2D000
E7C000
FF4000
7D0000
ENDCHAR
STARTCHAR Amacron
ENCODING 256
SWIDTH 786 0
DWIDTH 14 0
BBX 16 19 1 0
BITMAP
0003FF80
0003FF40
00000000
0006FF90
007FFFF0
02FE5590
0BE00A00
1F801F00
3F002F00
7D003E00
BC003D00
BC007D00
F800BC00
F800FC00
F801FC00
BC03FC0D
7E5FBD7D
2FFD7FF4
0BE41F90
ENDCHAR
STARTCHAR amacron
ENCODING 257
SWIDTH 470 0
DWIDTH 8 0
BBX 11 12 0 0
BITMAP
03FF40
03FF40
000000
01F400
0BFE00
1F6E00
3E2E00
7C3D00
7C3D28
7DBDB8
3FEFE0
1F4B80
ENDCHAR
STARTCHAR Abreve
ENCODING 258
SWIDTH 786 0
DWIDTH 14 0
BBX 16 21 1 0
BITMAP
00010050
000B82E0
0007FFD0
0001BE40
00000000
0006FF90
007FFFF0
02FE5590
0BE00A00
1F801F00
3F002F00
7D003E00
BC003D00
BC007D00
F800BC00
F800FC00
F801FC00
BC03FC0D
7E5FBD7D
2FFD7FF4
0BE41F90
ENDCHAR
STARTCHAR abreve
ENCODING 259
SWIDTH 470 0
DWIDTH 8 0
BBX 11 15 0 0
BITMAP
050040
0F01D0
0B87D0
07FF80
01BE00
000000
01F400
0BFE00
1F6E00
3E2E00
7C3D00
7C3D28
7DBDB8
3FEFE0
1F4B80
ENDCHAR
STARTCHAR Aogonek
ENCODING 260
SWIDTH 786 0
DWIDTH 14 0
BBX 16 21 1 -5
BITMAP
0006FF90
007FFFF0
02FD4150
0BE00A00
1F801F00
3F002F00
7D003E00
BC003D00
BC007D00
F800BC00
F800FC00
F801FC00
BC03FC09
7E1BBD6D
2FFD7FF4
0BE41FD0
00001E00
00002C00
00003D00
00002FF0
00000690
ENDCHAR
STARTCHAR aogonek
ENCODING 261
SWIDTH 470 0
DWIDTH 8 0
BBX 11 14 0 -5
BITMAP
01F400
0BFE00
1F6E00
3E2E00
7C3D00
7C3D28
7CBDB8
3FEFE0
1F5F80
003D00
007400
007840
007FD0
001A40
ENDCHAR
STARTCHAR Cacute
ENCODING 262
SWIDTH 686 0
DWIDTH 12 0
BBX 14 22 1 0
BITMAP
00000100
00001F40
00007F00
0001F800
00029000
00000000
006FE000
01FFFC00
0BE47D00
1F802E00
2F003E00
7D003D00
7C000400
BC000000
BC000000
B8000000
BC000000
BD000000
3E000050
2FD01BE0
0BFFFFC0
01AFE900
ENDCHAR
STARTCHAR cacute
ENCODING 263
SWIDTH 368 0
DWIDTH 7 0
BBX 9 16 0 0
BITMAP
000E00
001F00
003E00
007800
00B000
009000
000000
06E000
1FF800
3E7800
7C7400
7C0040
7C02C0
7E1B80
2FFE00
0BE400
ENDCHAR
STARTCHAR Ccircumflex
ENCODING 264
SWIDTH 686 0
DWIDTH 12 0
BBX 14 22 1 0
BITMAP
0002D000
000BF000
001EB400
003D7800
00783800
00000000
006FE000
01FFFC00
0BE47D00
1F802E00
2F003E00
7D003D00
7C000400
BC000000
BC000000
B8000000
BC000000
BD000000
3E000050
2FD01BE0
0BFFFFC0
01AFE900
ENDCHAR
STARTCHAR ccircumflex
ENCODING 265
SWIDTH 368 0
DWIDTH 7 0
BBX 9 17 0 0
BITMAP
001000
00F800
02FC00
03ED00
0B5D00
0F1E00
1D0E00
000000
06E000
1FF800
3E7800
7C7400
7C0040
7C02C0
7E1B80
2FFE00
0BE400
ENDCHAR
STARTCHAR Cdotaccent
ENCODING 266
SWIDTH 686 0
DWIDTH 12 0
BBX 14 20 1 0
BITMAP
0007D000
000BE000
0007C000
00000000
006FE000
01FFFC00
0BE47D00
1F802E00
2F003E00
7D003D00
7C000400
BC000000
BC000000
B8000000
BC000000
BD000000
3E000050
2FD01BE0
0BFFFFC0
01AFE900
ENDCHAR
STARTCHAR cdotaccent
ENCODING 267
SWIDTH 368 0
DWIDTH 7 0
BBX 9 13 0 0
BITMAP
01F400
02F400
01E000
000000
06E000
1FF800
3E7800
7C7400
7C0040
7C02C0
7E1B80
2FFE00
0BE400
ENDCHAR
STARTCHAR Ccaron
ENCODING 268
SWIDTH 686 0
DWIDTH 12 0
BBX 14 22 1 0
BITMAP
002C1D00
002D3C00
001EB400
000BE000
00078000
00000000
006FE000
01FFFC00
0BE47D00
1F802E00
2F003E00
7D003D00
7C000400
BC000000
BC000000
B8000000
BC000000
BD000000
3E000050
2FD01BE0
0BFFFFC0
01AFE900
ENDCHAR
STARTCHAR ccaron
ENCODING 269
SWIDTH 368 0
DWIDTH 7 0
BBX 9 17 0 0
BITMAP
010100
074B40
078F00
039E00
03BC00
02F400
01E000
000000
06E000
1FF800
3E7800
7C7400
7C0040
7C02C0
7E1B80
2FFE00
0BE400
ENDCHAR
STARTCHAR Dcaron
ENCODING 270
SWIDTH 836 0
DWIDTH 15 0
BBX 14 22 1 0
BITMAP
00743400
0078B400
003DE000
001FC000
000B4000
00000000
06BFA000
6FFFFD00
FE417F40
90000FC0
07D007D0
07C003E0
0B8003E0
0F8003E0
0F4003E0
1F0007D0
2F000BC0
2F001F80
2E007F00
3E16FD00
3FFFE000
2FFE4000
ENDCHAR
STARTCHAR dcaron
ENCODING 271
SWIDTH 470 0
DWIDTH 8 0
BBX 12 16 0 0
BITMAP
0002DF
0007DF
0007DE
000B9C
000B80
000B40
000F40
01FF00
0BFF00
1F6E00
3E2E00
7C3D00
7C3D28
7DBDB8
3FEFE0
1F4B80
ENDCHAR
STARTCHAR Dcroat
ENCODING 272
SWIDTH 821 0
DWIDTH 15 0
BBX 15 16 0 0
BITMAP
006FE400
00BFFF40
00F46FD0
01F007E0
02E002F0
03E001F4
7FFF81F4
BFFF81F4
0BC001F4
0B8002F0
0F8003E0
0F400BD0
1F401F80
1F45BE00
1FFFF800
0BFE8000
ENDCHAR
STARTCHAR dcroat
ENCODING 273
SWIDTH 470 0
DWIDTH 8 0
BBX 11 16 0 0
BITMAP
0002C0
0007C0
0007C0
03FFE0
03FFD0
000B40
000F40
01FF00
0BFF00
1F6E00
3E2E00
7C3D00
7C3D28
7DBDB8
3FEFE0
1F4B80
ENDCHAR
STARTCHAR Emacron
ENCODING 274
SWIDTH 686 0
DWIDTH 12 0
BBX 15 19 0 0
BITMAP
000FFD00
001FFD00
00000000
002BF900
01FFFF40
07F41F80
0BD00B80
0BC00B80
07E40500
01FF8000
06FF4000
1FD00000
3E000000
7D000000
7D000000
7E000014
3F9016F8
0FFFFFE0
01BFF940
ENDCHAR
STARTCHAR emacron
ENCODING 275
SWIDTH 393 0
DWIDTH 7 0
BBX 10 12 0 0
BITMAP
0FFE00
0FFD00
000000
06E400
1FF800
3E7C00
7C7800
7EF400
7F81D0
3E1BC0
2FFF40
0BF800
ENDCHAR
STARTCHAR Ebreve
ENCODING 276
SWIDTH 686 0
DWIDTH 12 0
BBX 15 21 0 0
BITMAP
00140100
003D1B40
002FFF00
0007F800
00000000
002BF900
01FFFF40
07F41F80
0BD00B80
0BC00B80
07E40500
01FF8000
06FF4000
1FD00000
3E000000
7D000000
7D000000
7E000014
3F9016F8
0FFFFFE0
01BFF940
ENDCHAR
STARTCHAR ebreve
ENCODING 277
SWIDTH 393 0
DWIDTH 7 0
BBX 10 15 0 0
BITMAP
040140
2D0780
1F4B80
0FFF00
02F800
000000
06E400
1FF800
3E7C00
7C7800
7EF400
7F81D0
3E1BC0
2FFF40
0BF800
ENDCHAR
STARTCHAR Edotaccent
ENCODING 278
SWIDTH 686 0
DWIDTH 12 0
BBX 15 20 0 0
BITMAP
0001F000
0003F400
0002E000
00000000
002BF900
01FFFF40
07F41F80
0BD00B80
0BC00B80
07E40500
01FF8000
06FF4000
1FD00000
3E000000
7D000000
7D000000
7E000014
3F9016F8
0FFFFFE0
01BFF940
ENDCHAR
STARTCHAR edotaccent
ENCODING 279
SWIDTH 393 0
DWIDTH 7 0
BBX 10 13 0 0
BITMAP
01F400
02F800
01F000
000000
06E400
1FF800
3E7C00
7C7800
7EF400
7F81D0
3E1BC0
2FFF40
0BF800
ENDCHAR
STARTCHAR Eogonek
ENCODING 280
SWIDTH 686 0
DWIDTH 12 0
BBX 15 21 0 -5
BITMAP
002BF900
01FFFF40
07F41F80
0BD00B80
0BC00B80
07E40500
01FF8000
06FF4000
1FD00000
3E000000
7D000000
7D000000
7E000014
3F9016F8
1FFFFFE0
01BFFA40
000B4000
000F0000
000F4000
000BF800
0002F400
ENDCHAR
STARTCHAR eogonek
ENCODING 281
SWIDTH 393 0
DWIDTH 7 0
BBX 10 14 0 -5
BITMAP
06E400
1FF800
2E7C00
7C3800
79F400
7FD0D0
7E07D0
2FAF40
0BF900
02D000
038000
078000
03ED00
01B800
ENDCHAR
STARTCHAR Ecaron
ENCODING 282
SWIDTH 686 0
DWIDTH 12 0
BBX 15 22 0 0
BITMAP
000A0B00
000F1E00
00077C00
0003F400
0001E000
00000000
002BF900
01FFFF40
07F41F80
0BD00B80
0BC00B80
07E40500
01FF8000
06FF4000
1FD00000
3E000000
7D000000
7D000000
7E000014
3F9016F8
0FFFFFE0
01BFF940
ENDCHAR
STARTCHAR ecaron
ENCODING 283
SWIDTH 393 0
DWIDTH 7 0
BBX 10 17 0 0
BITMAP
010100
078780
078F00
039E00
02EC00
02F800
01E000
000000
06E400
1FF800
3E7C00
7C7800
7EF400
7F81D0
3E1BC0
2FFF40
0BF800
ENDCHAR
STARTCHAR Gcircumflex
ENCODING 284
SWIDTH 811 0
DWIDTH 15 0
BBX 16 31 1 -9
BITMAP
0002E000
0007F400
000F7800
002D3C00
00382C00
00000000
002FE400
01FFFD00
0BE46F00
1F801F00
2F001F00
7D001E00
BC000400
BC000000
BC000000
B801FF40
BC01FF80
BD000B40
3E000F49
2FD05F7D
0BFFFFF4
01BFAF80
00007E00
0001FD00
0003BD00
000F3C00
001D7800
003CB400
0039F000
003FD000
001F4000
ENDCHAR
STARTCHAR gcircumflex
ENCODING 285
SWIDTH 479 0
DWIDTH 9 0
BBX 11 26 0 -9
BITMAP
001400
003E00
00BF00
01EB00
02DB40
078740
074740
000000
01F400
0BFE00
1F6E00
3E2E00
7C3D00
7C3D78
7CBEF4
3FFFD0
1FBE00
01F800
07F400
1EF400
3CF000
75E000
B2D000
F7C000
FF4000
7D0000
ENDCHAR
STARTCHAR Gbreve
ENCODING 286
SWIDTH 811 0
DWIDTH 15 0
BBX 16 30 1 -9
BITMAP
00100500
007D1F00
003FFD00
001BE400
00000000
002FE400
01FFFD00
0BE46F00
1F801F00
2F001F00
7D001E00
BC000400
BC000000
BC000000
B801FF40
BC01FF80
BD000B40
3E000F49
2FD05F7D
0BFFFFF4
01BFAF80
00007E00
0001FD00
0003BD00
000F3C00
001D7800
003CB400
0039F000
003FD000
001F4000
ENDCHAR
STARTCHAR gbreve
ENCODING 287
SWIDTH 479 0
DWIDTH 9 0
BBX 11 24 0 -9
BITMAP
050040
0F01D0
0B87D0
07FF80
01BE00
000000
01F400
0BFE00
1F6E00
3E2E00
7C3D00
7C3D78
7CBEF4
3FFFD0
1FBE00
01F800
07F400
1EF400
3CF000
75E000
B2D000
F7C000
FF4000
7D0000
ENDCHAR
STARTCHAR Gdotaccent
ENCODING 288
SWIDTH 811 0
DWIDTH 15 0
BBX 16 29 1 -9
BITMAP
0002D000
0007E000
0003D000
00000000
002FE400
01FFFD00
0BE46F00
1F801F00
2F001F00
7D001E00
BC000400
BC000000
BC000000
B801FF40
BC01FF80
BD000B40
3E000F49
2FD05F7D
0BFFFFF4
01BFAF80
00007E00
0001FD00
0003BD00
000F3C00
001D7800
003CB400
0039F000
003FD000
001F4000
ENDCHAR
STARTCHAR gdotaccent
ENCODING 289
SWIDTH 479 0
DWIDTH 9 0
BBX 11 22 0 -9
BITMAP
007C00
00FD00
00B800
000000
01F400
0BFE00
1F6E00
3E2E00
7C3D00
7C3D78
7CBEF4
3FFFD0
1FBE00
01F800
07F400
1EF400
3CF000
75E000
B2D000
F7C000
FF4000
7D0000
ENDCHAR
STARTCHAR uni0122
ENCODING 290
SWIDTH 811 0
DWIDTH 15 0
BBX 16 25 1 -9
BITMAP
002FE400
01FFFD00
0BE46F00
1F801F00
2F001F00
7D001E00
BC000400
BC000000
BC000000
B801FF40
BC01FF80
BD000B40
3E000F49
2FD05F7D
0BFFFFF4
01BFAF80
00007E00
0381FD00
0783BD00
078F3C00
075D7800
003CB400
0039F000
003FD000
001F4000
ENDCHAR
STARTCHAR uni0123
ENCODING 291
SWIDTH 479 0
DWIDTH 9 0
BBX 11 24 0 -9
BITMAP
002C00
003C00
003C00
003800
003400
000000
01F400
0BFE00
1F6E00
3E2E00
7C3D00
7C3D78
7CBEF4
3FFFD0
1FBE00
01F800
07F400
1EF400
3CF000
75E000
B2D000
F7C000
FF4000
7D0000
ENDCHAR
STARTCHAR Hcircumflex
ENCODING 292
SWIDTH 873 0
DWIDTH 16 0
BBX 19 22 -1 0
BITMAP
00000B4000
00003FC000
0000BAD000
0001F1E000
0001D0E000
00000007D0
01B8001FF0
0BFE002EB0
2E2F007C70
781F00B8B0
201F00F4E0
002F01F2D0
002E01FB40
002E02FD00
03FFFFE000
07FFEBE000
007C03E000
00BC03E000
00F802E01C
00F401F47C
01F400FFF0
01E0002F80
ENDCHAR
STARTCHAR hcircumflex
ENCODING 293
SWIDTH 502 0
DWIDTH 9 0
BBX 11 23 1 0
BITMAP
00B800
01FD00
07DE00
0B4F00
0E0B00
01E000
07F800
0F7800
1E3800
2D7400
3C7400
7CE000
79D000
BB8000
BE6D00
FDFD00
F7FD00
FB7C00
FE7C10
FC7874
F8B9F0
F87FD0
A02E40
ENDCHAR
STARTCHAR Hbar
ENCODING 294
SWIDTH 856 0
DWIDTH 15 0
BBX 15 16 1 0
BITMAP
07C003D0
07C007D0
7FFFFFF8
7FFFFFF8
0F800BC0
0F800B80
0F400B80
BFFFFFF0
FFFFFFF0
2F001F40
2F001F00
3E002F00
3E002E00
3D003E00
7D003E00
3C002D00
ENDCHAR
STARTCHAR hbar
ENCODING 295
SWIDTH 502 0
DWIDTH 9 0
BBX 11 16 1 0
BITMAP
0B4000
1F4000
1F0000
FFFC00
BFF800
3D0000
7C0000
7C6D00
B9FD00
BBFD00
BB7C00
FE7C10
FC7874
F8B9F0
F87FD0
B02E40
ENDCHAR
STARTCHAR Itilde
ENCODING 296
SWIDTH 495 0
DWIDTH 9 0
BBX 12 21 -1 0
BITMAP
007904
00FF6D
01E7FC
0041F4
000000
02FFF8
03FFF8
002F00
002E00
003E00
003E00
003D00
007D00
007C00
00BC00
00B800
00F800
00F400
01F400
2FFF80
7FFF80
ENDCHAR
STARTCHAR itilde
ENCODING 297
SWIDTH 246 0
DWIDTH 4 0
BBX 8 14 -1 0
BITMAP
1E01
3FDB
B6FE
5078
0000
0780
0B80
0B80
0F40
0F01
0F0A
0F6D
0FF8
07E0
ENDCHAR
STARTCHAR Imacron
ENCODING 298
SWIDTH 495 0
DWIDTH 9 0
BBX 11 19 -1 0
BITMAP
007FF0
007FF0
000000
02FFF8
03FFF8
002F00
002E00
003E00
003E00
003D00
007D00
007C00
00BC00
00B800
00F800
00F400
01F400
2FFF80
7FFF80
ENDCHAR
STARTCHAR imacron
ENCODING 299
SWIDTH 246 0
DWIDTH 4 0
BBX 7 12 0 0
BITMAP
BFE0
BFE0
0000
1E00
2E00
2E00
3D00
3C04
3C28
3DB4
3FE0
1F80
ENDCHAR
STARTCHAR Ibreve
ENCODING 300
SWIDTH 495 0
DWIDTH 9 0
BBX 11 21 -1 0
BITMAP
005004
01F47C
00FFF8
002FD0
000000
02FFF8
03FFF8
002F00
002E00
003E00
003E00
003D00
007D00
007C00
00BC00
00B800
00F800
00F400
01F400
2FFF80
7FFF80
ENDCHAR
STARTCHAR ibreve
ENCODING 301
SWIDTH 246 0
DWIDTH 4 0
BBX 8 15 -1 0
BITMAP
1005
780F
7D2E
2FFD
0BE4
0000
0780
0B80
0B80
0F40
0F01
0F0A
0F6D
0FF8
07E0
ENDCHAR
STARTCHAR Iogonek
ENCODING 302
SWIDTH 495 0
DWIDTH 9 0
BBX 11 21 -1 -5
BITMAP
02FFF8
03FFF8
002F00
002E00
003E00
003E00
003D00
007D00
007C00
00BC00
00B800
00F800
00F400
01F400
2FFF80
7FFF80
02D000
038000
03C400
03FE00
01BD00
ENDCHAR
STARTCHAR iogonek
ENCODING 303
SWIDTH 246 0
DWIDTH 4 0
BBX 7 18 0 -5
BITMAP
0B40
1F80
0F40
0000
1E00
2E00
2E00
3D00
3C00
3C28
3DB4
3FE0
1F40
3D00
7400
7840
7FC0
1A40
ENDCHAR
STARTCHAR Idotaccent
ENCODING 304
SWIDTH 495 0
DWIDTH 9 0
BBX 11 20 -1 0
BITMAP
000B80
001FC0
000B40
000000
02FFF8
03FFF8
002F00
002E00
003E00
003E00
003D00
007D00
007C00
00BC00
00B800
00F800
00F400
01F400
2FFF80
7FFF80
ENDCHAR
STARTCHAR dotlessi
ENCODING 305
SWIDTH 246 0
DWIDTH 4 0
BBX 6 9 1 0
BITMAP
7800
B800
B800
F400
F010
F0A0
F6D0
FF80
7E00
ENDCHAR
STARTCHAR Jcircumflex
ENCODING 308
SWIDTH 743 0
DWIDTH 13 0
BBX 13 24 1 -2
BITMAP
000B8000
001FD000
007DE000
00B4F000
00E0B000
00000000
01BFFA40
1FFFFF80
7E402F40
B8003E00
B4003E00
B8003D00
38007D00
0000BC00
0007FC00
007FF800
01F8F800
07E0F400
0B81F000
1F02E000
1F07D000
1F4F8000
0FFE0000
06F80000
ENDCHAR
STARTCHAR jcircumflex
ENCODING 309
SWIDTH 254 0
DWIDTH 5 0
BBX 11 26 -4 -9
BITMAP
000140
000BC0
001FD0
002DE0
0078E0
00B4F0
00E0A0
000000
001E00
002E00
002E00
002D00
003D00
003D74
003EF4
007F80
007E00
00F800
07F400
0EF400
3CF000
75E000
E2D000
E7C000
FF4000
7D0000
ENDCHAR
STARTCHAR uni0136
ENCODING 310
SWIDTH 937 0
DWIDTH 17 0
BBX 19 21 0 -5
BITMAP
01BFE002D0
0BFFF807D0
1F42F00FC0
2D03E01F40
2D03D03E00
1E07D0BC00
0407D7F400
002FFF8000
002FFE0000
000B9F8000
000F8BD000
100F43E004
741F42F41C
7D7F01FDBC
3FFD00BFF0
0BE4002F80
0000000000
0000A00000
0000F00000
0000E00000
0000D00000
ENDCHAR
STARTCHAR uni0137
ENCODING 311
SWIDTH 525 0
DWIDTH 9 0
BBX 11 24 1 -6
BITMAP
01E000
07F800
0F7800
1E3800
2D7400
3C7000
7CE000
79C000
BB4000
BE6D00
F9FF00
F79F40
FB1F00
FD7D04
FDF428
F8F4B4
F8BFE0
B02F80
000000
0B0000
0F4000
0F0000
0E0000
0D0000
ENDCHAR
STARTCHAR kgreenlandic
ENCODING 312
SWIDTH 465 0
DWIDTH 8 0
BBX 10 9 1 0
BITMAP
38BD00
BAFF00
BBDF00
FB8E00
FF4000
FF40A0
FFD2D0
F6FF80
B0BD00
ENDCHAR
STARTCHAR Lacute
ENCODING 313
SWIDTH 673 0
DWIDTH 12 0
BBX 16 22 -1 0
BITMAP
00000014
000000B8
000002F8
00000FD0
00001D00
00000000
0001BF40
000BFFE0
002F42F0
007D01F4
00BC01F0
00F801E0
00F80000
00F40000
01F40000
01F40000
01F00000
01F00004
2FF9000D
BFFFD47C
BFEFFFF4
6F41BF90
ENDCHAR
STARTCHAR lacute
ENCODING 314
SWIDTH 326 0
DWIDTH 6 0
BBX 10 23 1 0
BITMAP
000040
0003E0
001FD0
007E40
00A400
01E000
07F400
0F7800
1E3800
2D3800
3C7400
78B400
78B000
B4E000
B6C000
F78000
FB0000
FE0000
FC0000
F41C00
B87C00
7FF400
1F8000
ENDCHAR
STARTCHAR uni013B
ENCODING 315
SWIDTH 673 0
DWIDTH 12 0
BBX 16 21 -1 -5
BITMAP
0001BF40
000BFFE0
002F42F0
007D01F4
00BC01F0
00F801E0
00F80000
00F40000
01F40000
01F40000
01F00000
01F00004
2FF9000D
BFFFD47C
BFEFFFF4
6F41BF90
00000000
001E0000
001E0000
001D0000
001C0000
ENDCHAR
STARTCHAR uni013C
ENCODING 316
SWIDTH 326 0
DWIDTH 6 0
BBX 7 24 1 -6
BITMAP
01E0
07F4
0F78
1E38
2D38
3C74
78B4
78B0
B4E0
B6C0
F780
FB00
FE00
FC00
F41C
B87C
7FF4
1F80
0000
2C00
3D00
3C00
3800
3400
ENDCHAR
STARTCHAR Lcaron
ENCODING 317
SWIDTH 673 0
DWIDTH 12 0
BBX 17 16 -1 0
BITMAP
0001BF4000
000BFFE3C0
002F42F7C0
007D01F780
00BC01F740
00F801E000
00F8000000
00F4000000
01F4000000
01F4000000
01F0000000
01F0000400
2FF9000D00
BFFFD47C00
BFEFFFF400
6F41BF9000
ENDCHAR
STARTCHAR lcaron
ENCODING 318
SWIDTH 237 0
DWIDTH 4 0
BBX 8 16 0 0
BITMAP
03DE
07DE
0BDD
0B9C
0F40
1F40
1F00
2E00
2E00
3D00
3D00
3C00
7C38
3DB4
3FE0
1F40
ENDCHAR
STARTCHAR Ldot
ENCODING 319
SWIDTH 673 0
DWIDTH 12 0
BBX 16 16 -1 0
BITMAP
0001BF40
000BFFE0
002F42F0
007D01F4
00BC01F0
00F801E0
00F80000
00F47800
01F4FD00
01F4B800
01F00000
01F00004
2FF9000D
BFFFD47C
BFEFFFF4
6F41BF90
ENDCHAR
STARTCHAR ldot
ENCODING 320
SWIDTH 363 0
DWIDTH 7 0
BBX 8 18 1 0
BITMAP
0780
0F80
0F40
1F00
2F00
2E00
3D00
7D00
7DF0
BAF4
B9E0
F400
F400
F400
F40A
F86E
BFF8
1FD0
ENDCHAR
STARTCHAR Lslash
ENCODING 321
SWIDTH 673 0
DWIDTH 12 0
BBX 16 19 -1 0
BITMAP
0002BFE4
001FFFF8
00194000
0001BF40
000BFFE0
002F42F0
007D01F4
00BC01F4
00F801F0
00F40040
00F40000
01F40000
01F40000
01F00000
01F00004
2FF9000D
BFFFD47C
BFEFFFF4
6F41BF90
ENDCHAR
STARTCHAR lslash
ENCODING 322
SWIDTH 326 0
DWIDTH 6 0
BBX 10 19 1 0
BITMAP
01BFD0
1FFFE0
2E4000
02E000
0BF400
1F7800
2D3800
3C3800
787400
B8B000
B5E000
F6C000
FB4000
FE0000
FC0000
F41C00
B87C00
7FF400
1F8000
ENDCHAR
STARTCHAR Nacute
ENCODING 323
SWIDTH 884 0
DWIDTH 16 0
BBX 19 22 0 0
BITMAP
0000001000
000000B800
000003F400
00001F9000
00001D0000
0000000000
06E01BE000
2FF87FF800
78B9E5F800
E0BA80BC00
40BB00B800
00FE00F800
00FD01F400
00FC01F400
01F802F000
01F402F000
02F003E000
02F003D000
03E003D034
03E003E1F0
03D002FFD0
02C000BE00
ENDCHAR
STARTCHAR nacute
ENCODING 324
SWIDTH 496 0
DWIDTH 9 0
BBX 11 16 1 0
BITMAP
000E00
001F00
003D00
007800
00B000
009000
000000
387C00
B9FD00
B7FC00
FB7C00
FD7810
FC7874
F8B9F0
F4BFD0
B02E40
ENDCHAR
STARTCHAR uni0145
ENCODING 325
SWIDTH 884 0
DWIDTH 16 0
BBX 19 21 0 -5
BITMAP
06E01BE000
2FF87FF800
78B9E5F800
E0BA80BC00
40BB00B800
00FE00F800
00FD01F400
00FC01F400
01F802F000
01F402F000
02F003E000
02F003D000
03E003D034
03E003E1F0
03D002FFD0
02C000BE00
0000000000
0007400000
0007800000
000B400000
0007000000
ENDCHAR
STARTCHAR uni0146
ENCODING 326
SWIDTH 496 0
DWIDTH 9 0
BBX 11 15 1 -6
BITMAP
387C00
B9FD00
B7FC00
FB7C00
FD7810
FC7874
F8B9F0
F4BFD0
B02E40
000000
0B0000
0F4000
0F0000
0E0000
0D0000
ENDCHAR
STARTCHAR Ncaron
ENCODING 327
SWIDTH 884 0
DWIDTH 16 0
BBX 19 22 0 0
BITMAP
0001D1D000
0001E2D000
0000F78000
00007F0000
00002D0000
0000000000
06E01BE000
2FF87FF800
78B9E5F800
E0BA80BC00
40BB00B800
00FE00F800
00FD01F400
00FC01F400
01F802F000
01F402F000
02F003E000
02F003D000
03E003D034
03E003E1F0
03D002FFD0
02C000BE00
ENDCHAR
STARTCHAR ncaron
ENCODING 328
SWIDTH 496 0
DWIDTH 9 0
BBX 11 17 1 0
BITMAP
010100
0B4B40
078F00
079D00
03BC00
02F400
01E000
000000
387C00
B9FD00
B7FC00
FB7C00
FD7810
FC7874
F8B9F0
F4BFD0
B02E40
ENDCHAR
STARTCHAR napostrophe
ENCODING 329
SWIDTH 496 0
DWIDTH 9 0
BBX 12 15 0 0
BITMAP
B00000
F40000
F00000
E00000
D00000
000000
0E1F00
2E7F40
2DFF00
3EDF00
3F5E04
3F1E1D
3E2E7C
3D2FF4
2C0B90
ENDCHAR
STARTCHAR Eng
ENCODING 330
SWIDTH 884 0
DWIDTH 16 0
BBX 19 23 0 -7
BITMAP
06E01BE000
2FF87FF400
78B9E5F800
E0BA80B800
40BB00F800
00FE00F800
00FD01F400
00FC01F400
01F802F000
01F402E000
02F003E000
02F007D000
03E007C034
03E00BD1F0
03D00BFFD0
02C00FBE40
00001F0000
00001E0000
00002D0000
02C07C0000
03E4B80000
01FFE00000
006F800000
ENDCHAR
STARTCHAR eng
ENCODING 331
SWIDTH 495 0
DWIDTH 9 0
BBX 12 15 0 -6
BITMAP
0E1F00
2E7F40
2DFF00
3EDF00
3F5E04
3F1E1D
3E2D7C
3D3FF4
2C3F80
007800
00B400
10F000
75E000
7FC000
2E4000
ENDCHAR
STARTCHAR Omacron
ENCODING 332
SWIDTH 816 0
DWIDTH 15 0
BBX 14 19 1 0
BITMAP
002FF800
003FF800
00000000
006FE400
02FFFD00
0BE47F40
1F800F80
2F000BC0
3D0007D0
7C0007D0
BC0007D0
BC0007C0
B8000BC0
BC000F80
BC001F40
7E003E00
2F81FC00
0FFFF000
01BE4000
ENDCHAR
STARTCHAR omacron
ENCODING 333
SWIDTH 451 0
DWIDTH 8 0
BBX 11 12 0 0
BITMAP
0FFD00
0FFD00
000000
06E400
1FFD00
3E7E10
7C7FF4
7C2FE4
7C1E00
3D7C00
2FF800
0BE000
ENDCHAR
STARTCHAR Obreve
ENCODING 334
SWIDTH 816 0
DWIDTH 15 0
BBX 14 21 1 0
BITMAP
00100500
00B82E00
007FFD00
001BE400
00000000
006FE400
02FFFD00
0BE47F40
1F800F80
2F000BC0
3D0007D0
7C0007D0
BC0007D0
BC0007C0
B8000BC0
BC000F80
BC001F40
7E003E00
2F81FC00
0FFFF000
01BE4000
ENDCHAR
STARTCHAR obreve
ENCODING 335
SWIDTH 451 0
DWIDTH 8 0
BBX 11 15 0 0
BITMAP
040100
2D0780
2F5F40
0FFE00
06F800
000000
06E400
1FFD00
3E7E10
7C7FF4
7C2FE4
7C1E00
3D7C00
2FF800
0BE000
ENDCHAR
STARTCHAR Ohungarumlaut
ENCODING 336
SWIDTH 816 0
DWIDTH 15 0
BBX 14 22 1 0
BITMAP
00010400
000B5E00
000F2D00
001E3800
001C3400
00000000
006FE400
02FFFD00
0BE47F40
1F800F80
2F000BC0
3D0007D0
7C0007D0
BC0007D0
BC0007C0
B8000BC0
BC000F80
BC001F40
7E003E00
2F81FC00
0FFFF000
01BE4000
ENDCHAR
STARTCHAR ohungarumlaut
ENCODING 337
SWIDTH 451 0
DWIDTH 8 0
BBX 11 16 0 0
BITMAP
00E280
01E7C0
02DB80
03CB00
074E00
060C00
000000
06E400
1FFD00
3E7E10
7C7FF4
7C2FE4
7C1E00
3D7C00
2FF800
0BE000
ENDCHAR
STARTCHAR OE
ENCODING 338
SWIDTH 1124 0
DWIDTH 20 0
BBX 22 16 1 0
BITMAP
006FE42FFF40
02FFFE7FFF40
0BE47FF80000
1F800FF40000
2F000BF40000
3D0007F00000
7C0007E00000
BC0007FFFC00
BC0007FFFC00
B8000BD00000
BC000FC00000
BC001FD00000
7E003FE00040
2F81FFF916D0
0FFFE1FFFF80
01BE402FF900
ENDCHAR
STARTCHAR oe
ENCODING 339
SWIDTH 668 0
DWIDTH 12 0
BBX 15 9 0 0
BITMAP
06E1B800
1FFFFE00
3E3F9F00
7C2F1E00
7C1FBC10
7C2FE074
7D7F46F0
2FFBFFD0
0BD1FE00
ENDCHAR
STARTCHAR Racute
ENCODING 340
SWIDTH 880 0
DWIDTH 16 0
BBX 17 22 1 0
BITMAP
0000014000
00000BC000
00002F8000
0000BD0000
0001D00000
0000000000
002BF90000
01FFFF8000
07E41FD000
1F4507D000
3D1F07E000
782E07D000
B43E0BC000
B43D6F4000
F1FFF80000
F1FFF40000
F0BDFC0000
F0B87E0000
B4F83F01C0
79F41F87C0
2FF00BFF40
0BD002F800
ENDCHAR
STARTCHAR racute
ENCODING 341
SWIDTH 455 0
DWIDTH 8 0
BBX 10 16 1 0
BITMAP
001D00
003E00
007C00
00B400
00E000
01C000
000000
387C00
B9FD00
B7FC00
FB7CA0
FD3FE0
FC2F80
F80000
F40000
B00000
ENDCHAR
STARTCHAR uni0156
ENCODING 342
SWIDTH 880 0
DWIDTH 16 0
BBX 17 21 1 -5
BITMAP
002BF90000
01FFFF8000
07E41FD000
1F4507D000
3D1F07E000
782E07D000
B43E0BC000
B43D6F4000
F1FFF80000
F1FFF40000
F0BDFC0000
F0B87E0000
B4F83F01C0
79F41F87C0
2FF00BFF40
0BD002F800
0000000000
0003800000
0007800000
0007800000
0007000000
ENDCHAR
STARTCHAR uni0157
ENCODING 343
SWIDTH 455 0
DWIDTH 8 0
BBX 11 15 0 -6
BITMAP
0E1F00
2E7F40
2DFF00
3EDF28
3F4FF8
3F0BE0
3E0000
3D0000
2C0000
000000
280000
7C0000
780000
740000
700000
ENDCHAR
STARTCHAR Rcaron
ENCODING 344
SWIDTH 880 0
DWIDTH 16 0
BBX 17 22 1 0
BITMAP
000D0A0000
000F1E0000
000B7C0000
0007F40000
0002E00000
0000000000
002BF90000
01FFFF8000
07E41FD000
1F4507D000
3D1F07E000
782E07D000
B43E0BC000
B43D6F4000
F1FFF80000
F1FFF40000
F0BDFC0000
F0B87E0000
B4F83F01C0
79F41F87C0
2FF00BFF40
0BD002F800
ENDCHAR
STARTCHAR rcaron
ENCODING 345
SWIDTH 455 0
DWIDTH 8 0
BBX 10 17 1 0
BITMAP
050500
0F0F00
0B1E00
0B7C00
07B800
03F000
02D000
000000
387C00
B9FD00
B7FC00
FB7CA0
FD3FE0
FC2F80
F80000
F40000
B00000
ENDCHAR
STARTCHAR Sacute
ENCODING 346
SWIDTH 693 0
DWIDTH 12 0
BBX 13 22 0 0
BITMAP
00000100
00001F40
00007F40
0001F800
00029000
00000000
006FE400
02FFFE00
0BE46F40
0F800F40
0F400F40
0F800B00
0BF40000
02FF4000
007FF400
0006FD00
28007E00
7C002E00
7C003E00
3E41BD00
2FFFF800
06FF9000
ENDCHAR
STARTCHAR sacute
ENCODING 347
SWIDTH 427 0
DWIDTH 8 0
BBX 10 16 0 0
BITMAP
000A00
001F00
002E00
007C00
00B400
009000
000000
01E000
03D000
07C000
0FE000
1EF410
78BCB0
F6BEE0
9BFFC0
07FE00
ENDCHAR
STARTCHAR Scircumflex
ENCODING 348
SWIDTH 693 0
DWIDTH 12 0
BBX 13 22 0 0
BITMAP
0002D000
000BF000
001EB400
003D7800
00782800
00000000
006FE400
02FFFE00
0BE46F40
0F800F40
0F400F40
0F800B00
0BF40000
02FF4000
007FF400
0006FD00
28007E00
7C002E00
7C003E00
3E41BD00
2FFFF800
06FF9000
ENDCHAR
STARTCHAR scircumflex
ENCODING 349
SWIDTH 427 0
DWIDTH 8 0
BBX 10 17 0 0
BITMAP
001000
00F800
01FC00
03ED00
0B5D00
0F1E00
1D0E00
000000
01E000
03D000
07C000
0FE000
1EF410
78BCB0
F6BEE0
9BFFC0
07FE00
ENDCHAR
STARTCHAR Scedilla
ENCODING 350
SWIDTH 693 0
DWIDTH 12 0
BBX 13 21 0 -5
BITMAP
006FE400
02FFFE00
0BE46F40
0F800F40
0F400F40
0F800B00
0BE40000
02FE4000
007FE400
0007FC00
2800BE00
7C002E00
7C002E00
7E00BD00
2FFFF800
0BFFE000
01FE0000
001F0000
001E0000
07FD0000
03F40000
ENDCHAR
STARTCHAR scedilla
ENCODING 351
SWIDTH 427 0
DWIDTH 8 0
BBX 10 14 0 -5
BITMAP
01E000
03D000
07C000
0BD000
1FF400
3CF870
B47DF0
D7FFD0
0BFE40
0BF000
00B000
00B000
2BE000
2F8000
ENDCHAR
STARTCHAR Scaron
ENCODING 352
SWIDTH 693 0
DWIDTH 12 0
BBX 13 22 0 0
BITMAP
002C1D00
002D3C00
001EB400
000BE000
00078000
00000000
006FE400
02FFFE00
0BE46F40
0F800F40
0F400F40
0F800B00
0BF40000
02FF4000
007FF400
0006FD00
28007E00
7C002E00
7C003E00
3E41BD00
2FFFF800
06FF9000
ENDCHAR
STARTCHAR scaron
ENCODING 353
SWIDTH 427 0
DWIDTH 8 0
BBX 10 17 0 0
BITMAP
010100
078740
078F00
039E00
03EC00
02F800
01E000
000000
01E000
03D000
07C000
0FE000
1EF410
78BCB0
F6BEE0
9BFFC0
07FE00
ENDCHAR
STARTCHAR uni0162
ENCODING 354
SWIDTH 697 0
DWIDTH 13 0
BBX 16 21 0 -5
BITMAP
01AFFFFE
0BFFFFFF
2E52F000
7C03E000
7803E000
3C07D000
1407D000
000BC000
000B8000
000F8000
000F8000
001F4000
001F4000
001F0000
002F0000
007F0000
007F4000
00078000
00078000
01FF0000
01F90000
ENDCHAR
STARTCHAR uni0163
ENCODING 355
SWIDTH 393 0
DWIDTH 7 0
BBX 10 22 0 -5
BITMAP
006D00
00FE00
02DE00
03CE00
078E00
0B5D00
0F7800
0FB000
BFFF00
FFFE00
1E0000
1E0000
1F0000
1F00D0
0F42D0
0BFF40
07FD00
07F000
00B400
00B400
2FF000
2F8000
ENDCHAR
STARTCHAR Tcaron
ENCODING 356
SWIDTH 697 0
DWIDTH 13 0
BBX 16 22 0 0
BITMAP
00074380
00078B40
0002DE00
0001FD00
0000B400
00000000
01AFFFFE
0BFFFFFF
2E52F000
7C03E000
7803E000
3C07D000
1807D000
000BC000
000BC000
000F8000
000F8000
001F4000
001F4000
001F0000
002F0000
001E0000
ENDCHAR
STARTCHAR tcaron
ENCODING 357
SWIDTH 343 0
DWIDTH 6 0
BBX 9 16 0 0
BITMAP
000B40
02DB40
07CF00
07C900
0B8000
0F4000
BFFC00
BFF800
1F0000
2E0000
2E0000
2E0100
2E0340
2F1F40
1FFD00
07E400
ENDCHAR
STARTCHAR Tbar
ENCODING 358
SWIDTH 697 0
DWIDTH 13 0
BBX 16 16 0 0
BITMAP
01AFFFFE
0BFFFFFF
2E52F000
7C03E000
7803E000
3C07D000
1407C000
01FFFE00
02FFFE00
000F8000
000F8000
001F4000
001F4000
001F0000
002F0000
001E0000
ENDCHAR
STARTCHAR tbar
ENCODING 359
SWIDTH 343 0
DWIDTH 6 0
BBX 9 15 0 0
BITMAP
02D000
07C000
07C000
0B8000
0F4000
BFFC00
BFF800
1F0000
2E0000
FFF400
BFA000
2E0340
2F1B40
1FFD00
07E400
ENDCHAR
STARTCHAR Utilde
ENCODING 360
SWIDTH 890 0
DWIDTH 16 0
BBX 19 21 0 0
BITMAP
0002E05000
0007F9F000
000F6FD000
00050B8000
0000000000
06F4007800
2FFC00BC00
79BC00BC00
E07C00B800
40BC00F800
00B801F800
00F801F400
01F402F400
01F403F000
02F007F000
02E00FE000
03E01EE000
03E07AE074
03F6F2FAF0
02FFD2FFD0
00BE00BE40
ENDCHAR
STARTCHAR utilde
ENCODING 361
SWIDTH 462 0
DWIDTH 8 0
BBX 10 14 1 0
BITMAP
0F4100
2FDB40
79FF00
106D00
000000
382800
787800
B4B800
F4F400
F1F400
F2F0A0
FFF6D0
FDFF80
787D00
ENDCHAR
STARTCHAR Umacron
ENCODING 362
SWIDTH 890 0
DWIDTH 16 0
BBX 19 19 0 0
BITMAP
0003FF8000
0003FF4000
0000000000
06F4007800
2FFC00BC00
79BC00BC00
E07C00B800
40BC00F800
00B801F800
00F801F400
01F402F400
01F403F000
02F007F000
02E00FE000
03E01EE000
03E07AE074
03F6F2FAF0
02FFD2FFD0
00BE00BE40
ENDCHAR
STARTCHAR umacron
ENCODING 363
SWIDTH 462 0
DWIDTH 8 0
BBX 10 12 1 0
BITMAP
1FFC00
1FFC00
000000
382800
787800
B4B800
F4F400
F1F400
F2F0A0
FFF6D0
FDFF80
787D00
ENDCHAR
STARTCHAR Ubreve
ENCODING 364
SWIDTH 890 0
DWIDTH 16 0
BBX 19 21 0 0
BITMAP
0005005000
000B82E000
0007FFD000
0001BE4000
0000000000
06F4007800
2FFC00BC00
79BC00BC00
E07C00B800
40BC00F800
00B801F800
00F801F400
01F402F400
01F403F000
02F007F000
02E00FE000
03E01EE000
03E07AE074
03F6F2FAF0
02FFD2FFD0
00BE00BE40
ENDCHAR
STARTCHAR ubreve
ENCODING 365
SWIDTH 462 0
DWIDTH 8 0
BBX 10 15 1 0
BITMAP
140100
3C0B40
3E1F00
2FFD00
07E400
000000
382800
787800
B4B800
F4F400
F1F400
F2F0A0
FFF6D0
FDFF80
787D00
ENDCHAR
STARTCHAR Uring
ENCODING 366
SWIDTH 890 0
DWIDTH 16 0
BBX 19 23 0 0
BITMAP
00007E0000
0000FF4000
0001D74000
0001D74000
0000FF0000
00007D0000
0000000000
06F4007800
2FFC00BC00
79BC00BC00
E07C00B800
40BC00F800
00B801F800
00F801F400
01F402F400
01F403F000
02F007F000
02E00FE000
03E01EE000
03E07AE074
03F6F2FAF0
02FFD2FFD0
00BE00BE40
ENDCHAR
STARTCHAR uring
ENCODING 367
SWIDTH 462 0
DWIDTH 8 0
BBX 10 16 1 0
BITMAP
02F400
07F800
0B2C00
0B2C00
0BF800
02E000
000000
382800
787800
B4B800
F4F400
F1F400
F2F0A0
FFF6D0
FDFF80
787D00
ENDCHAR
STARTCHAR Uhungarumlaut
ENCODING 368
SWIDTH 890 0
DWIDTH 16 0
BBX 19 22 0 0
BITMAP
0000504000
0000B6E000
0000F3D000
0001D38000
0001834000
0000000000
06F4007800
2FFC00BC00
79BC00BC00
E07C00B800
40BC00F800
00B801F800
00F801F400
01F402F400
01F403F000
02F007F000
02E00FE000
03E01EE000
03E07AE074
03F6F2FAF0
02FFD2FFD0
00BE00BE40
ENDCHAR
STARTCHAR uhungarumlaut
ENCODING 369
SWIDTH 462 0
DWIDTH 8 0
BBX 10 16 1 0
BITMAP
01D740
03DB80
07CF40
075E00
0B1D00
092800
000000
382800
787800
B4B800
F4F400
F1F400
F2F0A0
FFF6D0
FDFF80
787D00
ENDCHAR
STARTCHAR Uogonek
ENCODING 370
SWIDTH 890 0
DWIDTH 16 0
BBX 19 21 0 -5
BITMAP
06F4007800
2FFC00BC00
79BC00BC00
E07C00B800
80BC00F800
00BC00F800
00F801F400
01F402F400
01F403F000
02F007F000
02E00BE000
03E01EE000
03E03AE024
03E1B2F5B4
02FFD2FFD0
00BE40BF40
0000003C00
0000007400
0000007800
0000007FD0
0000001A80
ENDCHAR
STARTCHAR uogonek
ENCODING 371
SWIDTH 462 0
DWIDTH 8 0
BBX 10 14 1 -5
BITMAP
382800
787800
B4B800
F4F400
F1F400
F2F0A0
FFF6D0
FDFF80
78BD00
00F000
02D000
02D100
01FF00
006900
ENDCHAR
STARTCHAR Wcircumflex
ENCODING 372
SWIDTH 1217 0
DWIDTH 22 0
BBX 23 22 2 0
BITMAP
00000B400000
00002FC00000
00007AD00000
0000F5E00000
0001D0E00000
000000000000
2C001E00BD00
7D003E02FF00
7C003E03CF40
BC007D074B40
BC00BD074F40
BC00BD078F40
B800FD03DF00
B801FC02FE00
B802FD00BFF4
B803FD00BFF4
BC07BD00F400
BC0F7D02E000
7D2F2E0BD000
3FBD1FAF4000
2FF80FFD0000
0BD007E40000
ENDCHAR
STARTCHAR wcircumflex
ENCODING 373
SWIDTH 700 0
DWIDTH 13 0
BBX 14 17 1 0
BITMAP
00050000
002F0000
007F0000
00F74000
01E78000
03C78000
03438000
00000000
F0742D00
F0B8BD00
F0F8BD50
F1F8BFF0
F7F8FFD0
FBBAE000
FF7FC000
BE3F4000
782E0000
ENDCHAR
STARTCHAR Ycircumflex
ENCODING 374
SWIDTH 851 0
DWIDTH 15 0
BBX 18 28 0 -6
BITMAP
00002E0000
0000BF4000
0001F78000
0003D3C000
000382C000
0000000000
06F4007800
2FFC00BC00
79BC00BC00
E07C00B800
80BC00F800
00BC01F800
00F801F400
01F402F400
01F407F000
01F00BF000
02F01EF000
01F47AE000
00FFE2EBD0
006F9BFF80
0000BFE400
0007E7C000
001F47C000
007C0B8000
00B80F4000
00B82E0000
007FFC0000
001FE00000
ENDCHAR
STARTCHAR ycircumflex
ENCODING 375
SWIDTH 479 0
DWIDTH 9 0
BBX 11 26 0 -9
BITMAP
001400
007D00
00FE00
01DE00
03CF00
078B40
0B0700
000000
0E0A00
1E1E00
2D2E00
3D3D00
3C7D00
3CBD78
3FFEF4
3FBF80
1E7E00
01F800
07F400
1EF000
3CF000
B5E000
E2D000
E7C000
FF4000
7D0000
ENDCHAR
STARTCHAR Ydieresis
ENCODING 376
SWIDTH 851 0
DWIDTH 15 0
BBX 18 26 0 -6
BITMAP
0002D2C000
0003E7D000
0002D3C000
0000000000
06F4007800
2FFC00BC00
79BC00BC00
E07C00B800
80BC00F800
00BC01F800
00F801F400
01F402F400
01F407F000
01F00BF000
02F01EF000
01F47AE000
00FFE2EBD0
006F9BFF80
0000BFE400
0007E7C000
001F47C000
007C0B8000
00B80F4000
00B82E0000
007FFC0000
001FE00000
ENDCHAR
STARTCHAR Zacute
ENCODING 377
SWIDTH 721 0
DWIDTH 13 0
BBX 16 22 0 0
BITMAP
00000140
00000BC0
00002F80
0000FD00
0001D000
00000000
01BFFA40
0BFFFFF0
2F501FE0
3D001F40
3D003F00
2E00BD00
0401F800
0002F000
000BD000
001F8000
003F4000
00BD0004
2FFD001D
BFFF907C
BFEFFFF4
6E41BF80
ENDCHAR
STARTCHAR zacute
ENCODING 378
SWIDTH 445 0
DWIDTH 8 0
BBX 10 16 1 0
BITMAP
001D00
003D00
007C00
00B400
01E000
018000
000000
BFFD00
BFFD00
06F800
1F8000
7D0040
B801D0
BD1BC0
7FFF40
1BE400
ENDCHAR
STARTCHAR Zdotaccent
ENCODING 379
SWIDTH 721 0
DWIDTH 13 0
BBX 16 20 0 0
BITMAP
0002E000
0007F000
0002E000
00000000
01BFFA40
0BFFFFF0
2F501FE0
3D001F40
3D003F00
2E00BD00
0401F800
0002F000
000BD000
001F8000
003F4000
00BD0004
2FFD001D
BFFF907C
BFEFFFF4
6E41BF80
ENDCHAR
STARTCHAR zdotaccent
ENCODING 380
SWIDTH 445 0
DWIDTH 8 0
BBX 10 13 1 0
BITMAP
02E000
07F000
02D000
000000
BFFD00
BFFD00
06F800
1F8000
7D0040
B801D0
BD1BC0
7FFF40
1BE400
ENDCHAR
STARTCHAR Zcaron
ENCODING 381
SWIDTH 721 0
DWIDTH 13 0
BBX 16 22 0 0
BITMAP
000D0E00
000E2D00
000B7800
0007F400
0002D000
00000000
01BFFA40
0BFFFFF0
2F501FE0
3D001F40
3D003F00
2E00BD00
0401F800
0002F000
000BD000
001F8000
003F4000
00BD0004
2FFD001D
BFFF907C
BFEFFFF4
6E41BF80
ENDCHAR
STARTCHAR zcaron
ENCODING 382
SWIDTH 445 0
DWIDTH 8 0
BBX 10 17 1 0
BITMAP
050500
0F0F00
0F2D00
0B7C00
07B400
07F000
02D000
000000
BFFD00
BFFD00
06F800
1F8000
7D0040
B801D0
BD1BC0
7FFF40
1BE400
ENDCHAR
STARTCHAR uni018F
ENCODING 399
SWIDTH 792 0
DWIDTH 14 0
BBX 13 16 1 0
BITMAP
01BF9000
0BFFFC00
1F90BE00
18001F40
00000F80
00000B80
00000BC0
7FFFFF80
FFFFFF80
F8001F80
B8002F40
BC003F00
7D00BD00
2F42F800
0FFFE000
02FE4000
ENDCHAR
STARTCHAR florin
ENCODING 402
SWIDTH 478 0
DWIDTH 9 0
BBX 11 20 -1 -5
BITMAP
0006F4
001FF4
003E40
007D00
007C00
007C00
0FFFE0
1FFFE0
00B800
00F400
00F400
00F400
01F000
01F000
01F000
02E000
02E000
07D000
FFC000
FE0000
ENDCHAR
STARTCHAR Ohorn
ENCODING 416
SWIDTH 816 0
DWIDTH 15 0
BBX 15 20 1 0
BITMAP
00000010
000000B4
000000B4
000001F0
006FFFE0
02FFFF80
0BE47F40
1F800FC0
2F000BC0
3D0007D0
7C0007D0
BC0007D0
BC0007C0
B8000BC0
BC000F80
BC001F40
7E003E00
2F81FC00
0FFFF000
01BE4000
ENDCHAR
STARTCHAR ohorn
ENCODING 417
SWIDTH 451 0
DWIDTH 8 0
BBX 11 12 0 0
BITMAP
000140
0002C0
0007C0
06FF40
1FFE00
3E7E10
7C7FF4
7C2FE4
7C1E00
3D7C00
2FF800
0BE000
ENDCHAR
STARTCHAR Uhorn
ENCODING 431
SWIDTH 890 0
DWIDTH 16 0
BBX 19 20 0 0
BITMAP
0000000050
00000000E0
00000001E0
00000007D0
06F4007F80
2FFC00BD00
79BC00BC00
E07C00B800
40BC00F800
00B801F400
00F801F400
01F402F000
01F403F000
02F007F000
02E00FE000
03E01EE000
03E07AE074
03F6F2FAF0
02FFD2FFD0
00BE00BE40
ENDCHAR
STARTCHAR uhorn
ENCODING 432
SWIDTH 512 0
DWIDTH 9 0
BBX 11 12 1 0
BITMAP
000040
0002C0
0003C0
382F80
787E00
B4B800
F4F400
F1F400
F2F034
FFF5B4
FDFFD0
787E40
ENDCHAR
STARTCHAR uni01C4
ENCODING 452
SWIDTH 1531 0
DWIDTH 28 0
BBX 29 22 1 0
BITMAP
0000000002C1D000
0000000002D3C000
0000000000EB4000
0000000000BE0000
0000000000380000
0000000000000000
02BF90001BFFA400
0FFFF801FFFFFD00
0A41BF03E401FD00
00001F87C002F000
0B800BC7C007D000
0F800BC3C00F8000
1F4007D1402F4000
1F0007D0007E0000
2F000BC000FC0000
2E000BC002F40000
3E000F8007E00000
3D002F400FC00040
7D00BE06FF8002C0
7D17F80FFFF91B80
7FFFD00FFEFFFE00
6FF90007E01BF400
ENDCHAR
STARTCHAR uni01C5
ENCODING 453
SWIDTH 1191 0
DWIDTH 21 0
BBX 22 17 1 0
BITMAP
000000004050
02BF9001E1E0
0FFFF801E2D0
0A41BF00F780
00001F80BB00
0B800BC0BE00
0F800BC03800
1F4007D00000
1F0007DFFF80
2F000BCFFF80
2E000BC07E00
3E000F81F400
3D002F47D000
7D00BE0F4000
7D17F82E0000
7FFFD03FFF80
6FF9002FFF80
ENDCHAR
STARTCHAR uni01C6
ENCODING 454
SWIDTH 895 0
DWIDTH 16 0
BBX 19 16 0 0
BITMAP
0002C282C0
0007C3C780
0007C2DF40
000B81EE00
000B80FC00
000B40A400
000F400000
01FF2FFF40
0BFF2FFF80
1F6E01BD00
3E2D07E000
7C3D1F4010
7C3D2E0074
7DBDBF56F0
3FEFEFFFD0
1F4B46FE00
ENDCHAR
STARTCHAR uni01C7
ENCODING 455
SWIDTH 1276 0
DWIDTH 23 0
BBX 25 18 -1 -2
BITMAP
0001BE002BF900
000FFF81FFFF40
002F47D3E47E00
007D03D7807D00
00BC03DB807D00
00F803C7C07C00
00F8000280BC00
00F4000000B800
01F4000007F800
01F400006EF400
01F00001F5F000
01F00007C2F000
2FF9000F42E000
BFFFD46E03D000
BFEFFFFE0B8000
6F41BFBE1F4000
0000001FFD0000
00000007E40000
ENDCHAR
STARTCHAR uni01C8
ENCODING 456
SWIDTH 927 0
DWIDTH 17 0
BBX 20 25 -1 -9
BITMAP
0001BF4000
000BFFE000
002F42F000
007D01F7D0
00BC01FBE0
00F801F7D0
00F8004000
00F4000380
01F4000780
01F4000B80
01F0000B80
01F0000B40
2FF9000F5E
BFFFD46F7D
BFEFFFFFE0
6F41BFAF80
0000002E00
000000FE00
000003ED00
00000B3C00
00001D7800
00002CB400
00003DF000
00002FD000
00001F4000
ENDCHAR
STARTCHAR uni01C9
ENCODING 457
SWIDTH 610 0
DWIDTH 11 0
BBX 12 27 1 -9
BITMAP
01E000
07F400
0F7800
1E3800
2D3800
3C76E0
78B7F0
78B3D0
B5E000
B6C2C0
F783C0
FB07C0
FE07C0
FC0B80
F41F8B
B87FBE
7FFFF4
1F9FD0
002F00
00BE00
02EE00
0B6D00
0E3C00
1D7800
2DB400
2FE000
0B8000
ENDCHAR
STARTCHAR uni01CA
ENCODING 458
SWIDTH 1497 0
DWIDTH 27 0
BBX 28 18 0 -2
BITMAP
06E01BE006BFE8
2FF87FF82FFFFD
78B9E5F87E41F8
E0BA80BCB401F4
40BB00B8F401F0
00FE00F8B801F0
00FD01F47402F0
00FC01F40007E0
01F802F0002FE0
01F402F001FFD0
02F003E00BD7C0
02F003D02F4780
03E003D07D0B80
03E003E1F80F00
03D002FFF82E00
02C000BEB87C00
000000007FF400
000000001F9000
ENDCHAR
STARTCHAR uni01CB
ENCODING 459
SWIDTH 1138 0
DWIDTH 20 0
BBX 23 25 0 -9
BITMAP
06E01BE00000
1FF87FF80000
78B8E5F80000
E0BA80BC1F00
80BB00B82F40
00FE00F81E00
00FD01F40000
00FC01F41E00
01F802F02E00
01F402F02E00
02F003E03D00
02F003D03D00
03E003D07C74
03E003E1FDF4
03D002FFFF90
02C000BEBE00
00000001F800
00000007F400
0000001EF000
00000039F000
000000B1E000
000000E2D000
000000E78000
000000FF4000
0000007D0000
ENDCHAR
STARTCHAR uni01CC
ENCODING 460
SWIDTH 750 0
DWIDTH 14 0
BBX 15 22 1 -9
BITMAP
00001F00
00002F40
00001E00
00000000
387C1E00
B9FD2E00
B7FC2E00
FB7C3D00
FD783D00
FC787C74
F8B9FEF0
F4BFFF80
B02EBE00
0001F800
0007F400
001EF000
0038F000
00B5E000
00E2D000
00E78000
00FF4000
007D0000
ENDCHAR
STARTCHAR Gcaron
ENCODING 486
SWIDTH 811 0
DWIDTH 15 0
BBX 16 31 1 -9
BITMAP
001D1D00
001E2D00
000F7800
0007F000
0002D000
00000000
002FE400
01FFFD00
0BE46F00
1F801F00
2F001F00
7D001E00
BC000400
BC000000
BC000000
B801FF40
BC01FF80
BD000B40
3E000F49
2FD05F7D
0BFFFFF4
01BFAF80
00007E00
0001FD00
0003BD00
000F3C00
001D7800
003CB400
0039F000
003FD000
001F4000
ENDCHAR
STARTCHAR gcaron
ENCODING 487
SWIDTH 479 0
DWIDTH 9 0
BBX 11 26 0 -9
BITMAP
004040
02D2D0
02D3C0
01EB40
00EE00
00FD00
007800
000000
01F400
0BFE00
1F6E00
3E2E00
7C3D00
7C3D78
7CBEF4
3FFFD0
1FBE00
01F800
07F400
1EF400
3CF000
75E000
B2D000
F7C000
FF4000
7D0000
ENDCHAR
STARTCHAR uni01EA
ENCODING 490
SWIDTH 816 0
DWIDTH 15 0
BBX 14 21 1 -5
BITMAP
006FE400
01FFFD00
0BE47F40
1F800F80
2F000BC0
3D0007D0
7C0007D0
BC0007D0
BC0007D0
B8000BC0
BC000F80
BC001F40
7E003F00
3F81FD00
1FFFF400
06FF8000
003D0000
00780000
00780000
003FD000
001F8000
ENDCHAR
STARTCHAR uni01EB
ENCODING 491
SWIDTH 451 0
DWIDTH 8 0
BBX 11 14 0 -5
BITMAP
06E400
1FFC00
3EBD00
7C7E14
7C3FF4
7C1FE0
7C2D00
3FBC00
0FF000
038000
0B4000
0B4000
07FC00
01A400
ENDCHAR
STARTCHAR Aringacute
ENCODING 506
SWIDTH 786 0
DWIDTH 14 0
BBX 17 25 1 0
BITMAP
0000000740
0000001F40
00007E3D00
0000FF5000
0001E74000
0001D74000
0000FF0000
00007D0000
0000000000
0006FF9000
007FFFF000
02FE559000
0BE00A0000
1F801F0000
3F002F0000
7D003E0000
BC003D0000
BC007D0000
F800BC0000
F800FC0000
F801FC0000
BC03FC0D00
7E5FBD7D00
2FFD7FF400
0BE41F9000
ENDCHAR
STARTCHAR aringacute
ENCODING 507
SWIDTH 470 0
DWIDTH 8 0
BBX 12 18 0 0
BITMAP
000005
00001E
007D7D
01FF50
01DB40
02DB40
01FF00
00BD00
000000
01F400
0BFE00
1F6E00
3E2E00
7C3D00
7C3D28
7DBDB8
3FEFE0
1F4B80
ENDCHAR
STARTCHAR AEacute
ENCODING 508
SWIDTH 1015 0
DWIDTH 18 0
BBX 20 22 1 0
BITMAP
0000000100
0000001F40
0000007F40
000001F800
0000029000
0000000000
000BD2FFF4
00BFE7FFF4
02FE4B8000
0BE00F4000
1F801F4000
3F002F0000
7D002F0000
BC003FFFC0
BC007FFFC0
F800BD0000
F800FD0000
F801FD0000
BC03FE0004
7E1B6F917D
2FFE0FFFF8
07F802BF90
ENDCHAR
STARTCHAR aeacute
ENCODING 509
SWIDTH 653 0
DWIDTH 12 0
BBX 14 16 0 0
BITMAP
00002800
00007C00
0000B800
0000F000
0002D000
00028000
00000000
01B9F800
0BFFFD00
1F5F5E00
3D2E2D00
7C2EB810
7C3FD0B0
7DBF46E0
3FEFFF80
1B82F900
ENDCHAR
STARTCHAR Oslashacute
ENCODING 510
SWIDTH 816 0
DWIDTH 15 0
BBX 14 24 1 -2
BITMAP
00001400
0000B800
0002F400
000F9000
001DA000
0000F000
006FF400
01FFFD00
07E7FF40
1F83CF80
2F078BC0
3D0B47D0
7C0B07D0
BC0E07D0
BC1E07C0
B82D0BC0
BC2C0F80
BC3C1F40
7E783E00
2FF5FC00
0FFFF000
02FE4000
01E00000
01D00000
ENDCHAR
STARTCHAR oslashacute
ENCODING 511
SWIDTH 459 0
DWIDTH 8 0
BBX 11 19 0 -3
BITMAP
007400
00F400
01F000
03D000
079000
067000
00A000
06F400
1FFD00
3EEE00
7CDFA8
79CFF8
7D9F50
7EAD00
2FFC00
0BE000
030000
070000
010000
ENDCHAR
STARTCHAR uni0200
ENCODING 512
SWIDTH 786 0
DWIDTH 14 0
BBX 16 22 1 0
BITMAP
00050400
000F6D00
000B5E00
00038F00
00028700
00000000
0006FF90
007FFFF0
02FE5590
0BE00A00
1F801F00
3F002F00
7D003E00
BC003D00
BC007D00
F800BC00
F800FC00
F801FC00
BC03FC0D
7E5FBD7D
2FFD7FF4
0BE41F90
ENDCHAR
STARTCHAR uni0201
ENCODING 513
SWIDTH 470 0
DWIDTH 8 0
BBX 11 16 0 0
BITMAP
1D7400
2E7C00
1F3C00
0B2D00
074E00
024600
000000
01F400
0BFE00
1F6E00
3E2E00
7C3D00
7C3D28
7DBDB8
3FEFE0
1F4B80
ENDCHAR
STARTCHAR uni0202
ENCODING 514
SWIDTH 786 0
DWIDTH 14 0
BBX 16 21 1 0
BITMAP
0001BF40
0007FFD0
000B82E0
00050050
00000000
0006FF90
007FFFF0
02FE5590
0BE00A00
1F801F00
3F002F00
7D003E00
BC003D00
BC007D00
F800BC00
F800FC00
F801FC00
BC03FC0D
7E5FBD7D
2FFD7FF4
0BE41F90
ENDCHAR
STARTCHAR uni0203
ENCODING 515
SWIDTH 470 0
DWIDTH 8 0
BBX 11 15 0 0
BITMAP
01BE00
07FFC0
0B87D0
0F02D0
050040
000000
01F400
0BFE00
1F6E00
3E2E00
7C3D00
7C3D28
7DBDB8
3FEFE0
1F4B80
ENDCHAR
STARTCHAR uni0204
ENCODING 516
SWIDTH 686 0
DWIDTH 12 0
BBX 15 22 0 0
BITMAP
00145000
003CF000
003DB400
001D3800
00092800
00000000
002BF900
01FFFF40
07F41F80
0BD00B80
0BC00B80
07E40500
01FF8000
06FF4000
1FD00000
3E000000
7D000000
7D000000
7E000014
3F9016F8
0FFFFFE0
01BFF940
ENDCHAR
STARTCHAR uni0205
ENCODING 517
SWIDTH 393 0
DWIDTH 7 0
BBX 10 16 0 0
BITMAP
74E000
7DF000
3CB400
2D7800
0E2C00
061C00
000000
06E400
1FF800
3E7C00
7C7800
7EF400
7F81D0
3E1BC0
2FFF40
0BF800
ENDCHAR
STARTCHAR uni0206
ENCODING 518
SWIDTH 686 0
DWIDTH 12 0
BBX 15 21 0 0
BITMAP
0007F900
001FFF40
003D0B40
00140100
00000000
002BF900
01FFFF40
07F41F80
0BD00B80
0BC00B80
07E40500
01FF8000
06FF4000
1FD00000
3E000000
7D000000
7D000000
7E000014
3F9016F8
0FFFFFE0
01BFF940
ENDCHAR
STARTCHAR uni0207
ENCODING 519
SWIDTH 393 0
DWIDTH 7 0
BBX 10 15 0 0
BITMAP
02F900
0FFF40
1F0B80
2D0780
040100
000000
06E400
1FF800
3E7C00
7C7800
7EF400
7F81D0
3E1BC0
2FFF40
0BF800
ENDCHAR
STARTCHAR uni0208
ENCODING 520
SWIDTH 495 0
DWIDTH 9 0
BBX 11 22 -1 0
BITMAP
004140
01E7C0
01F3C0
00B5D0
003490
000000
02FFF8
03FFF8
002F00
002E00
003E00
003E00
003D00
007D00
007C00
00BC00
00B800
00F800
00F400
01F400
2FFF80
7FFF80
ENDCHAR
STARTCHAR uni0209
ENCODING 521
SWIDTH 246 0
DWIDTH 4 0
BBX 9 16 -2 0
BITMAP
38A000
7CF400
3DB800
1E3C00
0B2D00
070D00
000000
01E000
02E000
02E000
03D000
03C040
03C280
03DB40
03FE00
01F800
ENDCHAR
STARTCHAR uni020A
ENCODING 522
SWIDTH 495 0
DWIDTH 9 0
BBX 12 21 -1 0
BITMAP
002FE0
00BFFC
00F47D
004014
000000
02FFF8
03FFF8
002F00
002E00
003E00
003E00
003D00
007D00
007C00
00BC00
00B800
00F800
00F400
01F400
2FFF80
7FFF80
ENDCHAR
STARTCHAR uni020B
ENCODING 523
SWIDTH 246 0
DWIDTH 4 0
BBX 8 15 -1 0
BITMAP
0BF4
2FFD
7D2E
740F
1005
0000
0780
0B80
0B80
0F40
0F01
0F0A
0F6D
0FF8
07E0
ENDCHAR
STARTCHAR uni020C
ENCODING 524
SWIDTH 816 0
DWIDTH 15 0
BBX 14 22 1 0
BITMAP
00504000
00F6D000
00B5E000
0038B000
00187000
00000000
006FE400
02FFFD00
0BE47F40
1F800F80
2F000BC0
3D0007D0
7C0007D0
BC0007D0
BC0007C0
B8000BC0
BC000F80
BC001F40
7E003E00
2F81FC00
0FFFF000
01BE4000
ENDCHAR
STARTCHAR uni020D
ENCODING 525
SWIDTH 451 0
DWIDTH 8 0
BBX 11 16 0 0
BITMAP
74E000
B9F000
7CF400
2D7800
0E2C00
061C00
000000
06E400
1FFD00
3E7E10
7C7FF4
7C2FE4
7C1E00
3D7C00
2FF800
0BE000
ENDCHAR
STARTCHAR uni020E
ENCODING 526
SWIDTH 816 0
DWIDTH 15 0
BBX 14 21 1 0
BITMAP
001BF400
007FFD00
00B82E00
00500500
00000000
006FE400
02FFFD00
0BE47F40
1F800F80
2F000BC0
3D0007D0
7C0007D0
BC0007D0
BC0007C0
B8000BC0
BC000F80
BC001F40
7E003E00
2F81FC00
0FFFF000
01BE4000
ENDCHAR
STARTCHAR uni020F
ENCODING 527
SWIDTH 451 0
DWIDTH 8 0
BBX 11 15 0 0
BITMAP
02F900
0FFF00
2E0F80
2D0780
140100
000000
06E400
1FFD00
3E7E10
7C7FF4
7C2FE4
7C1E00
3D7C00
2FF800
0BE000
ENDCHAR
STARTCHAR uni0210
ENCODING 528
SWIDTH 880 0
DWIDTH 16 0
BBX 17 22 1 0
BITMAP
0010500000
0078F00000
003CF40000
002D780000
000D280000
0000000000
002BF90000
01FFFF8000
07E41FD000
1F4507D000
3D1F07E000
782E07D000
B43E0BC000
B43D6F4000
F1FFF80000
F1FFF40000
F0BDFC0000
F0B87E0000
B4F83F01C0
79F41F87C0
2FF00BFF40
0BD002F800
ENDCHAR
STARTCHAR uni0211
ENCODING 529
SWIDTH 455 0
DWIDTH 8 0
BBX 10 16 1 0
BITMAP
A1D000
F6E000
B9F000
3CB000
2C7400
0D2400
000000
387C00
B9FD00
B7FC00
FB7CA0
FD3FE0
FC2F80
F80000
F40000
B00000
ENDCHAR
STARTCHAR uni0212
ENCODING 530
SWIDTH 880 0
DWIDTH 16 0
BBX 17 21 1 0
BITMAP
0007F90000
002FFF0000
003D0F4000
0014010000
0000000000
002BF90000
01FFFF8000
07E41FD000
1F4507D000
3D1F07E000
782E07D000
B43E0BC000
B43D6F4000
F1FFF80000
F1FFF40000
F0BDFC0000
F0B87E0000
B4F83F01C0
79F41F87C0
2FF00BFF40
0BD002F800
ENDCHAR
STARTCHAR uni0213
ENCODING 531
SWIDTH 455 0
DWIDTH 8 0
BBX 10 15 1 0
BITMAP
07F800
1FFE00
3D1F00
380B40
100100
000000
387C00
B9FD00
B7FC00
FB7CA0
FD3FE0
FC2F80
F80000
F40000
B00000
ENDCHAR
STARTCHAR uni0214
ENCODING 532
SWIDTH 890 0
DWIDTH 16 0
BBX 19 22 0 0
BITMAP
0005040000
000F2D0000
000B5E0000
00078F0000
0002870000
0000000000
06F4007800
2FFC00BC00
79BC00BC00
E07C00B800
40BC00F800
00B801F800
00F801F400
01F402F400
01F403F000
02F007F000
02E00FE000
03E01EE000
03E07AE074
03F6F2FAF0
02FFD2FFD0
00BE00BE40
ENDCHAR
STARTCHAR uni0215
ENCODING 533
SWIDTH 462 0
DWIDTH 8 0
BBX 10 16 1 0
BITMAP
B1D000
F6E000
B9F000
3CB400
1D7400
0D2400
000000
382800
787800
B4B800
F4F400
F1F400
F2F0A0
FFF6D0
FDFF80
787D00
ENDCHAR
STARTCHAR uni0216
ENCODING 534
SWIDTH 890 0
DWIDTH 16 0
BBX 19 21 0 0
BITMAP
0001BF4000
0007FFD000
000B82E000
0005005000
0000000000
06F4007800
2FFC00BC00
79BC00BC00
E07C00B800
40BC00F800
00B801F800
00F801F400
01F402F400
01F403F000
02F007F000
02E00FE000
03E01EE000
03E07AE074
03F6F2FAF0
02FFD2FFD0
00BE00BE40
ENDCHAR
STARTCHAR uni0217
ENCODING 535
SWIDTH 462 0
DWIDTH 8 0
BBX 10 15 1 0
BITMAP
07F800
1FFE00
3D1F00
380B40
100100
000000
382800
787800
B4B800
F4F400
F1F400
F2F0A0
FFF6D0
FDFF80
787D00
ENDCHAR
STARTCHAR uni0218
ENCODING 536
SWIDTH 693 0
DWIDTH 12 0
BBX 13 21 0 -5
BITMAP
006FE400
02FFFE00
0BE46F40
0F800F40
0F400F40
0F800B00
0BF40000
02FF4000
007FF400
0006FD00
28007E00
7C002E00
7C003E00
3E41BD00
2FFFF800
06FF9000
00000000
00780000
00780000
00740000
00700000
ENDCHAR
STARTCHAR uni0219
ENCODING 537
SWIDTH 427 0
DWIDTH 8 0
BBX 10 15 0 -6
BITMAP
01E000
03D000
07C000
0FE000
1EF410
78BCB0
F6BEE0
9BFFC0
07FE00
000000
02C000
03C000
038000
038000
034000
ENDCHAR
STARTCHAR uni021A
ENCODING 538
SWIDTH 697 0
DWIDTH 13 0
BBX 16 21 0 -5
BITMAP
01AFFFFE
0BFFFFFF
2E52F000
7C03E000
7803E000
3C07D000
1807D000
000BC000
000BC000
000F8000
000F8000
001F4000
001F4000
001F0000
002F0000
001E0000
00000000
001D0000
002D0000
002C0000
00280000
ENDCHAR
STARTCHAR uni021B
ENCODING 539
SWIDTH 393 0
DWIDTH 7 0
BBX 10 23 0 -6
BITMAP
006D00
00FE00
02DE00
03CE00
078E00
0B5D00
0F7800
0FB000
BFFF00
FFFE00
1E0000
1E0000
1F0000
1F00D0
0F87D0
0BFF40
02F900
000000
02C000
03D000
03C000
038000
034000
ENDCHAR
STARTCHAR uni022A
ENCODING 554
SWIDTH 816 0
DWIDTH 15 0
BBX 14 23 1 0
BITMAP
001FFC00
001FFC00
00000000
002D3C00
007D7D00
003C7800
00000000
006FE400
02FFFD00
0BE47F40
1F800F80
2F000BC0
3D0007D0
7C0007D0
BC0007D0
BC0007C0
B8000BC0
BC000F80
BC001F40
7E003E00
2F81FC00
0FFFF000
01BE4000
ENDCHAR
STARTCHAR uni022B
ENCODING 555
SWIDTH 451 0
DWIDTH 8 0
BBX 11 16 0 0
BITMAP
07FF00
07FF00
000000
0B1E00
1F5F00
0F1E00
000000
06E400
1FFD00
3E7E10
7C7FF4
7C2FE4
7C1E00
3D7C00
2FF800
0BE000
ENDCHAR
STARTCHAR uni022C
ENCODING 556
SWIDTH 816 0
DWIDTH 15 0
BBX 14 24 1 0
BITMAP
001FFD00
001FFC00
00000000
002E0500
007F9F00
00B6FE00
0050B800
00000000
006FE400
02FFFD00
0BE47F40
1F800F80
2F000BC0
3D0007D0
7C0007D0
BC0007D0
BC0007C0
B8000BC0
BC000F80
BC001F40
7E003E00
2F81FC00
0FFFF000
01BE4000
ENDCHAR
STARTCHAR uni022D
ENCODING 557
SWIDTH 451 0
DWIDTH 8 0
BBX 11 17 0 0
BITMAP
07FF00
07FF00
000000
0B8140
1FE780
3DBF40
142E00
000000
06E400
1FFD00
3E7E10
7C7FF4
7C2FE4
7C1E00
3D7C00
2FF800
0BE000
ENDCHAR
STARTCHAR uni0230
ENCODING 560
SWIDTH 816 0
DWIDTH 15 0
BBX 14 23 1 0
BITMAP
001FFC00
001FFC00
00000000
0007D000
000BE000
0007D000
00000000
006FE400
02FFFD00
0BE47F40
1F800F80
2F000BC0
3D0007D0
7C0007D0
BC0007D0
BC0007C0
B8000BC0
BC000F80
BC001F40
7E003E00
2F81FC00
0FFFF000
01BE4000
ENDCHAR
STARTCHAR uni0231
ENCODING 561
SWIDTH 451 0
DWIDTH 8 0
BBX 11 16 0 0
BITMAP
07FF00
07FF00
000000
01F400
02F400
01E000
000000
06E400
1FFD00
3E7E10
7C7FF4
7C2FE4
7C1E00
3D7C00
2FF800
0BE000
ENDCHAR
STARTCHAR uni0232
ENCODING 562
SWIDTH 851 0
DWIDTH 15 0
BBX 18 25 0 -6
BITMAP
0002FF8000
0002FF8000
0000000000
06F4007800
2FFC00BC00
79BC00BC00
E07C00B800
80BC00F800
00BC01F800
00F801F400
01F402F400
01F407F000
01F00BF000
02F01EF000
01F47AE000
00FFE2EBD0
006F9BFF80
0000BFE400
0007E7C000
001F47C000
007C0B8000
00B80F4000
00B82E0000
007FFC0000
001FE00000
ENDCHAR
STARTCHAR uni0233
ENCODING 563
SWIDTH 479 0
DWIDTH 9 0
BBX 11 21 0 -9
BITMAP
07FF00
07FF00
000000
0E0A00
1E1E00
2D2E00
3D3D00
3C7D00
3CBD78
3FFEF4
3FBF80
1E7E00
01F800
07F400
1EF000
3CF000
B5E000
E2D000
E7C000
FF4000
7D0000
ENDCHAR
STARTCHAR uni0237
ENCODING 567
SWIDTH 254 0
DWIDTH 5 0
BBX 11 18 -4 -9
BITMAP
001E00
002E00
002E00
002D00
003D00
003D74
003EF4
007F80
007E00
00F800
07F400
0EF400
3CF000
75E000
E2D000
E7C000
FF4000
7D0000
ENDCHAR
STARTCHAR uni0259
ENCODING 601
SWIDTH 458 0
DWIDTH 8 0
BBX 8 9 0 0
BITMAP
1BE4
3FFC
147E
001E
3FFE
7FFE
3D6D
2FFC
0BE0
ENDCHAR
STARTCHAR uni02BC
ENCODING 700
SWIDTH 600 0
DWIDTH 11 0
BBX 3 5 4 10
BITMAP
28
3C
38
78
30
ENDCHAR
STARTCHAR circumflex
ENCODING 710
SWIDTH 600 0
DWIDTH 11 0
BBX 7 7 2 10
BITMAP
0140
07D0
0BE0
1EF0
3CB4
78B4
7474
ENDCHAR
STARTCHAR caron
ENCODING 711
SWIDTH 600 0
DWIDTH 11 0
BBX 6 7 3 10
BITMAP
5010
B0B0
B5E0
76D0
7B80
3F40
2D00
ENDCHAR
STARTCHAR uni02C9
ENCODING 713
SWIDTH 600 0
DWIDTH 11 0
BBX 7 2 2 10
BITMAP
7FF4
7FF0
ENDCHAR
STARTCHAR breve
ENCODING 728
SWIDTH 600 0
DWIDTH 11 0
BBX 8 5 2 10
BITMAP
5004
F02D
F87C
7FF8
1FD0
ENDCHAR
STARTCHAR dotaccent
ENCODING 729
SWIDTH 600 0
DWIDTH 11 0
BBX 3 3 4 10
BITMAP
78
FC
B8
ENDCHAR
STARTCHAR ring
ENCODING 730
SWIDTH 600 0
DWIDTH 11 0
BBX 5 6 3 10
BITMAP
2F40
7FC0
B2C0
B6C0
7F80
2E00
ENDCHAR
STARTCHAR ogonek
ENCODING 731
SWIDTH 600 0
DWIDTH 11 0
BBX 5 6 2 -5
BITMAP
1D00
3800
7400
B800
7FC0
2F80
ENDCHAR
STARTCHAR tilde
ENCODING 732
SWIDTH 600 0
DWIDTH 11 0
BBX 8 4 2 10
BITMAP
2D04
BF9E
E7FC
40B4
ENDCHAR
STARTCHAR hungarumlaut
ENCODING 733
SWIDTH 600 0
DWIDTH 11 0
BBX 7 6 3 10
BITMAP
1D38
2EB8
3CB4
78F0
B1D0
9180
ENDCHAR
STARTCHAR gravecomb
ENCODING 768
SWIDTH 0 0
DWIDTH 0 0
BBX 5 6 -9 10
BITMAP
7400
B800
3D00
1E00
0B00
0340
ENDCHAR
STARTCHAR acutecomb
ENCODING 769
SWIDTH 0 0
DWIDTH 0 0
BBX 4 6 -6 10
BITMAP
0E
2F
3D
78
B0
90
ENDCHAR
STARTCHAR uni0302
ENCODING 770
SWIDTH 0 0
DWIDTH 0 0
BBX 7 7 -9 10
BITMAP
0040
03E0
0BF0
0EB0
2DB4
3C78
7434
ENDCHAR
STARTCHAR tildecomb
ENCODING 771
SWIDTH 0 0
DWIDTH 0 0
BBX 8 4 -9 10
BITMAP
2D05
BF9E
F6FD
50B4
ENDCHAR
STARTCHAR uni0304
ENCODING 772
SWIDTH 0 0
DWIDTH 0 0
BBX 6 2 -8 10
BITMAP
FFD0
FFD0
ENDCHAR
STARTCHAR uni0306
ENCODING 774
SWIDTH 0 0
DWIDTH 0 0
BBX 8 5 -9 10
BITMAP
5004
B41E
B87D
7FF8
1BE0
ENDCHAR
STARTCHAR uni0307
ENCODING 775
SWIDTH 0 0
DWIDTH 0 0
BBX 4 3 -7 10
BITMAP
7C
BD
78
ENDCHAR
STARTCHAR uni0308
ENCODING 776
SWIDTH 0 0
DWIDTH 0 0
BBX 7 3 -9 10
BITMAP
3C78
7DBC
3878
ENDCHAR
STARTCHAR hookabovecomb
ENCODING 777
SWIDTH 0 0
DWIDTH 0 0
BBX 5 6 -7 10
BITMAP
BD00
FF00
0740
0B40
7F00
7900
ENDCHAR
STARTCHAR uni030A
ENCODING 778
SWIDTH 0 0
DWIDTH 0 0
BBX 6 6 -8 10
BITMAP
1F40
3FC0
75D0
76D0
7FC0
1F40
ENDCHAR
STARTCHAR uni030B
ENCODING 779
SWIDTH 0 0
DWIDTH 0 0
BBX 7 6 -8 10
BITMAP
1D38
2E7C
3DB8
38F0
75E0
61C0
ENDCHAR
STARTCHAR uni030C
ENCODING 780
SWIDTH 0 0
DWIDTH 0 0
BBX 7 7 -8 10
BITMAP
1010
B4B4
74F0
7AD0
3BC0
2F40
1E00
ENDCHAR
STARTCHAR uni030F
ENCODING 783
SWIDTH 0 0
DWIDTH 0 0
BBX 7 6 -10 10
BITMAP
75D0
B9F0
7CF4
2D74
1E38
0A18
ENDCHAR
STARTCHAR uni0311
ENCODING 785
SWIDTH 0 0
DWIDTH 0 0
BBX 8 5 -9 10
BITMAP
0BE0
3FFC
B87D
B01E
5004
ENDCHAR
STARTCHAR uni0312
ENCODING 786
SWIDTH 0 0
DWIDTH 0 0
BBX 3 5 -6 10
BITMAP
B0
F4
F0
E0
D0
ENDCHAR
STARTCHAR uni031B
ENCODING 795
SWIDTH 0 0
DWIDTH 0 0
BBX 4 5 -6 7
BITMAP
04
1E
2D
BC
A0
ENDCHAR
STARTCHAR dotbelowcomb
ENCODING 803
SWIDTH 0 0
DWIDTH 0 0
BBX 4 3 -9 -4
BITMAP
2D
7E
3D
ENDCHAR
STARTCHAR uni0324
ENCODING 804
SWIDTH 0 0
DWIDTH 0 0
BBX 7 3 -10 -4
BITMAP
B4B0
F9F4
B4E0
ENDCHAR
STARTCHAR uni0326
ENCODING 806
SWIDTH 0 0
DWIDTH 0 0
BBX 3 5 -8 -6
BITMAP
B0
F4
F0
E0
90
ENDCHAR
STARTCHAR uni0327
ENCODING 807
SWIDTH 0 0
DWIDTH 0 0
BBX 6 6 -10 -5
BITMAP
1F40
2FD0
02D0
02D0
BFC0
7E00
ENDCHAR
STARTCHAR uni0328
ENCODING 808
SWIDTH 0 0
DWIDTH 0 0
BBX 6 6 -9 -5
BITMAP
0900
2C00
7800
7800
3FD0
1F80
ENDCHAR
STARTCHAR uni032E
ENCODING 814
SWIDTH 0 0
DWIDTH 0 0
BBX 8 5 -11 -6
BITMAP
1005
B41E
BD6D
3FFC
1BE0
ENDCHAR
STARTCHAR uni0331
ENCODING 817
SWIDTH 0 0
DWIDTH 0 0
BBX 6 2 -10 -3
BITMAP
7FF0
7FF0
ENDCHAR
STARTCHAR uni0394
ENCODING 916
SWIDTH 700 0
DWIDTH 13 0
BBX 12 15 0 0
BITMAP
000740
000F80
001FC0
002FD0
007ED0
00B5E0
00F1E0
02E0F0
03D0F4
0780B4
0F40B8
1F0078
2D007C
7FFFFD
7FFFFC
ENDCHAR
STARTCHAR uni03A9
ENCODING 937
SWIDTH 816 0
DWIDTH 15 0
BBX 16 15 -1 0
BITMAP
0006FE40
002FFFE0
00BE57F4
01F800FC
03E000BD
07D0007D
0BC0007D
0BC0007D
0B8000BC
0BC000F8
0BC001F4
07D003E0
07F00BD0
7FFC2FFD
7FF83FFC
ENDCHAR
STARTCHAR uni03BC
ENCODING 956
SWIDTH 462 0
DWIDTH 8 0
BBX 11 14 0 -5
BITMAP
050500
1E0F00
2E1E00
3D2D00
3C7D00
3CBC28
7EFCB4
7FBFE0
7E1F40
780000
780000
780000
780000
740000
ENDCHAR
STARTCHAR pi
ENCODING 960
SWIDTH 496 0
DWIDTH 9 0
BBX 12 9 0 0
BITMAP
7FFFE0
7FFFD0
2E0F00
2E1F00
3D2E00
3D2E0D
7C2E3C
7C1FF4
780B90
ENDCHAR
STARTCHAR uni0400
ENCODING 1024
SWIDTH 686 0
DWIDTH 12 0
BBX 15 22 0 0
BITMAP
00500000
01F40000
00FD0000
002F4000
00028000
00000000
002BF900
01FFFF40
07F41F80
0BD00B80
0BC00B80
07E40500
01FF8000
06FF4000
1FD00000
3E000000
7D000000
7D000000
7E000014
3F9016F8
0FFFFFE0
01BFF940
ENDCHAR
STARTCHAR uni0401
ENCODING 1025
SWIDTH 686 0
DWIDTH 12 0
BBX 15 20 0 0
BITMAP
000E1E00
001F2F00
001E1E00
00000000
002BF900
01FFFF40
07F41F80
0BD00B80
0BC00B80
07E40500
01FF8000
06FF4000
1FD00000
3E000000
7D000000
7D000000
7E000014
3F9016F8
0FFFFFE0
01BFF940
ENDCHAR
STARTCHAR uni0402
ENCODING 1026
SWIDTH 974 0
DWIDTH 18 0
BBX 20 25 0 -9
BITMAP
016BFFFE00
0BFFFFFF00
2E42F00000
7C03E00000
7803E00000
7C07D00000
2807D00000
000BC6F900
000BDFFF00
000FF92F40
000FD00F40
001F801F49
001F401F7D
001F001FFC
002F002FE0
001E002F40
000000BE00
000003FD00
00000FFC00
00002E7C00
00007CB800
0000B8F000
0000B6E000
0000BFC000
00002E4000
ENDCHAR
STARTCHAR uni0403
ENCODING 1027
SWIDTH 635 0
DWIDTH 11 0
BBX 16 22 0 0
BITMAP
00000500
00001F40
0000BF00
0002F800
00038000
00000000
01AFFFFD
1FFFFFF9
3F5F4000
7C1F0000
782F0000
7C3E0000
143E0000
007D0000
007D0000
00BC0000
00BC0000
00B80000
00F80000
00F80000
01F40000
00F00000
ENDCHAR
STARTCHAR uni0404
ENCODING 1028
SWIDTH 687 0
DWIDTH 12 0
BBX 14 16 1 0
BITMAP
006FE000
01FFFC00
0BE47E00
1F802E00
2F003D00
3D001800
7C000000
BFFF8000
BFFF8000
BC000000
BC000000
BD000000
3E000050
2FD01BE0
0BFFFFD0
01AFE900
ENDCHAR
STARTCHAR uni0405
ENCODING 1029
SWIDTH 693 0
DWIDTH 12 0
BBX 13 16 0 0
BITMAP
006FE400
02FFFE00
0BE46F40
0F800F40
0F400F40
0F800B00
0BF40000
02FF4000
007FF400
0006FD00
28007E00
7C002E00
7C003E00
3E41BD00
2FFFF800
06FF9000
ENDCHAR
STARTCHAR uni0406
ENCODING 1030
SWIDTH 495 0
DWIDTH 9 0
BBX 11 16 -1 0
BITMAP
02FFF8
03FFF8
002F00
002E00
003E00
003E00
003D00
007D00
007C00
00BC00
00B800
00F800
00F400
01F400
2FFF80
7FFF80
ENDCHAR
STARTCHAR uni0407
ENCODING 1031
SWIDTH 495 0
DWIDTH 9 0
BBX 11 20 -1 0
BITMAP
0078B4
00BCF8
0074B4
000000
02FFF8
03FFF8
002F00
002E00
003E00
003E00
003D00
007D00
007C00
00BC00
00B800
00F800
00F400
01F400
2FFF80
7FFF80
ENDCHAR
STARTCHAR uni0408
ENCODING 1032
SWIDTH 743 0
DWIDTH 13 0
BBX 13 18 1 -2
BITMAP
01BFFA40
1FFFFF80
7E402F40
B8003E00
B4003E00
B8003D00
38007D00
0000BC00
0007FC00
007FF800
01F8F800
07E0F400
0B81F000
1F02E000
1F07D000
1F4F8000
0FFE0000
06F80000
ENDCHAR
STARTCHAR uni0409
ENCODING 1033
SWIDTH 1158 0
DWIDTH 21 0
BBX 21 16 0 0
BITMAP
00000B800000
00001FC00000
00002F800000
00003F800000
00007F800000
0000BF800000
0000FB9BF800
0001FBFFFF00
0002EBD02F40
0003DB801F80
0007CB800F80
100F4B801F40
B42F0BC02F00
B87D07E07E00
7FF802FFF800
1BD0006F9000
ENDCHAR
STARTCHAR uni040A
ENCODING 1034
SWIDTH 1182 0
DWIDTH 21 0
BBX 22 16 -1 0
BITMAP
01B8002C0000
0BFE007D0000
2E2F00BC0000
781F00B80000
201F00F80000
002F00F40000
002F01FAFE40
002E06FFFFD0
03FFFFF507F0
07FFFBE002F0
007D02E002F0
00BC02E002F0
00F802F007E0
00F401F41FC0
01F400BFFF00
01E0002FE400
ENDCHAR
STARTCHAR uni040B
ENCODING 1035
SWIDTH 979 0
DWIDTH 18 0
BBX 20 16 0 0
BITMAP
016BFFFE00
0BFFFFFF00
2E42F00000
7C03E00000
7803E00000
7C07D00000
2807D00000
000BC6F900
000BDFFF00
000FF92F40
000FD00F40
001F801F40
001F401F47
001F002F1E
002F001FF8
001E000BE0
ENDCHAR
STARTCHAR uni040C
ENCODING 1036
SWIDTH 937 0
DWIDTH 17 0
BBX 19 22 0 0
BITMAP
0000000500
0000001F40
0000007F00
000001F800
0000028000
0000000000
01BFE002D0
0BFFF807D0
1F42F00FC0
2D03E01F40
2D03D03E00
1E07D0BC00
0407D7F400
002FFF8000
002FFE0000
000B9F8000
000F8BD000
100F43E004
741F42F41C
7D7F01FDBC
3FFD00BFF0
0BE4002F80
ENDCHAR
STARTCHAR uni040D
ENCODING 1037
SWIDTH 890 0
DWIDTH 16 0
BBX 19 22 0 0
BITMAP
0014000000
007D000000
003F800000
000BE00000
0000B00000
0000000000
06F4007800
2FFC00BC00
79BC00BC00
E07C00B800
40BC00F800
00B801F800
00F801F400
01F402F400
01F403F000
02F007F000
02E00FE000
03E01EE000
03E07AE074
03F6F2FAF0
02FFD2FFD0
00BE00BE40
ENDCHAR
STARTCHAR uni040E
ENCODING 1038
SWIDTH 824 0
DWIDTH 15 0
BBX 17 26 0 -5
BITMAP
000101D000
000782D000
0007FF8000
0001FD0000
0000000000
06E4007800
2FF800BC00
78BC00BC00
10BC00F800
00B801F800
00F802F400
01F407F400
01F40FF000
01F47EF000
00FFF6E000
006F82E680
000003FFC0
00006FFA40
0002FFC000
000FEBC000
003F478000
007C0B4000
00B40F0000
00B87E0000
007FF80000
001FD00000
ENDCHAR
STARTCHAR uni040F
ENCODING 1039
SWIDTH 890 0
DWIDTH 16 0
BBX 19 20 0 -4
BITMAP
06F4007800
2FFC00BC00
78BC00BC00
E07C00B800
40BC00F800
00B801F800
00F801F400
01F402F400
01F403F000
02F007F000
02E00FE000
03E01EE000
03E076E074
03F6F2FAF0
02FFC1FFD0
00BE00BE40
007D000000
007C000000
007C000000
0010000000
ENDCHAR
STARTCHAR uni0410
ENCODING 1040
SWIDTH 786 0
DWIDTH 14 0
BBX 16 16 1 0
BITMAP
0006FF90
007FFFF0
02FE5590
0BE00A00
1F801F00
3F002F00
7D003E00
BC003D00
BC007D00
F800BC00
F800FC00
F801FC00
BC03FC0D
7E5FBD7D
2FFD7FF4
0BE41F90
ENDCHAR
STARTCHAR uni0411
ENCODING 1041
SWIDTH 917 0
DWIDTH 17 0
BBX 16 17 0 -1
BITMAP
01AFFFFD
0BFFFFF9
2E4BC000
7C0F8000
780F8000
7C1F4000
2C1F4000
002FBFE4
00BFFFFD
01FE407F
007E002F
003D002F
007D002F
007D007E
007C01FD
00BC6FF4
00787E40
ENDCHAR
STARTCHAR uni0412
ENCODING 1042
SWIDTH 827 0
DWIDTH 15 0
BBX 16 17 0 -1
BITMAP
006BFE90
1BFFFFF4
7F9405FD
B800007E
00F4003E
01F400BD
02F006F8
02E1FFD0
03D1FF40
07D01BD0
07C003E0
0BC003E0
0BC00BD0
0B816F80
0FFFFE00
0FFFA400
0B400000
ENDCHAR
STARTCHAR uni0413
ENCODING 1043
SWIDTH 635 0
DWIDTH 11 0
BBX 16 16 0 0
BITMAP
01AFFFFD
1FFFFFF9
3F5F4000
7C1F0000
782F0000
7C3E0000
143E0000
007D0000
007D0000
00BC0000
00BC0000
00B80000
00F80000
00F80000
01F40000
00F00000
ENDCHAR
STARTCHAR uni0414
ENCODING 1044
SWIDTH 964 0
DWIDTH 17 0
BBX 17 16 0 0
BITMAP
001AFF9000
01BFFFF800
03F901BE00
0240002F40
0007801F80
000F400F80
001F000BC0
002E000BC0
003E000BC0
003D000F80
007C000F40
2FFC001F40
7FFC003E00
B5FF81FD00
BFE7FFF400
2F806F9000
ENDCHAR
STARTCHAR uni0415
ENCODING 1045
SWIDTH 686 0
DWIDTH 12 0
BBX 15 16 0 0
BITMAP
002BF900
01FFFF40
07F41F80
0BD00B80
0BC00B80
07E40500
01FF8000
06FF4000
1FD00000
3E000000
7D000000
7D000000
7E000014
3F9016F8
0FFFFFE0
01BFF940
ENDCHAR
STARTCHAR uni0416
ENCODING 1046
SWIDTH 1234 0
DWIDTH 22 0
BBX 24 16 0 0
BITMAP
01BD00B402F8
03FF40F80FFD
074BC0F41F2D
0007D1F43D00
0002E1F47C00
0002E1F1F800
0000F6F7E000
00007FFF8000
0001BFFE4000
0007E7DBC000
000FC7D3E000
001F47C2F000
103E07C1F806
78BC0BC0BD1E
7FF40B803FF8
1FD00B401BE0
ENDCHAR
STARTCHAR uni0417
ENCODING 1047
SWIDTH 725 0
DWIDTH 13 0
BBX 12 16 1 0
BITMAP
01BF90
0BFFF4
1F81F8
2E00B8
2E00B8
0900F4
0002D0
00BFE0
01F9F8
00007D
74007D
F4007D
F800FC
BD07F4
3FFFD0
0BFA00
ENDCHAR
STARTCHAR uni0418
ENCODING 1048
SWIDTH 890 0
DWIDTH 16 0
BBX 19 16 0 0
BITMAP
06F4007800
2FFC00BC00
79BC00BC00
E07C00B800
40BC00F800
00B801F800
00F801F400
01F402F400
01F403F000
02F007F000
02E00FE000
03E01EE000
03E07AE074
03F6F2FAF0
02FFD2FFD0
00BE00BE40
ENDCHAR
STARTCHAR uni0419
ENCODING 1049
SWIDTH 890 0
DWIDTH 16 0
BBX 19 21 0 0
BITMAP
000140D000
0007C2D000
0003FF8000
0001BE0000
0000000000
06F4007800
2FFC00BC00
79BC00BC00
E07C00B800
40BC00F800
00B801F800
00F801F400
01F402F400
01F403F000
02F007F000
02E00FE000
03E01EE000
03E07AE074
03F6F2FAF0
02FFD2FFD0
00BE00BE40
ENDCHAR
STARTCHAR uni041A
ENCODING 1050
SWIDTH 937 0
DWIDTH 17 0
BBX 19 16 0 0
BITMAP
01BFE002D0
0BFFF807D0
1F42F00FC0
2D03E01F40
2D03D03E00
1E07D0BC00
0407D7F400
002FFF8000
002FFE0000
000B9F8000
000F8BD000
100F43E004
741F42F41C
7D7F01FDBC
3FFD00BFF0
0BE4002F80
ENDCHAR
STARTCHAR uni041B
ENCODING 1051
SWIDTH 861 0
DWIDTH 16 0
BBX 18 16 0 0
BITMAP
00000B8000
00001FC000
00002F8000
00003F8000
00007F8000
0000BF8000
0000FF8000
0001FB8000
0002EB8000
0003DB8000
0007CB8000
100F4BC010
B02F07C0A0
B87D03E6E0
7FF802FF80
1BD000BE00
ENDCHAR
STARTCHAR uni041C
ENCODING 1052
SWIDTH 1133 0
DWIDTH 20 0
BBX 23 16 0 0
BITMAP
0000B801E000
0001FC03F400
0001FC07F000
0002FC0FF000
0003FC1FF000
0003FC2EF000
0007BC3EE000
000BBC7AE000
000B7CB6E000
000F3DF2E000
001F2EE2E000
102E2FD2F000
B03D2FC1F028
B9B81F80F9B4
7FF41F40BFE0
1F900B002F40
ENDCHAR
STARTCHAR uni041D
ENCODING 1053
SWIDTH 873 0
DWIDTH 16 0
BBX 19 17 -1 0
BITMAP
00000007D0
01B8001FF0
0BFE002EB0
2E2F007C70
781F00B8B0
201F00F4E0
002F01F2D0
002E01FB40
002E02FD00
03FFFFE000
07FFEBE000
007C03E000
00BC03E000
00F802E01C
00F401F47C
01F400FFF0
01E0002F80
ENDCHAR
STARTCHAR uni041E
ENCODING 1054
SWIDTH 816 0
DWIDTH 15 0
BBX 14 16 1 0
BITMAP
006FE400
02FFFD00
0BE47F40
1F800F80
2F000BC0
3D0007D0
7C0007D0
BC0007D0
BC0007C0
B8000BC0
BC000F80
BC001F40
7E003E00
2F81FC00
0FFFF000
01BE4000
ENDCHAR
STARTCHAR uni041F
ENCODING 1055
SWIDTH 892 0
DWIDTH 16 0
BBX 19 16 0 0
BITMAP
006BFFFA90
0BFFFFFFF4
2F5F407D50
7C1F407C00
782F00BC00
3C2F00B800
283E00F800
003E01F400
007D01F000
007D02F000
007C02E000
00BC03E000
00BC03E034
00F802F1B4
00F801FFD0
00B4007E40
ENDCHAR
STARTCHAR uni0420
ENCODING 1056
SWIDTH 805 0
DWIDTH 14 0
BBX 14 19 1 -3
BITMAP
001BF900
00BFFF40
07E41FD0
0F8007E0
2E0F03E0
3C2F03E0
782F03E0
B43E0BD0
F43E6F80
F2FFFE00
F2FFE400
F0BC0000
F0BC0000
F0B80000
F4F80000
B9F40000
3FF00000
1FE00000
01400000
ENDCHAR
STARTCHAR uni0421
ENCODING 1057
SWIDTH 686 0
DWIDTH 12 0
BBX 14 16 1 0
BITMAP
006FE000
01FFFC00
0BE47D00
1F802E00
2F003E00
7D003D00
7C000400
BC000000
BC000000
B8000000
BC000000
BD000000
3E000050
2FD01BE0
0BFFFFC0
01AFE900
ENDCHAR
STARTCHAR uni0422
ENCODING 1058
SWIDTH 697 0
DWIDTH 13 0
BBX 16 16 0 0
BITMAP
01AFFFFE
0BFFFFFF
2E52F000
7C03E000
7803E000
3C07D000
1807D000
000BC000
000BC000
000F8000
000F8000
001F4000
001F4000
001F0000
002F0000
001E0000
ENDCHAR
STARTCHAR uni0423
ENCODING 1059
SWIDTH 824 0
DWIDTH 15 0
BBX 17 21 0 -5
BITMAP
06E4007800
2FF800BC00
78BC00BC00
10BC00F800
00B801F800
00F802F400
01F407F400
01F40FF000
01F47EF000
00FFF6E000
006F82E680
000003FFC0
00006FFA40
0002FFC000
000FEBC000
003F478000
007C0B4000
00B40F0000
00B87E0000
007FF80000
001FD00000
ENDCHAR
STARTCHAR uni0424
ENCODING 1060
SWIDTH 977 0
DWIDTH 18 0
BBX 17 23 1 -5
BITMAP
0A40000000
0FFFFD0000
06FFFD0000
0000B40000
02F9F1B800
0BFFF7FE00
2F4BFE6F00
3E02FC1F40
7D02F41F40
BC03E01F40
B803D01F00
F807C02F00
F80FC03E00
F82FC07D00
B8BFE1F800
7FEBFFF000
2F8BAF8000
000F400000
141F000000
3C2E000000
3E3D000000
1FF8000000
07E0000000
ENDCHAR
STARTCHAR uni0425
ENCODING 1061
SWIDTH 712 0
DWIDTH 13 0
BBX 15 16 0 0
BITMAP
0BE001E0
3FFC07E0
B4BD1F80
903E3F00
002FBC00
001FF400
000FD000
001F8000
003FC000
00BFD000
02F7E000
0BD2E000
1F81F01C
7F00F87C
FC00BFF4
F4002F80
ENDCHAR
STARTCHAR uni0426
ENCODING 1062
SWIDTH 890 0
DWIDTH 16 0
BBX 18 22 0 -6
BITMAP
06F4007800
2FFC00BC00
78BC00BC00
E07C00B800
80BC00F800
00BC00F800
00F801F400
01F402F400
01F403F000
02F007F000
02E00BE000
03E01EE000
03E02AE000
03E1B2F970
02FFD1FFF0
00BE407F40
000002FD00
00001FBC00
00003D7800
00007CB400
00007FF000
00002F8000
ENDCHAR
STARTCHAR uni0427
ENCODING 1063
SWIDTH 773 0
DWIDTH 14 0
BBX 12 16 2 0
BITMAP
2C002C
7D007D
7D007D
7D007C
7C00BC
BC00FC
F801F8
F803F8
FD1FF4
BFFDF4
2FF8F4
0541F0
0001F0
0002F0
0002E0
0001D0
ENDCHAR
STARTCHAR uni0428
ENCODING 1064
SWIDTH 1272 0
DWIDTH 23 0
BBX 26 16 0 0
BITMAP
06F400B401E000
2FFC00F802F000
78BC00F802E000
E07C01F403E000
40BC01F403E000
00B802F007D000
00F802E00BD000
01F403D00BC000
01F407D00FC000
02F00BC02F8000
02E01FC03F8000
03E02F807F8040
03E07781DF81D0
03FAE7EBCFEBC0
02FFC3FF4BFF40
00BE01F902F800
ENDCHAR
STARTCHAR uni0429
ENCODING 1065
SWIDTH 1272 0
DWIDTH 23 0
BBX 25 22 0 -6
BITMAP
06F400B401E000
2FFC00F802F000
78BC00F802E000
E07C01F403E000
40BC01F403E000
00B802F007D000
00F802E00BD000
01F403D00BC000
01F407D00FC000
02F00BC02F8000
02E01FC03F8000
03E02F807F8000
03E07B81DF8040
03FAE7EBCFF6C0
02FFC3FF47FF40
00BE01F901F800
000000000BF000
000000007EF000
00000000F5E000
00000001F3D000
00000001FF8000
00000000BE0000
ENDCHAR
STARTCHAR uni042A
ENCODING 1066
SWIDTH 863 0
DWIDTH 16 0
BBX 14 16 2 0
BITMAP
006E0000
FFFE0000
BFF80000
00F40000
01F00000
02FBF900
03FFFF80
2FE41FC0
2FC007D0
07C007D0
07C007D0
07C00BC0
07C00F80
03E07F00
01FFFD00
006F9000
ENDCHAR
STARTCHAR uni042B
ENCODING 1067
SWIDTH 1078 0
DWIDTH 19 0
BBX 19 16 0 0
BITMAP
01E0000078
02F00000B8
03E00000F8
03D00000F8
07C00000F4
07EBF801F4
0BFFFF01F0
7F906F82F0
7F400F82E0
0F400F83E0
0F400F83D0
0F401F47D0
0B802F07D0
0BD1BD07C0
03FFF40BC0
00BF900780
ENDCHAR
STARTCHAR uni042C
ENCODING 1068
SWIDTH 721 0
DWIDTH 13 0
BBX 13 16 0 0
BITMAP
01E00000
02F00000
03E00000
03D00000
07C00000
07EBF800
0BFFFF00
7F906F80
7F400F80
0F400F80
0F400F80
0F401F40
0B802F00
0BD1BD00
03FFF400
00BF9000
ENDCHAR
STARTCHAR uni042D
ENCODING 1069
SWIDTH 755 0
DWIDTH 14 0
BBX 14 16 0 0
BITMAP
006FE000
07FFFD00
0F907F00
0D001F80
00000BC0
00000BC0
000007D0
00FFFFD0
00FFFFC0
00000BC0
14000F80
3D001F40
7D003E00
3E01FC00
1FFFF000
06FE4000
ENDCHAR
STARTCHAR uni042E
ENCODING 1070
SWIDTH 1246 0
DWIDTH 22 0
BBX 23 16 -1 0
BITMAP
02F8002E2E40
0BFE00BF2FD0
2E6F01EB07F0
781F02DE01F8
101F07ED00B8
002F0BF800BC
002E0BE000BC
007FBF8000BC
07FFFF8000BC
03FE5F8000F8
007C0F8001F4
00BC0FC002F0
00F80BD00BD0
00F403F96F80
01F401FFFE00
01E0006FE400
ENDCHAR
STARTCHAR uni042F
ENCODING 1071
SWIDTH 850 0
DWIDTH 15 0
BBX 18 16 0 0
BITMAP
000BFAB000
007FFFF400
00FD06F400
01F402F000
02F002F000
02F003E000
02F007E000
01F90FD000
00BFFFD000
001BFFC000
0000BBC000
0002F7C000
B00BD7C0A0
B86F47E6D0
7FFD03FF80
1FE001F900
ENDCHAR
STARTCHAR uni0430
ENCODING 1072
SWIDTH 470 0
DWIDTH 8 0
BBX 11 9 0 0
BITMAP
01F400
0BFE00
1F6E00
3E2E00
7C3D00
7C3D28
7DBDB8
3FEFE0
1F4B80
ENDCHAR
STARTCHAR uni0431
ENCODING 1073
SWIDTH 473 0
DWIDTH 9 0
BBX 11 18 0 0
BITMAP
000100
006F40
07FE40
0B9000
0B4000
07C000
02F000
00F800
007D00
06FE00
1FFF00
2E3F04
3D2FFC
7C1FF4
7C2E00
3D7C00
2FF800
0BD000
ENDCHAR
STARTCHAR uni0432
ENCODING 1074
SWIDTH 473 0
DWIDTH 9 0
BBX 10 18 1 0
BITMAP
01E000
07F800
0F7800
1E3800
2D7400
3CB400
78E000
B9D000
BB8000
FBE000
FEF800
F8FC50
F4BFF0
F43FD0
F43C00
B8B800
7FF000
1F8000
ENDCHAR
STARTCHAR uni0433
ENCODING 1075
SWIDTH 380 0
DWIDTH 7 0
BBX 9 9 0 0
BITMAP
1BE000
3FF800
14B800
01F000
1B8000
3D01C0
7C1BC0
3FFF00
1BE400
ENDCHAR
STARTCHAR uni0434
ENCODING 1076
SWIDTH 479 0
DWIDTH 9 0
BBX 11 18 0 -9
BITMAP
01F400
0BFE00
1F6E00
3E2E00
7C3D00
7C3D78
7CBEF4
3FFFD0
1FBE00
01F800
07F400
1EF400
3CF000
75E000
B2D000
F7C000
FF4000
7D0000
ENDCHAR
STARTCHAR uni0435
ENCODING 1077
SWIDTH 393 0
DWIDTH 7 0
BBX 10 9 0 0
BITMAP
06E400
1FF800
3E7C00
7C7800
7EF400
7F81D0
3E1BC0
2FFF40
0BF800
ENDCHAR
STARTCHAR uni0436
ENCODING 1078
SWIDTH 717 0
DWIDTH 13 0
BBX 16 9 0 0
BITMAP
0B874B80
1FDB7FD0
1DFF79E0
00BEF1D0
10BFF004
78FFF01D
B9DFB87C
BFCF3FF4
2E0E1B90
ENDCHAR
STARTCHAR uni0437
ENCODING 1079
SWIDTH 435 0
DWIDTH 8 0
BBX 11 18 -1 -9
BITMAP
02FD00
0BFF00
064B00
000B00
002E00
06F818
0F81B8
0BD7E0
01FF40
00F800
07F800
0F7800
2D7800
78B400
B1F000
B6E000
BF8000
2E0000
ENDCHAR
STARTCHAR uni0438
ENCODING 1080
SWIDTH 462 0
DWIDTH 8 0
BBX 10 9 1 0
BITMAP
382800
787800
B4B800
F4F400
F1F400
F2F0A0
FFF6D0
FDFF80
787D00
ENDCHAR
STARTCHAR uni0439
ENCODING 1081
SWIDTH 462 0
DWIDTH 8 0
BBX 10 15 1 0
BITMAP
000500
140E00
3C2D00
3FF800
1BE000
000000
382800
787800
B4B800
F4F400
F1F400
F2F0A0
FFF6D0
FDFF80
787D00
ENDCHAR
STARTCHAR uni043A
ENCODING 1082
SWIDTH 465 0
DWIDTH 8 0
BBX 10 9 1 0
BITMAP
38BD00
BAFF00
BBDF00
FB8E00
FF4000
FF40A0
FFD2D0
F6FF80
B0BD00
ENDCHAR
STARTCHAR uni043B
ENCODING 1083
SWIDTH 549 0
DWIDTH 10 0
BBX 12 9 0 0
BITMAP
001F00
003F40
007F40
00BF40
60FF01
B6EF4B
F7CB5E
BF4BFC
7D03E0
ENDCHAR
STARTCHAR uni043C
ENCODING 1084
SWIDTH 734 0
DWIDTH 13 0
BBX 16 9 0 0
BITMAP
002D1F00
007D3F00
00BD7F00
00FDBB00
61EEEB00
B6DFDF09
F7CFCF6D
BF4B4BF4
7D0707D0
ENDCHAR
STARTCHAR uni043D
ENCODING 1085
SWIDTH 475 0
DWIDTH 9 0
BBX 10 9 1 0
BITMAP
382C00
B83C00
B47800
FFF800
FFF410
F0B4B0
F0F6E0
F0BF80
A07D00
ENDCHAR
STARTCHAR uni043E
ENCODING 1086
SWIDTH 451 0
DWIDTH 8 0
BBX 11 9 0 0
BITMAP
06E400
1FFD00
3E7E10
7C7FF4
7C2FE4
7C1E00
3D7C00
2FF800
0BE000
ENDCHAR
STARTCHAR uni043F
ENCODING 1087
SWIDTH 496 0
DWIDTH 9 0
BBX 11 9 1 0
BITMAP
387C00
B9FD00
B7FC00
FB7C00
FD7810
FC7874
F8B9F0
F4BFD0
B02E40
ENDCHAR
STARTCHAR uni0440
ENCODING 1088
SWIDTH 481 0
DWIDTH 9 0
BBX 13 18 -2 -9
BITMAP
02DB8000
03FFE000
03F5F000
03D1F000
03D1E000
03D2D1C0
0BDBC780
0FFFFF00
1FF9F800
3BD00000
77C00000
B3C00000
A3C00000
E7800000
D7400000
EB000000
FE000000
78000000
ENDCHAR
STARTCHAR uni0441
ENCODING 1089
SWIDTH 368 0
DWIDTH 7 0
BBX 9 9 0 0
BITMAP
06E000
1FF800
3E7800
7C7400
7C0040
7C02C0
7E1B80
2FFE00
0BE400
ENDCHAR
STARTCHAR uni0442
ENCODING 1090
SWIDTH 744 0
DWIDTH 13 0
BBX 15 9 1 0
BITMAP
38782E00
B9FCBE00
B7FEFE00
FB7BAD00
FD7F3D04
FC7E3C28
F8BD3DB4
F4BC3FE0
B0742F40
ENDCHAR
STARTCHAR uni0443
ENCODING 1091
SWIDTH 479 0
DWIDTH 9 0
BBX 11 18 0 -9
BITMAP
0E0A00
1E1E00
2D2E00
3D3D00
3C7D00
3CBD78
3FFEF4
3FBF80
1E7E00
01F800
07F400
1EF000
3CF000
B5E000
E2D000
E7C000
FF4000
7D0000
ENDCHAR
STARTCHAR uni0444
ENCODING 1092
SWIDTH 721 0
DWIDTH 13 0
BBX 16 22 0 -7
BITMAP
0002C000
0007C000
00078000
000B4000
000F4000
000F0000
01FE7D00
0BFFFF00
1F5F4F40
3D2F0F40
7C3E1F00
7C3E2E1D
7CBD7D7C
3FFFFFF4
1F6F9B90
003C0000
003C0000
003C0000
003C0000
003C0000
003C0000
00140000
ENDCHAR
STARTCHAR uni0445
ENCODING 1093
SWIDTH 529 0
DWIDTH 10 0
BBX 12 9 0 0
BITMAP
0B86D0
1FFFE0
1DFDD0
00B800
14B801
78F80A
B9FD2E
BFFFF8
2E1BD0
ENDCHAR
STARTCHAR uni0446
ENCODING 1094
SWIDTH 501 0
DWIDTH 9 0
BBX 10 15 1 -6
BITMAP
382800
787800
B4B800
F4F400
F1F000
F2F010
FFF5E0
FDBFD0
787E00
01F800
0BB800
1D7400
2CF000
2FD000
1F4000
ENDCHAR
STARTCHAR uni0447
ENCODING 1095
SWIDTH 555 0
DWIDTH 10 0
BBX 13 11 0 0
BITMAP
00500000
02F40000
03FFF000
07AFF000
0B47D000
0F2F0000
2D7C0100
78B80740
F0B86F00
80BFFC00
002F9000
ENDCHAR
STARTCHAR uni0448
ENCODING 1096
SWIDTH 693 0
DWIDTH 12 0
BBX 14 9 1 0
BITMAP
38382C00
78783C00
B4B87800
F4F4B800
F1F4F410
F2F6F4A0
FFFFF6E0
FEBEBF80
78787D00
ENDCHAR
STARTCHAR uni0449
ENCODING 1097
SWIDTH 732 0
DWIDTH 13 0
BBX 14 15 1 -6
BITMAP
38382C00
78783C00
B4B87800
F4F4B800
F1F4F400
F2F6F010
FFFFF9B0
FEBEBFD0
78787F40
0001FC00
0007B800
001E7400
002DB000
002FE000
000B8000
ENDCHAR
STARTCHAR uni044A
ENCODING 1098
SWIDTH 542 0
DWIDTH 10 0
BBX 11 9 1 0
BITMAP
FF8000
6F4000
3EF800
7FFD00
BD2E08
B82E2C
7D7EB8
3FFFE0
1BEF80
ENDCHAR
STARTCHAR uni044B
ENCODING 1099
SWIDTH 702 0
DWIDTH 13 0
BBX 14 9 1 0
BITMAP
3C003C00
78007C00
BAF4F800
FFFAF800
FC7FF410
F43FF4B0
F8BDF6E0
7FF4BF80
1F902E00
ENDCHAR
STARTCHAR uni044C
ENCODING 1100
SWIDTH 517 0
DWIDTH 9 0
BBX 11 9 1 0
BITMAP
3C0000
780000
BAF400
FFFC00
FC7D14
F43D38
F8BDB4
7FFFD0
1FEE40
ENDCHAR
STARTCHAR uni044D
ENCODING 1101
SWIDTH 466 0
DWIDTH 8 0
BBX 11 9 0 0
BITMAP
0BF800
2FFE00
041F14
02FFF8
26FFF4
741F00
782E00
3FFC00
1BE400
ENDCHAR
STARTCHAR uni044E
ENCODING 1102
SWIDTH 676 0
DWIDTH 12 0
BBX 14 9 1 0
BITMAP
381BD000
B87FF400
B4F9F800
FFF1FFE0
FFF07FD0
F1F07800
F0F4F400
F0BFE000
A02F8000
ENDCHAR
STARTCHAR uni044F
ENCODING 1103
SWIDTH 543 0
DWIDTH 10 0
BBX 12 9 0 0
BITMAP
01BED0
03FFC0
03C3C0
038780
75FF82
F43B47
F4B75E
BFD7F8
2E42E0
ENDCHAR
STARTCHAR uni0450
ENCODING 1104
SWIDTH 393 0
DWIDTH 7 0
BBX 10 16 0 0
BITMAP
1D0000
1F0000
0F4000
078000
02D000
009000
000000
06E400
1FF800
3E7C00
7C7800
7EF400
7F81D0
3E1BC0
2FFF40
0BF800
ENDCHAR
STARTCHAR uni0451
ENCODING 1105
SWIDTH 393 0
DWIDTH 7 0
BBX 10 13 0 0
BITMAP
0B4E00
0F5F00
0F1E00
000000
06E400
1FF800
3E7C00
7C7800
7EF400
7F81D0
3E1BC0
2FFF40
0BF800
ENDCHAR
STARTCHAR uni0452
ENCODING 1106
SWIDTH 514 0
DWIDTH 9 0
BBX 11 25 0 -9
BITMAP
02D000
07D000
07C000
3FFF00
2FFE00
0F4000
1F0000
1F1B40
2E7F40
2EFF40
2EDF00
3F9F04
3F1F2C
3E1EB8
3E2FE0
2C2F40
007D00
01FC00
07BC00
1E7800
2CB400
78F000
76E000
7FC000
2E4000
ENDCHAR
STARTCHAR uni0453
ENCODING 1107
SWIDTH 380 0
DWIDTH 7 0
BBX 9 16 0 0
BITMAP
002800
007C00
00B800
00F000
01D000
028000
000000
1BE000
3FF800
14B800
01F000
1B8000
3D01C0
7C1BC0
3FFF00
1BE400
ENDCHAR
STARTCHAR uni0454
ENCODING 1108
SWIDTH 379 0
DWIDTH 7 0
BBX 9 9 0 0
BITMAP
06F400
1FFC00
3D2C00
7FD000
7FD080
7C02C0
3E0B80
2FFE00
0BF400
ENDCHAR
STARTCHAR uni0455
ENCODING 1109
SWIDTH 427 0
DWIDTH 8 0
BBX 10 9 0 0
BITMAP
01E000
03D000
07C000
0FE000
1EF410
78BCB0
F6BEE0
9BFFC0
07FE00
ENDCHAR
STARTCHAR uni0456
ENCODING 1110
SWIDTH 246 0
DWIDTH 4 0
BBX 6 13 1 0
BITMAP
2E00
7F00
2D00
0000
7800
B800
B800
F400
F010
F0A0
F6D0
FF80
7E00
ENDCHAR
STARTCHAR uni0457
ENCODING 1111
SWIDTH 246 0
DWIDTH 4 0
BBX 7 13 0 0
BITMAP
B4B0
F9F4
B4F0
0000
1E00
2E00
2E00
3D00
3C04
3C28
3DB4
3FE0
1F80
ENDCHAR
STARTCHAR uni0458
ENCODING 1112
SWIDTH 254 0
DWIDTH 5 0
BBX 11 22 -4 -9
BITMAP
001F40
002F40
001E00
000000
001E00
002E00
002E00
002D00
003D00
003D74
003EF4
007F80
007E00
00F800
07F400
0EF400
3CF000
75E000
E2D000
E7C000
FF4000
7D0000
ENDCHAR
STARTCHAR uni0459
ENCODING 1113
SWIDTH 794 0
DWIDTH 14 0
BBX 17 9 0 0
BITMAP
001F000000
003F400000
007F6F4000
00BFFFC000
70EF87D140
F2DB43D380
F7CB8BDB40
BF47FFFD00
7D02FAE400
ENDCHAR
STARTCHAR uni045A
ENCODING 1114
SWIDTH 751 0
DWIDTH 14 0
BBX 15 9 1 0
BITMAP
382C0000
B83C0000
B479F400
FFFFFD00
FFFD3D04
F0B82D28
F0787DB4
F03FFFE0
A01BEF40
ENDCHAR
STARTCHAR uni045B
ENCODING 1115
SWIDTH 502 0
DWIDTH 9 0
BBX 11 16 1 0
BITMAP
0B4000
1F4000
1F0000
FFFC00
BFF800
3D0000
7C0000
7C6D00
B9FD00
BBFD00
BB7C00
FE7C10
FC7874
F8B9F0
F87FD0
B02E40
ENDCHAR
STARTCHAR uni045C
ENCODING 1116
SWIDTH 465 0
DWIDTH 8 0
BBX 10 16 1 0
BITMAP
001D00
003D00
007C00
00B400
00E000
01C000
000000
38BD00
BAFF00
BBDF00
FB8E00
FF4000
FF40A0
FFD2D0
F6FF80
B0BD00
ENDCHAR
STARTCHAR uni045D
ENCODING 1117
SWIDTH 462 0
DWIDTH 8 0
BBX 10 16 1 0
BITMAP
2C0000
3D0000
1F0000
0B4000
038000
018000
000000
382800
787800
B4B800
F4F400
F1F400
F2F0A0
FFF6D0
FDFF80
787D00
ENDCHAR
STARTCHAR uni045E
ENCODING 1118
SWIDTH 479 0
DWIDTH 9 0
BBX 11 24 0 -9
BITMAP
000140
050380
0F0B40
0FFE00
06F800
000000
0E0A00
1E1E00
2D2E00
3D3D00
3C7D00
3CBD78
3FFEF4
3FBF80
1E7E00
01F800
07F400
1EF000
3CF000
B5E000
E2D000
E7C000
FF4000
7D0000
ENDCHAR
STARTCHAR uni045F
ENCODING 1119
SWIDTH 600 0
DWIDTH 11 0
BBX 10 11 1 -2
BITMAP
382800
787800
B4B800
F4F400
F1F400
F2F0A0
FFF6D0
FDFF80
787D00
780000
340000
ENDCHAR
STARTCHAR uni0462
ENCODING 1122
SWIDTH 721 0
DWIDTH 13 0
BBX 13 16 0 0
BITMAP
01E00000
02F00000
2FFF0000
2FFE0000
07D00000
07EBF800
0BFFFF00
2F906F80
7F400F80
0F400F80
0F400F80
0F401F40
0B802F00
0BD1BD00
03FFF400
00BF9000
ENDCHAR
STARTCHAR uni0463
ENCODING 1123
SWIDTH 517 0
DWIDTH 9 0
BBX 12 13 0 0
BITMAP
014000
0B8000
0F4000
BFF400
7FF400
2E0000
3DBD00
3FFF00
3F1F45
3D0F4E
3E1F6D
1FFFF4
07FB90
ENDCHAR
STARTCHAR uni046A
ENCODING 1130
SWIDTH 1234 0
DWIDTH 22 0
BBX 24 16 0 0
BITMAP
01FFFFFFFFF4
01FFFFFFFFF4
000BC0002F00
0003D0003D00
0002E000BC00
0001E001F800
0000F407E000
00007FFF8000
0001BFFE4000
0007E7DBC000
000FC7D3E000
001F47C2F000
103E07C1F806
78BC0BC0BD1E
7FF40B803FF8
1FD00B401BE0
ENDCHAR
STARTCHAR uni046B
ENCODING 1131
SWIDTH 788 0
DWIDTH 14 0
BBX 17 16 0 0
BITMAP
00002D0000
00007E0000
0000BE0000
0000FD0000
0001ED0000
0002ED0000
0003ED0000
00BBADF000
00FF6FF000
001F2F4000
001F2D0000
102F3D0000
747F7E0340
B9FBEF4B40
BFDBDBFE00
2E4782F400
ENDCHAR
STARTCHAR uni0472
ENCODING 1138
SWIDTH 816 0
DWIDTH 15 0
BBX 14 16 1 0
BITMAP
006FE400
02FFFD00
0BE06F40
1F400F80
2E000BC0
3D0007D0
7EF907D0
BFFFFFD0
BD07FFC0
B8000BC0
BC000F80
BC002F40
7E007E00
2F81FC00
0FFFF000
01BE4000
ENDCHAR
STARTCHAR uni0473
ENCODING 1139
SWIDTH 451 0
DWIDTH 8 0
BBX 11 9 0 0
BITMAP
06F400
1FFC00
3E2D00
7C1E64
7FFFF4
7FFFE0
3D2D00
2FF800
0BE000
ENDCHAR
STARTCHAR uni0474
ENCODING 1140
SWIDTH 797 0
DWIDTH 14 0
BBX 16 16 2 0
BITMAP
2C000BF9
7D000FFE
7D001F55
BC002F00
BC002F00
BC003E00
BC007D00
B800BC00
B800F800
BC01F400
BC02E000
7D07D000
7E0F8000
3FBF0000
1FFD0000
07E00000
ENDCHAR
STARTCHAR uni0475
ENCODING 1141
SWIDTH 420 0
DWIDTH 8 0
BBX 9 9 1 0
BITMAP
F02F80
F07F80
F0B800
F0F000
F6E000
F7D000
FF8000
BF0000
7D0000
ENDCHAR
STARTCHAR uni048A
ENCODING 1162
SWIDTH 890 0
DWIDTH 16 0
BBX 19 26 0 -4
BITMAP
000140D000
0007C2D000
0003FF8000
0001BE0000
0000000000
0000000000
06F4007800
2FFC00BC00
78BC00BC00
E07C00B800
40BC00F800
00B801F800
00F801F400
01F402F400
01F403F000
02F007F000
02E00FE000
03E01EE000
03E07AE074
03F6F2FAF0
02FFD2FFD0
00BE00BF40
0000003E00
000000BC00
000000F400
000000E000
ENDCHAR
STARTCHAR uni048B
ENCODING 1163
SWIDTH 462 0
DWIDTH 8 0
BBX 10 19 1 -4
BITMAP
000500
380E00
3D2D00
2FF800
0BE000
000000
382800
787800
B4B800
F4F400
F1F400
F2F0A0
FFF6D0
FDFF80
787E00
007C00
00F400
01E000
004000
ENDCHAR
STARTCHAR uni048C
ENCODING 1164
SWIDTH 721 0
DWIDTH 13 0
BBX 13 16 0 0
BITMAP
01E00000
02F00000
2FFF0000
2FFE0000
07D00000
07EBF800
0BFFFF00
2F906F80
7F400F80
0F400F80
0F400F80
0F401F40
0B802F00
0BD1BD00
03FFF400
00BF9000
ENDCHAR
STARTCHAR uni048D
ENCODING 1165
SWIDTH 517 0
DWIDTH 9 0
BBX 12 13 0 0
BITMAP
014000
0B8000
0F4000
BFF400
7FF400
2E0000
3DBD00
3FFF00
3F1F45
3D0F4E
3E1F6D
1FFFF4
07FB90
ENDCHAR
STARTCHAR uni048E
ENCODING 1166
SWIDTH 805 0
DWIDTH 14 0
BBX 15 19 1 -3
BITMAP
001BF900
00BFFF40
07E41FD0
0F8007E0
2E0F03E0
3C2F17E0
782F2FE0
B43E0BF4
F43E2FAC
F2FFFE00
F2FFE400
F0BC0000
F0BC0000
F0B80000
F4F80000
B9F40000
3FF00000
1FE00000
01400000
ENDCHAR
STARTCHAR uni048F
ENCODING 1167
SWIDTH 481 0
DWIDTH 9 0
BBX 13 18 -2 -9
BITMAP
02DB8000
03FFE000
03F5F000
03E1F000
03D1E000
03DED180
07DFC780
0FFFFF00
1FF9F800
2BD00000
77C00000
B3C00000
A3C00000
E7800000
D7400000
EB000000
FE000000
78000000
ENDCHAR
STARTCHAR uni0490
ENCODING 1168
SWIDTH 645 0
DWIDTH 12 0
BBX 16 21 0 0
BITMAP
0000000A
0000000F
0000000F
0000001E
0000001E
01AFFFFD
1FFFFFF8
3F5F4000
7C1F0000
782F0000
7C3E0000
143E0000
007D0000
007D0000
00BC0000
00BC0000
00B80000
00F80000
00F80000
01F40000
00F00000
ENDCHAR
STARTCHAR uni0491
ENCODING 1169
SWIDTH 394 0
DWIDTH 7 0
BBX 7 12 1 0
BITMAP
0034
0038
0078
7FF4
BFE0
B400
F400
F000
F000
F000
F000
A000
ENDCHAR
STARTCHAR uni0492
ENCODING 1170
SWIDTH 635 0
DWIDTH 11 0
BBX 16 16 0 0
BITMAP
01AFFFFD
1FFFFFF9
3F6F4000
7C1F0000
782F0000
3C3E0000
143E0000
03FFE000
07FFE000
007C0000
00BC0000
00B80000
00F80000
00F80000
01F40000
00F40000
ENDCHAR
STARTCHAR uni0493
ENCODING 1171
SWIDTH 380 0
DWIDTH 7 0
BBX 9 9 0 0
BITMAP
1BE000
3FF800
14B800
01F400
BFD000
3EE1C0
7C1BC0
3FFF00
1BE400
ENDCHAR
STARTCHAR uni0494
ENCODING 1172
SWIDTH 884 0
DWIDTH 16 0
BBX 18 25 0 -9
BITMAP
01AFFFFD00
0FFFFFF900
3F6F400000
7C1F000000
782F000000
7C3E000000
283E000000
007D2FD000
007DFFF400
00BF91F800
00BE00B800
00BC00F860
00F800FAE0
00F800FFD0
01F401FF40
00F001F800
00000BF000
00002FE000
0000BFE000
0001F7D000
0003D7C000
0003CB8000
00079F0000
0003FD0000
0001F40000
ENDCHAR
STARTCHAR uni0495
ENCODING 1173
SWIDTH 441 0
DWIDTH 8 0
BBX 10 15 0 -6
BITMAP
1BE000
3FF800
14B800
01F000
0B8000
3D0010
7C15E0
7FFFD0
1FFE00
02F800
0BB400
1DB400
2DE000
2FD000
1F4000
ENDCHAR
STARTCHAR uni0496
ENCODING 1174
SWIDTH 1234 0
DWIDTH 22 0
BBX 25 22 0 -6
BITMAP
01BD00B402F800
03FF40F80FFD00
074BC0F41F2D00
0003D1F43D0000
0002E1F47C0000
0002E1F1F80000
0000F6F7E00000
00007FFF800000
0001BFFF400000
0007E7DBD00000
000F87D3E00000
001F47C2F00000
243E0BC0F80100
78BC0BC0BE9B40
7FF40B802FFE00
1FD00B400BF400
000000002FD000
00000000BBD000
00000002E3C000
00000003DB8000
00000003FF4000
00000001F90000
ENDCHAR
STARTCHAR uni0497
ENCODING 1175
SWIDTH 803 0
DWIDTH 14 0
BBX 17 15 0 -6
BITMAP
0B874B8000
1FDB7FD000
1DFF79E000
00BEF1D000
10BFF00000
78FFF00100
B9DFB85B40
BFCF7FFE00
2E0E1FF400
00000BD000
00007BC000
0000E38000
0001DB4000
0001FE0000
0000B80000
ENDCHAR
STARTCHAR uni0498
ENCODING 1176
SWIDTH 725 0
DWIDTH 13 0
BBX 12 22 1 -6
BITMAP
01BF90
0BFFF4
1F81F8
2E00B8
2E00B8
0900F4
0002D0
00BFE0
01F9F8
00007D
74007D
F4007D
F800FC
BD07F4
3FFFD0
0BFF40
00BF40
03DB00
0B4F00
0F6E00
0FFC00
07E400
ENDCHAR
STARTCHAR uni0499
ENCODING 1177
SWIDTH 445 0
DWIDTH 8 0
BBX 10 15 0 -6
BITMAP
0BF400
2FFD00
3D3D00
147C00
03F400
117C60
747EF0
7FFFD0
1FFE00
01F800
0BB400
1DB000
2DE000
2FD000
0F4000
ENDCHAR
STARTCHAR uni049A
ENCODING 1178
SWIDTH 937 0
DWIDTH 17 0
BBX 19 22 0 -6
BITMAP
01BFE002D0
0BFFF807D0
1F42F00FC0
2D03E01F40
2D03D03E00
1E07D0BC00
0407D7F000
002FFF8000
002FFE0000
000B9F8000
000F8BD000
200F43E000
741F42F008
7D3E01FEBC
3FFD00BFF4
0BE4002F80
000001BF00
000007EF00
00000F5E00
00001F3D00
00001FF800
00000BE000
ENDCHAR
STARTCHAR uni049B
ENCODING 1179
SWIDTH 531 0
DWIDTH 10 0
BBX 11 15 1 -6
BITMAP
38BD00
BAFF00
BBCB00
FB8E00
FF4000
FF4010
FF84B4
F7FFE0
B0BF80
00BD00
03FC00
0B3800
0E7400
0FF000
0B8000
ENDCHAR
STARTCHAR uni049C
ENCODING 1180
SWIDTH 937 0
DWIDTH 17 0
BBX 19 16 0 0
BITMAP
01BFE002D0
0BFFF807D0
1F42F00BC0
2D03E01F40
2D03D93E00
1E07DEBC00
0407DFF000
002FFF8000
002FFE0000
000BAF8000
000FAFD000
100F6FE004
741F6AF41C
7D3F15FDB8
3FFD00BFF0
0BE4002F80
ENDCHAR
STARTCHAR uni049D
ENCODING 1181
SWIDTH 485 0
DWIDTH 9 0
BBX 10 9 1 0
BITMAP
387E00
B8FF40
B9D740
FEC600
FF8020
FFC0B0
FFD2E0
FAFF80
A0BE00
ENDCHAR
STARTCHAR uni049E
ENCODING 1182
SWIDTH 937 0
DWIDTH 17 0
BBX 19 16 0 0
BITMAP
01BFE002D0
0BFFF807D0
1F42F00FC0
2D03E01F40
2D3FFD3E00
2E7FFDBC00
0907D7F000
002FFF8000
002FFE0000
000B9F8000
000F8BD000
100F43E004
741F42F41C
7D3E01FDB8
3FFD00BFF0
0BE4002F80
ENDCHAR
STARTCHAR uni049F
ENCODING 1183
SWIDTH 473 0
DWIDTH 9 0
BBX 10 16 1 0
BITMAP
0B4000
1F4000
1F0000
FFFC00
BFF800
3D0000
7C0000
7C7D00
B9FF00
BBDB00
FB8B00
FF8000
FF80A0
FFD2E0
BAFF80
74BE00
ENDCHAR
STARTCHAR uni04A0
ENCODING 1184
SWIDTH 937 0
DWIDTH 17 0
BBX 19 16 0 0
BITMAP
0555A002D0
1FFFF807C0
0BFFE00F80
0003E01F40
0003D03E00
0007D0BC00
0007D7F000
002FFF8000
002FFE0000
000B9F8000
000F8BD000
100F43E004
741F42F41C
7D3E01FDB8
3FFD00BFF0
0BE4002F80
ENDCHAR
STARTCHAR uni04A1
ENCODING 1185
SWIDTH 555 0
DWIDTH 10 0
BBX 12 9 1 0
BITMAP
FF4B80
BF7FE0
0FB9E0
1EF1D0
1FF040
1FF00D
1FF87C
1F7FF4
0E1B90
ENDCHAR
STARTCHAR uni04A2
ENCODING 1186
SWIDTH 907 0
DWIDTH 16 0
BBX 20 23 -1 -6
BITMAP
00000007D0
01B8001FF0
0BFE002EB0
2E2F007C70
781F00B8B0
201F00F4E0
002F01F1D0
002F01FB40
002E02FD00
03FFFFE000
07FFEBE000
007C03E000
00BC03E000
00F802F000
00F402F95E
01F400FFFD
01E0002FE0
0000007F80
000002EB40
00000B8F00
00000F5E00
00000FFD00
000007F400
ENDCHAR
STARTCHAR uni04A3
ENCODING 1187
SWIDTH 515 0
DWIDTH 9 0
BBX 10 15 1 -6
BITMAP
382C00
B83C00
B47800
FFF800
FFF400
F0F420
F0B9F0
F0BFD0
A03E00
01FC00
07B800
0E7400
1DB000
1FE000
0B8000
ENDCHAR
STARTCHAR uni04A4
ENCODING 1188
SWIDTH 873 0
DWIDTH 16 0
BBX 21 17 -1 0
BITMAP
00000007FE40
01B8001FFFC0
0BFE002E0540
2E2F007C0000
781F00B80000
201F00F40000
002F01F00000
002F01F00000
002E02E00000
03FFFFE00000
07FFEBE00000
007C03E00000
00BC03E00000
00F802E01C00
00F401F47C00
01F400FFF000
01E0002F8000
ENDCHAR
STARTCHAR uni04A5
ENCODING 1189
SWIDTH 475 0
DWIDTH 9 0
BBX 10 10 1 0
BITMAP
000140
382F80
B83D00
B47800
FFF800
FFF410
F0B4B0
F0F6E0
F0BF80
A07D00
ENDCHAR
STARTCHAR uni04A8
ENCODING 1192
SWIDTH 997 0
DWIDTH 18 0
BBX 19 16 1 0
BITMAP
006E000000
02FF1BE400
0BE47FFE00
1F81FD6F40
2F03F00F80
7D07D00BC0
7C0BC00BC0
BC0BC00BC0
BC0BC00BC0
BC0BC00F80
BC07D01F40
BD03E07E00
7E02F5FC18
2FD5FFF6FC
0BFFFFFFF4
01BFEAFE40
ENDCHAR
STARTCHAR uni04A9
ENCODING 1193
SWIDTH 574 0
DWIDTH 10 0
BBX 13 9 0 0
BITMAP
06D00000
1FDB8000
3E2FE000
7C78F000
7C74E000
7C75E280
3D7BDF40
2FFFFD00
0BEBE400
ENDCHAR
STARTCHAR uni04AA
ENCODING 1194
SWIDTH 781 0
DWIDTH 14 0
BBX 15 25 1 -9
BITMAP
006FE000
01FFFC00
07E47D00
1F802E00
2F003E00
7D003D00
7C001400
BC000000
BC000000
B8000000
BC000000
BC000000
7E000E1C
2F80BEB8
0BFFFFE0
01BFBF40
0000BD00
0002FC00
000BB800
001DB400
0038B000
0075E000
00B6D000
007F8000
002E0000
ENDCHAR
STARTCHAR uni04AB
ENCODING 1195
SWIDTH 431 0
DWIDTH 8 0
BBX 10 15 0 -6
BITMAP
06E000
1FF800
2E7800
7C7400
7C0000
7C0050
7D15E0
2FFFD0
0BFE00
02F800
0BB400
2DB000
39E000
3FC000
1E4000
ENDCHAR
STARTCHAR uni04AC
ENCODING 1196
SWIDTH 697 0
DWIDTH 13 0
BBX 16 22 0 -6
BITMAP
01AFFFFE
0BFFFFFF
3E42F000
7C03E000
7C03E000
3C07D000
1407C000
000BC000
000B8000
000F8000
000F8000
001F4000
001F4000
002F4000
002FE000
001FE000
006FD000
01F6D000
02E3C000
03DB8000
03FF0000
01F90000
ENDCHAR
STARTCHAR uni04AD
ENCODING 1197
SWIDTH 784 0
DWIDTH 14 0
BBX 15 15 1 -6
BITMAP
38782E00
B9FCBE00
B7FEFE00
FB7BAD00
FD7F3D00
FC7E3C04
F8BD3D7C
F4BC3FF4
B0741FD0
00007F00
0001EE00
00079D00
000B7C00
000BF400
0003D000
ENDCHAR
STARTCHAR uni04AE
ENCODING 1198
SWIDTH 677 0
DWIDTH 12 0
BBX 12 16 2 0
BITMAP
78002D
7D00BC
3E01F4
2F03E0
1F47D0
0FCF80
07EF00
03FD00
02F800
01F400
01F000
01F000
01F000
01F000
01F000
01E000
ENDCHAR
STARTCHAR uni04AF
ENCODING 1199
SWIDTH 472 0
DWIDTH 9 0
BBX 10 16 1 -7
BITMAP
A02C00
F0BD00
F4FD00
B4FC50
B4BFF0
B8FFD0
7AD000
7F8000
7F0000
7D0000
3C0000
3D0000
3D0000
3D0000
3D0000
140000
ENDCHAR
STARTCHAR uni04B0
ENCODING 1200
SWIDTH 677 0
DWIDTH 12 0
BBX 12 16 2 0
BITMAP
78002D
7D00BC
3E01F4
2F03E0
1F8BC0
0BDF40
07FE00
03FD00
02F800
1FFF40
1FFF40
01F000
01F000
01F000
01F000
01E000
ENDCHAR
STARTCHAR uni04B1
ENCODING 1201
SWIDTH 472 0
DWIDTH 9 0
BBX 11 16 0 -7
BITMAP
2C0B00
3C2F40
3D3F40
2D3F14
2D2FFC
2E3FF4
1EB400
1FE000
1FC000
BFF400
7FF400
0F4000
0F4000
0F4000
0F4000
050000
ENDCHAR
STARTCHAR uni04B2
ENCODING 1202
SWIDTH 716 0
DWIDTH 13 0
BBX 15 22 0 -6
BITMAP
0BE001E0
3FF807E0
B4BD1F80
903E3F00
002FBC00
001FF400
000FD000
001F8000
003FC000
00FFD000
02F7E000
0BD2F000
1F81F404
7E00FA6C
FC00BFF4
F4002F80
0000BF00
0007EF00
000F5E00
001F3D00
001FF800
000BE000
ENDCHAR
STARTCHAR uni04B3
ENCODING 1203
SWIDTH 601 0
DWIDTH 11 0
BBX 13 15 0 -6
BITMAP
0B86D000
1FFFE000
1DFDD000
00B80000
10B80000
78F80040
B9FC1780
BFFFFF40
2E6FF800
0007E000
002ED000
0076C000
00F78000
00FF4000
00790000
ENDCHAR
STARTCHAR uni04B4
ENCODING 1204
SWIDTH 1040 0
DWIDTH 19 0
BBX 21 22 0 -6
BITMAP
01AFFF91D000
0BFFFFD2E000
2E41F403E000
7C02F003E000
7803E007D000
7C03D007D000
2807D00BC000
000BC00FC000
000BC01F8000
000F802F8000
000F403F8000
001F40AF4000
001F41DF4000
001F878FE2C0
000FFF0BFF80
0006F801FD00
0000001BF000
0000007EE000
000001F6E000
000002E7D000
000001FF8000
000000BE0000
ENDCHAR
STARTCHAR uni04B5
ENCODING 1205
SWIDTH 501 0
DWIDTH 9 0
BBX 10 19 1 -6
BITMAP
0FFD00
1FFD00
000000
000000
382800
787800
B4B800
F4F400
F1F000
F2F010
FFF5E0
FDBFD0
787E00
01F800
0BB800
1D7400
2CF000
2FD000
1F4000
ENDCHAR
STARTCHAR uni04B6
ENCODING 1206
SWIDTH 804 0
DWIDTH 14 0
BBX 15 22 2 -6
BITMAP
2C002C00
7D007D00
7D007D00
7D007C00
7C00BC00
BC00FC00
F801F800
F803F800
FD1FF400
BFFDF400
2FF8F400
0541F000
0001F404
0001FF78
0000BFF4
00002F80
0001FE00
000BED00
001F2D00
002E7C00
002FF400
001BD000
ENDCHAR
STARTCHAR uni04B7
ENCODING 1207
SWIDTH 631 0
DWIDTH 11 0
BBX 14 17 0 -6
BITMAP
00500000
02F40000
03FFF000
07AFF000
0B47D000
0F2F0000
2D7C0000
78B80040
F0B816D0
90BFFF80
002FFD00
0007F000
001EE000
0038E000
0076D000
007F8000
002E0000
ENDCHAR
STARTCHAR uni04B8
ENCODING 1208
SWIDTH 773 0
DWIDTH 14 0
BBX 12 16 2 0
BITMAP
2C002C
7D003D
7D007D
7D007C
7D00BC
BCB0FC
B8B1F8
F8A2F8
F8E7F4
BEFEF4
7FFCF4
1BE1F0
01C1F0
0182F0
0002E0
0001D0
ENDCHAR
STARTCHAR uni04B9
ENCODING 1209
SWIDTH 575 0
DWIDTH 10 0
BBX 13 11 0 0
BITMAP
00060000
01EA0000
02FEB400
03BFF400
0777D000
0F0F4000
2D2D0040
787C0380
F07D6F40
807FFD00
001FE400
ENDCHAR
STARTCHAR uni04BA
ENCODING 1210
SWIDTH 755 0
DWIDTH 14 0
BBX 15 16 1 0
BITMAP
07800000
0B800000
0F800000
0F800000
0F400000
1F400000
1F000000
2F1BE400
2EBFFC00
3FE4BD00
3F407D00
7E007D00
7D007C1C
7C00BC78
BC00BFE0
78002F40
ENDCHAR
STARTCHAR uni04BB
ENCODING 1211
SWIDTH 502 0
DWIDTH 9 0
BBX 11 18 1 0
BITMAP
01E000
07F800
0F7800
1E3800
2D7400
3C7400
7CE000
79D000
BB8000
BE6D00
FDFD00
F7FD00
FB7C00
FE7C10
FC7874
F8B9F0
F87FD0
A02E40
ENDCHAR
STARTCHAR uni04BC
ENCODING 1212
SWIDTH 808 0
DWIDTH 15 0
BBX 16 16 1 0
BITMAP
0002FE00
001FFFC0
007E47D0
00F802E0
02F002E0
03E002E0
F7D003E0
FFFFFFD0
7FFFFF80
0BC00000
0BC00000
07D00000
03F00005
01FD016E
007FFFFD
000AFE90
ENDCHAR
STARTCHAR uni04BD
ENCODING 1213
SWIDTH 483 0
DWIDTH 9 0
BBX 11 9 0 0
BITMAP
007E00
02FF40
07D780
0B8B40
BBAE04
7FF42C
0BD1B8
03FFE0
00BE40
ENDCHAR
STARTCHAR uni04BE
ENCODING 1214
SWIDTH 808 0
DWIDTH 15 0
BBX 16 21 1 -5
BITMAP
0002FE00
001FFFC0
007E47D0
00F802E0
02F002E0
03E002E0
F7D003E0
FFFFFFD0
7FFFFF80
0BC00000
0BC00000
07D00000
03F00005
01FD016E
007FFFFD
001FFE90
002D0000
00380000
007C0000
003FE000
001BD000
ENDCHAR
STARTCHAR uni04BF
ENCODING 1215
SWIDTH 483 0
DWIDTH 9 0
BBX 11 14 0 -5
BITMAP
007E00
02FF40
07DB80
0B8B40
ABAF00
BFF81C
1BD07C
07FBF4
01FF80
003C00
007400
00B400
007EC0
002F80
ENDCHAR
STARTCHAR uni04C0
ENCODING 1216
SWIDTH 495 0
DWIDTH 9 0
BBX 11 16 -1 0
BITMAP
02FFF8
03FFF8
002F00
002E00
003E00
003E00
003D00
007D00
007C00
00BC00
00B800
00F800
00F400
01F400
2FFF80
7FFF80
ENDCHAR
STARTCHAR uni04C1
ENCODING 1217
SWIDTH 1234 0
DWIDTH 22 0
BBX 24 21 0 0
BITMAP
00000100D000
00000782D000
000007FF8000
000001FE0000
000000000000
01BD00B402F8
03FF40F80FFD
074BC0F41F2D
0007D1F43D00
0002E1F47C00
0002E1F1F800
0000F6F7E000
00007FFF8000
0001BFFE4000
0007E7DBC000
000FC7D3E000
001F47C2F000
103E07C1F806
78BC0BC0BD1E
7FF40B803FF8
1FD00B401BE0
ENDCHAR
STARTCHAR uni04C2
ENCODING 1218
SWIDTH 717 0
DWIDTH 13 0
BBX 16 15 0 0
BITMAP
00000400
00101C00
00B87C00
007FF400
001F9000
00000000
0B874B80
1FDB7FD0
1DFF79E0
00BEF1D0
10BFF004
78FFF01D
B9DFB87C
BFCF3FF4
2E0E1B90
ENDCHAR
STARTCHAR uni04C3
ENCODING 1219
SWIDTH 937 0
DWIDTH 17 0
BBX 19 22 0 -6
BITMAP
01BFE002D0
0BFFF807D0
1F42F00FC0
2D03E01F40
2D03D03E00
1E07D0BC00
0407D7F000
002FFF8000
002FFE0000
000B9F8000
000F8BD000
200F43E000
741F42F008
7D3E01FEBC
3FFD00BFF4
0BE4002F80
000001BF00
000007EF00
00000F5E00
00001F3D00
00001FF800
00000BE000
ENDCHAR
STARTCHAR uni04C4
ENCODING 1220
SWIDTH 531 0
DWIDTH 10 0
BBX 11 15 1 -6
BITMAP
38BD00
BAFF00
BBCB00
FB8E00
FF4000
FF4010
FF84B4
F7FFE0
B0BF80
00BD00
03FC00
0B3800
0E7400
0FF000
0B8000
ENDCHAR
STARTCHAR uni04C5
ENCODING 1221
SWIDTH 861 0
DWIDTH 16 0
BBX 18 20 0 -4
BITMAP
00000B8000
00001FC000
00002F8000
00003F8000
00007F8000
0000BF8000
0000FF8000
0001FB8000
0002EB8000
0003DB8000
0007CB8000
100F4BC010
B02F07C0A0
B87D03E6E0
7FF802FF80
1BD000BE00
0000007C00
000000F400
000002E000
000002D000
ENDCHAR
STARTCHAR uni04C6
ENCODING 1222
SWIDTH 549 0
DWIDTH 10 0
BBX 12 12 0 -3
BITMAP
001F00
003F40
007F40
00BF40
60FF01
B6EF47
F7CB5E
BF4BF8
7D07F0
0003C0
000B40
000E00
ENDCHAR
STARTCHAR uni04C7
ENCODING 1223
SWIDTH 907 0
DWIDTH 16 0
BBX 20 23 -1 -6
BITMAP
00000007D0
01B8001FF0
0BFE002EB0
2E2F007C70
781F00B8B0
201F00F4E0
002F01F1D0
002F01FB40
002E02FD00
03FFFFE000
07FFEBE000
007C03E000
00BC03E000
00F802F000
00F402F95E
01F400FFFD
01E0002FE0
0000007F80
000002EB40
00000B8F00
00000F5E00
00000FFD00
000007F400
ENDCHAR
STARTCHAR uni04C8
ENCODING 1224
SWIDTH 515 0
DWIDTH 9 0
BBX 10 15 1 -6
BITMAP
382C00
B83C00
B47800
FFF800
FFF400
F0F420
F0B9F0
F0BFD0
A03E00
01FC00
07B800
0E7400
1DB000
1FE000
0B8000
ENDCHAR
STARTCHAR uni04C9
ENCODING 1225
SWIDTH 873 0
DWIDTH 16 0
BBX 19 21 -1 -4
BITMAP
00000007D0
01B8001FF0
0BFE002EB0
2E2F007C70
781F00B8B0
201F00F4E0
002F01F1D0
002F01FB40
002E02FD00
03FFFFE000
07FFEBE000
007C03E000
00BC03E000
00F802E01C
00F401F97C
01F400FFF0
01E0002FD0
0000001F40
0000002E00
0000007C00
0000007400
ENDCHAR
STARTCHAR uni04CA
ENCODING 1226
SWIDTH 475 0
DWIDTH 9 0
BBX 10 13 1 -4
BITMAP
382C00
B83C00
B47800
FFF800
FFF410
F0B4B0
F0FAD0
F0BF80
A07E00
003C00
00B400
00F000
004000
ENDCHAR
STARTCHAR uni04CB
ENCODING 1227
SWIDTH 773 0
DWIDTH 14 0
BBX 12 22 2 -6
BITMAP
2C002C
7D007D
7D007D
7D007C
7C00BC
BC00FC
F801F8
F803F8
FD1FF4
BFFDF4
2FF8F4
0541F0
0001F0
0002F0
000FE0
002FD0
01FE00
0B9E00
1F2D00
2E7C00
2FF800
0BE000
ENDCHAR
STARTCHAR uni04CC
ENCODING 1228
SWIDTH 555 0
DWIDTH 10 0
BBX 13 13 0 -2
BITMAP
00500000
02F40000
03FFF000
07AFF000
0B47D000
0F2F0000
2D7C0100
78B80740
F0B86F00
80BFFC00
002FF000
0000F000
00009000
ENDCHAR
STARTCHAR uni04CD
ENCODING 1229
SWIDTH 1133 0
DWIDTH 20 0
BBX 23 20 0 -4
BITMAP
0000B801E000
0001FC03F400
0001FC07F000
0002FC0FF000
0003FC1FF000
0003FC2EF000
0007BC3EE000
0007BC7AE000
000B7CB6E000
000F7DF2E000
001F2EE2E000
002E2FD2F000
B03D2FC1F028
B8B81F80F8B8
7FF41F40BFE0
1F900B002F80
000000002F00
000000007D00
00000000B800
00000000B000
ENDCHAR
STARTCHAR uni04CE
ENCODING 1230
SWIDTH 734 0
DWIDTH 13 0
BBX 16 12 0 -3
BITMAP
002D1F00
007D3F00
00BD7F00
00FDBB00
61EEEB00
B6DFDF09
F7CFCF6D
BF4B4BF4
7D0707D0
00000780
00001F00
00001D00
ENDCHAR
STARTCHAR uni04CF
ENCODING 1231
SWIDTH 222 0
DWIDTH 4 0
BBX 5 16 0 0
BITMAP
0140
07C0
0780
0B80
0F40
0F40
1F00
1F00
2E00
2E00
2D00
3D00
3D00
7C00
7C00
7800
ENDCHAR
STARTCHAR uni04D0
ENCODING 1232
SWIDTH 786 0
DWIDTH 14 0
BBX 16 21 1 0
BITMAP
000140A0
0003C1E0
0003FFC0
0001BE00
00000000
0006FF90
007FFFF0
02FE5590
0BE00A00
1F801F00
3F002F00
7D003E00
BC003D00
BC007D00
F800BC00
F800FC00
F801FC00
BC03FC0D
7E5FBD7D
2FFD7FF4
0BE41F90
ENDCHAR
STARTCHAR uni04D1
ENCODING 1233
SWIDTH 470 0
DWIDTH 8 0
BBX 11 15 0 0
BITMAP
000040
0502C0
0F4780
0BFF00
02F800
000000
01F400
0BFE00
1F6E00
3E2E00
7C3D00
7C3D28
7DBDB8
3FEFE0
1F4B80
ENDCHAR
STARTCHAR uni04D2
ENCODING 1234
SWIDTH 786 0
DWIDTH 14 0
BBX 16 20 1 0
BITMAP
0002D3C0
0007D7D0
0003C780
00000000
0006FF90
007FFFF0
02FE5590
0BE00A00
1F801F00
3F002F00
7D003E00
BC003D00
BC007D00
F800BC00
F800FC00
F801FC00
BC03FC0D
7E5FBD7D
2FFD7FF4
0BE41F90
ENDCHAR
STARTCHAR uni04D3
ENCODING 1235
SWIDTH 470 0
DWIDTH 8 0
BBX 11 13 0 0
BITMAP
03C780
07CBC0
078780
000000
01F400
0BFE00
1F6E00
3E2E00
7C3D00
7C3D28
7DBDB8
3FEFE0
1F4B80
ENDCHAR
STARTCHAR uni04D4
ENCODING 1236
SWIDTH 1015 0
DWIDTH 18 0
BBX 20 16 1 0
BITMAP
000BD2FFF4
00BFE7FFF4
02FE4B8000
0BE00F4000
1F801F4000
3F002F0000
7D002F0000
BC003FFFC0
BC007FFFC0
F800BD0000
F800FD0000
F801FD0000
BC03FE0004
7E1B6F917D
2FFE0FFFF8
07F802BF90
ENDCHAR
STARTCHAR uni04D5
ENCODING 1237
SWIDTH 653 0
DWIDTH 12 0
BBX 14 9 0 0
BITMAP
01B9F800
0BFFFD00
1F5F5E00
3D2E2D00
7C2EB810
7C3FD0B0
7DBF46E0
3FEFFF80
1B82F900
ENDCHAR
STARTCHAR uni04D6
ENCODING 1238
SWIDTH 686 0
DWIDTH 12 0
BBX 15 21 0 0
BITMAP
00040340
001E0B40
001FFE00
0007F800
00000000
002BF900
01FFFF40
07F41F80
0BD00B80
0BC00B80
07E40500
01FF8000
06FF4000
1FD00000
3E000000
7D000000
7D000000
7E000014
3F9016F8
0FFFFFE0
01BFF940
ENDCHAR
STARTCHAR uni04D7
ENCODING 1239
SWIDTH 393 0
DWIDTH 7 0
BBX 10 15 0 0
BITMAP
000100
040700
2E1F00
1FFD00
0BE400
000000
06E400
1FF800
3E7C00
7C7800
7EF400
7F81D0
3E1BC0
2FFF40
0BF800
ENDCHAR
STARTCHAR uni04D8
ENCODING 1240
SWIDTH 792 0
DWIDTH 14 0
BBX 13 16 1 0
BITMAP
01BF9000
0BFFFC00
1F90BE00
18001F40
00000F80
00000B80
00000BC0
7FFFFF80
FFFFFF80
F8001F80
B8002F40
BC003F00
7D00BD00
2F42F800
0FFFE000
02FE4000
ENDCHAR
STARTCHAR uni04D9
ENCODING 1241
SWIDTH 455 0
DWIDTH 8 0
BBX 11 9 0 0
BITMAP
1BE400
2FFD00
042E10
3FFFF8
7FFFF4
B41E00
787D00
7FFC00
1BE000
ENDCHAR
STARTCHAR uni04DA
ENCODING 1242
SWIDTH 792 0
DWIDTH 14 0
BBX 13 20 1 0
BITMAP
0078B400
00B8F800
00B4B400
00000000
01BF9000
0BFFFC00
1F90BE00
18001F40
00000F80
00000B80
00000BC0
7FFFFF80
FFFFFF80
F8001F80
B8002F40
BC003F00
7D00BD00
2F42F800
0FFFE000
02FE4000
ENDCHAR
STARTCHAR uni04DB
ENCODING 1243
SWIDTH 455 0
DWIDTH 8 0
BBX 11 13 0 0
BITMAP
0B1E00
1F5F00
0F1E00
000000
1BE400
2FFD00
042E10
3FFFF8
7FFFF4
B41E00
787D00
7FFC00
1BE000
ENDCHAR
STARTCHAR uni04DC
ENCODING 1244
SWIDTH 1234 0
DWIDTH 22 0
BBX 24 20 0 0
BITMAP
000007878000
00000BCBC000
000007874000
000000000000
01BD00B402F8
03FF40F80FFD
074BC0F41F2D
0007D1F43D00
0002E1F47C00
0002E1F1F800
0000F6F7E000
00007FFF8000
0001BFFE4000
0007E7DBC000
000FC7D3E000
001F47C2F000
103E07C1F806
78BC0BC0BD1E
7FF40B803FF8
1FD00B401BE0
ENDCHAR
STARTCHAR uni04DD
ENCODING 1245
SWIDTH 717 0
DWIDTH 13 0
BBX 16 13 0 0
BITMAP
002D3C00
003D7C00
003C7800
00000000
0B874B80
1FDB7FD0
1DFF79E0
00BEF1D0
10BFF004
78FFF01D
B9DFB87C
BFCF3FF4
2E0E1B90
ENDCHAR
STARTCHAR uni04DE
ENCODING 1246
SWIDTH 725 0
DWIDTH 13 0
BBX 12 20 1 0
BITMAP
0078B4
00F8F8
00B4B4
000000
01BF90
0BFFF4
1F81F8
2E00B8
2E00B8
0900F4
0002D0
00BFE0
01F9F8
00007D
74007D
F4007D
F800FC
BD07F4
3FFFD0
0BFA00
ENDCHAR
STARTCHAR uni04DF
ENCODING 1247
SWIDTH 435 0
DWIDTH 8 0
BBX 11 22 -1 -9
BITMAP
078B40
0B8F80
0B4B40
000000
02FD00
0BFF00
064B00
000B00
002E00
06F818
0F81B8
0BD7E0
01FF40
00F800
07F800
0F7800
2D7800
78B400
B1F000
B6E000
BF8000
2E0000
ENDCHAR
STARTCHAR uni04E0
ENCODING 1248
SWIDTH 744 0
DWIDTH 13 0
BBX 13 16 1 0
BITMAP
01BFE900
0BFFFF80
1F407F40
2E007D00
1E00BC00
0901F400
0007D000
00BFE000
01F9F800
00007D00
74007D00
F4007D00
F800FC00
BD07F400
3FFFD000
0BFA0000
ENDCHAR
STARTCHAR uni04E1
ENCODING 1249
SWIDTH 435 0
DWIDTH 8 0
BBX 11 18 -1 -9
BITMAP
0FFFD0
0FFFD0
002F80
01F800
03D004
0B8078
0F42F4
0BEBD0
01FE00
01F800
07F800
1F7800
2C7800
78B400
B1F000
B6D000
BF8000
2E0000
ENDCHAR
STARTCHAR uni04E2
ENCODING 1250
SWIDTH 890 0
DWIDTH 16 0
BBX 19 19 0 0
BITMAP
0003FF4000
0003FF4000
0000000000
06F4007800
2FFC00BC00
79BC00BC00
E07C00B800
40BC00F800
00B801F800
00F801F400
01F402F400
01F403F000
02F007F000
02E00FE000
03E01EE000
03E07AE074
03F6F2FAF0
02FFD2FFD0
00BE00BE40
ENDCHAR
STARTCHAR uni04E3
ENCODING 1251
SWIDTH 462 0
DWIDTH 8 0
BBX 10 12 1 0
BITMAP
1FFC00
1FFC00
000000
382800
787800
B4B800
F4F400
F1F400
F2F0A0
FFF6D0
FDFF80
787D00
ENDCHAR
STARTCHAR uni04E4
ENCODING 1252
SWIDTH 890 0
DWIDTH 16 0
BBX 19 20 0 0
BITMAP
0003C78000
0007DBC000
0003878000
0000000000
06F4007800
2FFC00BC00
79BC00BC00
E07C00B800
40BC00F800
00B801F800
00F801F400
01F402F400
01F403F000
02F007F000
02E00FE000
03E01EE000
03E07AE074
03F6F2FAF0
02FFD2FFD0
00BE00BE40
ENDCHAR
STARTCHAR uni04E5
ENCODING 1253
SWIDTH 462 0
DWIDTH 8 0
BBX 10 13 1 0
BITMAP
1E2D00
2F3E00
1E2D00
000000
382800
787800
B4B800
F4F400
F1F400
F2F0A0
FFF6D0
FDFF80
787D00
ENDCHAR
STARTCHAR uni04E6
ENCODING 1254
SWIDTH 816 0
DWIDTH 15 0
BBX 14 20 1 0
BITMAP
002D3C00
007D7D00
003C7800
00000000
006FE400
02FFFD00
0BE47F40
1F800F80
2F000BC0
3D0007D0
7C0007D0
BC0007D0
BC0007C0
B8000BC0
BC000F80
BC001F40
7E003E00
2F81FC00
0FFFF000
01BE4000
ENDCHAR
STARTCHAR uni04E7
ENCODING 1255
SWIDTH 451 0
DWIDTH 8 0
BBX 11 13 0 0
BITMAP
0B1E00
1F5F00
0F1E00
000000
06E400
1FFD00
3E7E10
7C7FF4
7C2FE4
7C1E00
3D7C00
2FF800
0BE000
ENDCHAR
STARTCHAR uni04E8
ENCODING 1256
SWIDTH 816 0
DWIDTH 15 0
BBX 14 16 1 0
BITMAP
006FE400
02FFFD00
0BE46F40
1F800F80
2F000BC0
3D0007D0
7C0007D0
BFFFFFD0
BFFFFFC0
B8000BC0
BC000F80
BC001F40
7E003E00
2F41FC00
0FFFF000
01BE4000
ENDCHAR
STARTCHAR uni04E9
ENCODING 1257
SWIDTH 451 0
DWIDTH 8 0
BBX 11 9 0 0
BITMAP
06F400
1FFD00
3D2E10
7FFFF4
7FFFE4
7C2D00
3D7C00
2FF800
0BE000
ENDCHAR
STARTCHAR uni04EA
ENCODING 1258
SWIDTH 816 0
DWIDTH 15 0
BBX 14 20 1 0
BITMAP
002D3C00
007D7D00
003C7800
00000000
006FE400
02FFFD00
0BE46F40
1F800F80
2F000BC0
3D0007D0
7C0007D0
BFFFFFD0
BFFFFFC0
B8000BC0
BC000F80
BC001F40
7E003E00
2F41FC00
0FFFF000
01BE4000
ENDCHAR
STARTCHAR uni04EB
ENCODING 1259
SWIDTH 451 0
DWIDTH 8 0
BBX 11 13 0 0
BITMAP
0B1E00
1F6F00
0F1E00
000000
06F400
1FFD00
3D2E10
7FFFF4
7FFFE4
7C2D00
3D7C00
2FF800
0BE000
ENDCHAR
STARTCHAR uni04EC
ENCODING 1260
SWIDTH 755 0
DWIDTH 14 0
BBX 14 20 0 0
BITMAP
002D2D00
003E3D00
002D2D00
00000000
006FE000
07FFFD00
0F907F00
0D001F80
00000BC0
00000BC0
000007D0
00FFFFD0
00FFFFC0
00000BC0
14000F80
3D001F40
7D003E00
3E01FC00
1FFFF000
06FE4000
ENDCHAR
STARTCHAR uni04ED
ENCODING 1261
SWIDTH 466 0
DWIDTH 8 0
BBX 11 13 0 0
BITMAP
0B4B00
0F9F40
0B4F00
000000
0BF800
2FFE00
041F14
02FFF8
26FFF4
741F00
782E00
3FFC00
1BE400
ENDCHAR
STARTCHAR uni04EE
ENCODING 1262
SWIDTH 824 0
DWIDTH 15 0
BBX 17 24 0 -5
BITMAP
0007FF4000
0007FF4000
0000000000
06E4007800
2FF800BC00
78BC00BC00
10BC00F800
00B801F800
00F802F400
01F407F400
01F40FF000
01F47EF000
00FFF6E000
006F82E680
000003FFC0
00006FFA40
0002FFC000
000FEBC000
003F478000
007C0B4000
00B40F0000
00B87E0000
007FF80000
001FD00000
ENDCHAR
STARTCHAR uni04EF
ENCODING 1263
SWIDTH 479 0
DWIDTH 9 0
BBX 11 21 0 -9
BITMAP
07FF00
07FF00
000000
0E0A00
1E1E00
2D2E00
3D3D00
3C7D00
3CBD78
3FFEF4
3FBF80
1E7E00
01F800
07F400
1EF000
3CF000
B5E000
E2D000
E7C000
FF4000
7D0000
ENDCHAR
STARTCHAR uni04F0
ENCODING 1264
SWIDTH 824 0
DWIDTH 15 0
BBX 17 25 0 -5
BITMAP
0007878000
000BCBC000
00078B4000
0000000000
06E4007800
2FF800BC00
78BC00BC00
10BC00F800
00B801F800
00F802F400
01F407F400
01F40FF000
01F47EF000
00FFF6E000
006F82E680
000003FFC0
00006FFA40
0002FFC000
000FEBC000
003F478000
007C0B4000
00B40F0000
00B87E0000
007FF80000
001FD00000
ENDCHAR
STARTCHAR uni04F1
ENCODING 1265
SWIDTH 479 0
DWIDTH 9 0
BBX 11 22 0 -9
BITMAP
078B40
0BCF80
078B40
000000
0E0A00
1E1E00
2D2E00
3D3D00
3C7D00
3CBD78
3FFEF4
3FBF80
1E7E00
01F800
07F400
1EF000
3CF000
B5E000
E2D000
E7C000
FF4000
7D0000
ENDCHAR
STARTCHAR uni04F2
ENCODING 1266
SWIDTH 824 0
DWIDTH 15 0
BBX 17 27 0 -5
BITMAP
0000514000
0000F3D000
0001E3C000
0002D74000
0002860000
0000000000
06E4007800
2FF800BC00
78BC00BC00
10BC00F800
00B801F800
00F802F400
01F407F400
01F40FF000
01F47EF000
00FFF6E000
006F82E680
000003FFC0
00006FFA40
0002FFC000
000FEBC000
003F478000
007C0B4000
00B40F0000
00B87E0000
007FF80000
001FD00000
ENDCHAR
STARTCHAR uni04F3
ENCODING 1267
SWIDTH 479 0
DWIDTH 9 0
BBX 11 25 0 -9
BITMAP
0075D0
00F6E0
01F3D0
01D780
02C740
024A00
000000
0E0A00
1E1E00
2D2E00
3D3D00
3C7D00
3CBD78
3FFEF4
3FBF80
1E7E00
01F800
07F400
1EF000
3CF000
B5E000
E2D000
E7C000
FF4000
7D0000
ENDCHAR
STARTCHAR uni04F4
ENCODING 1268
SWIDTH 773 0
DWIDTH 14 0
BBX 12 20 2 0
BITMAP
01E2D0
03E3E0
02D2D0
000000
2C002C
7D007D
7D007D
7D007C
7C00BC
BC00FC
F801F8
F803F8
FD1FF4
BFFDF4
2FF8F4
0541F0
0001F0
0002F0
0002E0
0001D0
ENDCHAR
STARTCHAR uni04F5
ENCODING 1269
SWIDTH 555 0
DWIDTH 10 0
BBX 13 13 0 0
BITMAP
002C3800
007D7C00
007C7800
02F40000
03FFF000
07AFF000
0B47D000
0F2F0000
2D7C0100
78B80740
F0B86F00
80BFFC00
002F9000
ENDCHAR
STARTCHAR uni04F6
ENCODING 1270
SWIDTH 600 0
DWIDTH 11 0
BBX 16 23 0 -7
BITMAP
01AFFFFD
0FFFFFF9
3F6F4000
7C1F0000
782F0000
7C3E0000
283E0000
007D0000
007D0000
007C0000
00BC0000
00B80000
00F80000
00F80000
00FA0000
01FF0000
00BF0000
02EE0000
0B9E0000
1F2D0000
2E7C0000
1FF40000
0BD00000
ENDCHAR
STARTCHAR uni04F7
ENCODING 1271
SWIDTH 441 0
DWIDTH 8 0
BBX 10 15 0 -6
BITMAP
1BE000
3FF800
14B800
01F000
0B8000
3D0010
7C15E0
7FFFD0
1FFE00
02F800
0BB400
1DB400
2DE000
2FD000
1F4000
ENDCHAR
STARTCHAR uni04F8
ENCODING 1272
SWIDTH 1078 0
DWIDTH 19 0
BBX 19 20 0 0
BITMAP
00003C7800
00007DBC00
0000787800
0000000000
01E0000078
02F00000B8
03E00000F8
03D00000F8
07C00000F4
07EBF801F4
0BFFFF01F0
7F906F82F0
7F400F82E0
0F400F83E0
0F400F83D0
0F401F47D0
0B802F07D0
0BD1BD07C0
03FFF40BC0
00BF900780
ENDCHAR
STARTCHAR uni04F9
ENCODING 1273
SWIDTH 702 0
DWIDTH 13 0
BBX 14 13 1 0
BITMAP
00E1E000
01F2F000
01E1D000
00000000
3C003C00
78007C00
BAF4F800
FFFAF800
FC7FF410
F43FF4B0
F8BDF6E0
7FF4BF80
1F902E00
ENDCHAR
STARTCHAR uni04FA
ENCODING 1274
SWIDTH 635 0
DWIDTH 11 0
BBX 17 23 -1 -7
BITMAP
006BFFFF40
07FFFFFE40
0FDBD00000
1F07C00000
1E0BC00000
0F0F800000
050F800000
00FFF80000
01FFF80000
001F000000
002F000000
002E000000
003E000000
003E000000
007D000000
007D000000
00BC000000
00B8000000
00F8000000
51F4000000
F6E0000000
FFD0000000
7E40000000
ENDCHAR
STARTCHAR uni04FB
ENCODING 1275
SWIDTH 441 0
DWIDTH 8 0
BBX 10 15 0 -6
BITMAP
1BE000
3FF800
14B800
01F400
BFD000
3EE010
7C15E0
7FFFD0
1FFE00
02F800
0BB400
1DB400
2DE000
2FD000
1F4000
ENDCHAR
STARTCHAR uni04FC
ENCODING 1276
SWIDTH 716 0
DWIDTH 13 0
BBX 15 22 0 -6
BITMAP
0BE001E0
3FF807E0
B4BD1F80
903E3F00
002FBC00
001FF400
000FD000
001F8000
003FC000
00FFD000
02F7E000
0BD2F000
1F81F404
7E00FA6C
FC00BFF4
F4002F80
0000BF00
0007EF00
000F5E00
001F3D00
001FF800
000BE000
ENDCHAR
STARTCHAR uni04FD
ENCODING 1277
SWIDTH 601 0
DWIDTH 11 0
BBX 13 15 0 -6
BITMAP
0B86D000
1FFFE000
1DFDD000
00B80000
10B80000
78F80040
B9FC1780
BFFFFF40
2E6FF800
0007E000
002ED000
0076C000
00F78000
00FF4000
00790000
ENDCHAR
STARTCHAR uni04FE
ENCODING 1278
SWIDTH 712 0
DWIDTH 13 0
BBX 15 16 0 0
BITMAP
0BE001E0
3FF807E0
B4BD1F80
903E3F00
002FBD00
001FF400
000FE000
03FFFE00
07FFFD00
007FC000
01FBD000
07E3E000
0FC2F008
3F01F87C
BD00BFF4
F4002F80
ENDCHAR
STARTCHAR uni04FF
ENCODING 1279
SWIDTH 529 0
DWIDTH 10 0
BBX 12 9 0 0
BITMAP
0B86D0
1FFFE0
1DFDD0
02FF00
26FE06
B4F80A
BAFD2D
BFFFF8
2E1BD0
ENDCHAR
STARTCHAR uni0510
ENCODING 1296
SWIDTH 706 0
DWIDTH 13 0
BBX 11 16 1 0
BITMAP
01BF90
07FFF4
0F81FC
1F407C
1F007C
0F4024
0BC000
0BFE00
7E6F00
BC0000
F80028
F8007C
FC00BC
BE42F8
2FFFE0
06FE40
ENDCHAR
STARTCHAR uni0511
ENCODING 1297
SWIDTH 392 0
DWIDTH 7 0
BBX 9 9 0 0
BITMAP
0BE000
2FF800
2D1400
1FC000
2FC040
7C02C0
B81B80
7FFE00
1FE400
ENDCHAR
STARTCHAR uni0512
ENCODING 1298
SWIDTH 884 0
DWIDTH 16 0
BBX 19 22 0 -6
BITMAP
00000B8000
00001FC000
00002F8000
00003F8000
00007F8000
0000BF8000
0000FF8000
0001FB8000
0002EB8000
0003DB8000
0007CB8000
100F4BC000
B42F07C010
B87D07E9B4
7FF802FFE0
1BD000BE40
000002FD00
00001FBC00
00003D7C00
00007CB400
00003FF000
00001F8000
ENDCHAR
STARTCHAR uni0513
ENCODING 1299
SWIDTH 631 0
DWIDTH 11 0
BBX 13 15 0 -6
BITMAP
001F0000
002F4000
007F4000
00BF0000
10FF0000
B6EF0040
F7CF52C0
BF4BFF80
7D07FD00
0002F000
001EF000
0039E000
0076D000
007F8000
002E0000
ENDCHAR
STARTCHAR uni051A
ENCODING 1306
SWIDTH 816 0
DWIDTH 15 0
BBX 15 22 1 -6
BITMAP
006FE400
01FFFD00
07E47F40
1F800F80
2F000BC0
3D0007D0
7C0007D0
BC0007D0
BC0007D0
B8000BC0
BC000F80
BC001F40
7E007F00
3F95FD00
0FFFF400
02FF8000
001F8000
000BD000
0007E018
0002F478
0001FFF0
00007F80
ENDCHAR
STARTCHAR uni051B
ENCODING 1307
SWIDTH 500 0
DWIDTH 9 0
BBX 12 18 0 -8
BITMAP
000740
01BF40
0BFF40
1F9F00
3E2E00
7C3D00
7C3DFD
7DBDFC
3FF9C0
1FB9C0
00B9C0
00F5C0
00F5C0
00F6C0
00F680
00BB40
007F00
002D00
ENDCHAR
STARTCHAR uni051C
ENCODING 1308
SWIDTH 1217 0
DWIDTH 22 0
BBX 23 16 2 0
BITMAP
2C001E00BD00
7D003E02FF00
7C003E03CF40
BC007D074B40
BC00BD074F40
BC00BD078F40
B800FD03DF00
B801FC02FE00
B802FD00BFF4
B803FD00BFF4
BC07BD00F400
BC0F7D02E000
7D2F2E0BD000
3FBD1FAF4000
2FF80FFD0000
0BD007E40000
ENDCHAR
STARTCHAR uni051D
ENCODING 1309
SWIDTH 700 0
DWIDTH 13 0
BBX 14 9 1 0
BITMAP
F0742D00
F0B8BD00
F0F8BD50
F1F8BFF0
F7F8FFD0
FBBAE000
FF7FC000
BE3F4000
782E0000
ENDCHAR
STARTCHAR uni0524
ENCODING 1316
SWIDTH 892 0
DWIDTH 16 0
BBX 19 22 0 -6
BITMAP
016BFFFA90
0BFFFFFFF4
3F5F407D50
7C1F407C00
782F00BC00
3C2F00B800
143E00F800
003E01F400
007D01F000
007D02F000
007C02E000
00BC03E000
00B803E410
00F802FEB4
00F800BFE0
00B4007F40
000002FD00
00000FBC00
00002E3C00
00003DB800
00003FF000
00001F9000
ENDCHAR
STARTCHAR uni0525
ENCODING 1317
SWIDTH 536 0
DWIDTH 10 0
BBX 11 15 1 -6
BITMAP
387C00
B9FD00
B7FC00
FB7C00
FD7800
FC7810
F8B9B4
F47FE0
B02F80
00BD00
03EC00
0B3C00
0E7800
0FF000
0B9000
ENDCHAR
STARTCHAR uni0526
ENCODING 1318
SWIDTH 818 0
DWIDTH 15 0
BBX 16 22 1 -6
BITMAP
03800000
07C00000
0BC00000
0F800000
0F800000
1F400000
1F400000
2F1BE400
2F7FFC00
3FE4BD00
3F403D00
7E007D00
7D007D01
7D007FDB
BC007FFD
78003FE0
00002FC0
0001FB80
0003DB40
000B9F00
000BFE00
0002F800
ENDCHAR
STARTCHAR uni0527
ENCODING 1319
SWIDTH 542 0
DWIDTH 10 0
BBX 11 24 1 -6
BITMAP
01E000
07F800
0F7800
1E3800
2D7400
3CB400
7CE000
79D000
BB8000
BE6D00
FDFD00
F7FD00
FB7C00
FE7C00
FC7814
F87D78
F87FF4
A02F80
00BE00
02ED00
0B6C00
0E7800
0FF000
079000
ENDCHAR
STARTCHAR uni0528
ENCODING 1320
SWIDTH 873 0
DWIDTH 16 0
BBX 20 23 -2 -6
BITMAP
00000001F4
006E0007FC
02FF800BAC
0B8BC01F1C
1E07C02E2C
0807C03D38
000BC07C74
000BC07EE0
000B80BF40
00FFFFF800
01FFFAF800
001F00F800
002F00F800
002E00B807
003E007D1F
003D003FFC
007D000BE0
00BC000000
00F8000000
11F4000000
F6F0000000
FFD0000000
7F40000000
ENDCHAR
STARTCHAR uni0529
ENCODING 1321
SWIDTH 475 0
DWIDTH 9 0
BBX 13 15 -2 -6
BITMAP
00E0B000
02E0F000
02D1E000
03FFE000
03FFD040
03C2D2C0
03C3DB80
03C2FE00
03C1F400
03C00000
03C00000
53C00000
B7C00000
BF800000
6E000000
ENDCHAR
STARTCHAR uni052E
ENCODING 1326
SWIDTH 884 0
DWIDTH 16 0
BBX 19 22 0 -6
BITMAP
00000B8000
00001FC000
00002F8000
00003F8000
00007F8000
0000BF8000
0000FF8000
0001FB8000
0002EB8000
0003DB8000
0007CB8000
100F4BC000
B42F07C010
B87D07E9B4
7FF802FFE0
1BD000BE40
000002FD00
00001FBC00
00003D7C00
00007CB400
00003FF000
00001F8000
ENDCHAR
STARTCHAR uni052F
ENCODING 1327
SWIDTH 631 0
DWIDTH 11 0
BBX 13 15 0 -6
BITMAP
001F0000
002F4000
007F4000
00BF0000
10FF0000
B6EF0040
F7CF52C0
BF4BFF80
7D07FD00
0002F000
001EF000
0039E000
0076D000
007F8000
002E0000
ENDCHAR
STARTCHAR Wgrave
ENCODING 7808
SWIDTH 1217 0
DWIDTH 22 0
BBX 23 22 2 0
BITMAP
000500000000
000F40000000
000BE0000000
0001F8000000
00002C000000
000000000000
2C001E00BD00
7D003E02FF00
7C003E03CF40
BC007D074B40
BC00BD074F40
BC00BD078F40
B800FD03DF00
B801FC02FE00
B802FD00BFF4
B803FD00BFF4
BC07BD00F400
BC0F7D02E000
7D2F2E0BD000
3FBD1FAF4000
2FF80FFD0000
0BD007E40000
ENDCHAR
STARTCHAR wgrave
ENCODING 7809
SWIDTH 700 0
DWIDTH 13 0
BBX 14 16 1 0
BITMAP
07400000
07C00000
03D00000
01F00000
00B40000
00240000
00000000
F0742D00
F0B8BD00
F0F8BD50
F1F8BFF0
F7F8FFD0
FBBAE000
FF7FC000
BE3F4000
782E0000
ENDCHAR
STARTCHAR Wacute
ENCODING 7810
SWIDTH 1217 0
DWIDTH 22 0
BBX 23 22 2 0
BITMAP
000000140000
0000007D0000
000001FC0000
000007E00000
00000A000000
000000000000
2C001E00BD00
7D003E02FF00
7C003E03CF40
BC007D074B40
BC00BD074F40
BC00BD078F40
B800FD03DF00
B801FC02FE00
B802FD00BFF4
B803FD00BFF4
BC07BD00F400
BC0F7D02E000
7D2F2E0BD000
3FBD1FAF4000
2FF80FFD0000
0BD007E40000
ENDCHAR
STARTCHAR wacute
ENCODING 7811
SWIDTH 700 0
DWIDTH 13 0
BBX 14 16 1 0
BITMAP
00028000
0007C000
000B8000
000F0000
002D0000
00280000
00000000
F0742D00
F0B8BD00
F0F8BD50
F1F8BFF0
F7F8FFD0
FBBAE000
FF7FC000
BE3F4000
782E0000
ENDCHAR
STARTCHAR Wdieresis
ENCODING 7812
SWIDTH 1217 0
DWIDTH 22 0
BBX 23 20 2 0
BITMAP
0000B1E00000
0001F6F00000
0000F1E00000
000000000000
2C001E00BD00
7D003E02FF00
7C003E03CF40
BC007D074B40
BC00BD074F40
BC00BD078F40
B800FD03DF00
B801FC02FE00
B802FD00BFF4
B803FD00BFF4
BC07BD00F400
BC0F7D02E000
7D2F2E0BD000
3FBD1FAF4000
2FF80FFD0000
0BD007E40000
ENDCHAR
STARTCHAR wdieresis
ENCODING 7813
SWIDTH 700 0
DWIDTH 13 0
BBX 14 13 1 0
BITMAP
02D3C000
03D7D000
02C78000
00000000
F0742D00
F0B8BD00
F0F8BD50
F1F8BFF0
F7F8FFD0
FBBAE000
FF7FC000
BE3F4000
782E0000
ENDCHAR
STARTCHAR uni1E9E
ENCODING 7838
SWIDTH 843 0
DWIDTH 15 0
BBX 14 17 1 -1
BITMAP
0781BE40
0B8BFFD0
0F9E4BE0
0F7803E0
1FB007D0
1FD01F80
2FC1BD00
2F87F400
3F46FF40
3F001FC0
3E000BC0
7E0007D0
7D000BC0
7D001F80
7C00BF00
780BF800
000F9000
ENDCHAR
STARTCHAR uni1EA0
ENCODING 7840
SWIDTH 786 0
DWIDTH 14 0
BBX 16 20 1 -4
BITMAP
0006FF90
007FFFF0
02FE5590
0BE00A00
1F801F00
3F002F00
7D003E00
BC003D00
BC007D00
F800BC00
F800FC00
F801FC00
BC03FC0D
7E5FBD7D
2FFD7FF4
0BE41F90
00000000
00B80000
00FC0000
00B80000
ENDCHAR
STARTCHAR uni1EA1
ENCODING 7841
SWIDTH 470 0
DWIDTH 8 0
BBX 11 13 0 -4
BITMAP
01F400
0BFE00
1F6E00
3E2E00
7C3D00
7C3D28
7DBDB8
3FEFE0
1F4B80
000000
0B8000
0FC000
0B8000
ENDCHAR
STARTCHAR uni1EA2
ENCODING 7842
SWIDTH 786 0
DWIDTH 14 0
BBX 16 22 1 0
BITMAP
00007E00
0000BF40
00000740
00003F40
00003D00
00000000
0006FF90
007FFFF0
02FE5590
0BE00A00
1F801F00
3F002F00
7D003E00
BC003D00
BC007D00
F800BC00
F800FC00
F801FC00
BC03FC0D
7E5FBD7D
2FFD7FF4
0BE41F90
ENDCHAR
STARTCHAR uni1EA3
ENCODING 7843
SWIDTH 470 0
DWIDTH 8 0
BBX 11 16 0 0
BITMAP
00BD00
00FF00
000B40
000B00
007E00
007800
000000
01F400
0BFE00
1F6E00
3E2E00
7C3D00
7C3D28
7DBDB8
3FEFE0
1F4B80
ENDCHAR
STARTCHAR uni1EA4
ENCODING 7844
SWIDTH 786 0
DWIDTH 14 0
BBX 16 28 1 0
BITMAP
00000014
0000007C
000002F8
00000BD0
00000E00
00000000
00002D00
0000BF00
0001EB40
0003D780
00078280
00000000
0006FF90
007FFFF0
02FE5590
0BE00A00
1F801F00
3F002F00
7D003E00
BC003D00
BC007D00
F800BC00
F800FC00
F801FC00
BC03FC0D
7E5FBD7D
2FFD7FF4
0BE41F90
ENDCHAR
STARTCHAR uni1EA5
ENCODING 7845
SWIDTH 470 0
DWIDTH 8 0
BBX 11 17 0 0
BITMAP
000014
00007C
0000F8
007D40
01FF00
03DB40
074740
000000
01F400
0BFE00
1F6E00
3E2E00
7C3D00
7C3D28
7DBDB8
3FEFE0
1F4B80
ENDCHAR
STARTCHAR uni1EA6
ENCODING 7846
SWIDTH 786 0
DWIDTH 14 0
BBX 16 28 1 0
BITMAP
00050000
001F4000
000FD000
0002F400
00002800
00000000
00002D00
0000BF00
0001EB40
0003D780
00078280
00000000
0006FF90
007FFFF0
02FE5590
0BE00A00
1F801F00
3F002F00
7D003E00
BC003D00
BC007D00
F800BC00
F800FC00
F801FC00
BC03FC0D
7E5FBD7D
2FFD7FF4
0BE41F90
ENDCHAR
STARTCHAR uni1EA7
ENCODING 7847
SWIDTH 470 0
DWIDTH 8 0
BBX 11 17 0 0
BITMAP
140000
3D0000
2F0000
017D00
01FF00
03DB40
074740
000000
01F400
0BFE00
1F6E00
3E2E00
7C3D00
7C3D28
7DBDB8
3FEFE0
1F4B80
ENDCHAR
STARTCHAR uni1EA8
ENCODING 7848
SWIDTH 786 0
DWIDTH 14 0
BBX 16 28 1 0
BITMAP
00002F40
00003FC0
000002D0
00001FC0
00001E40
00000000
00002D00
0000BF00
0001EB40
0003D780
00078280
00000000
0006FF90
007FFFF0
02FE5590
0BE00A00
1F801F00
3F002F00
7D003E00
BC003D00
BC007D00
F800BC00
F800FC00
F801FC00
BC03FC0D
7E5FBD7D
2FFD7FF4
0BE41F90
ENDCHAR
STARTCHAR uni1EA9
ENCODING 7849
SWIDTH 470 0
DWIDTH 8 0
BBX 12 16 0 0
BITMAP
0001F8
00001D
00001D
007DB8
02EF40
078740
000000
01F400
0BFE00
1F6E00
3E2E00
7C3D00
7C3D28
7DBDB8
3FEFE0
1F4B80
ENDCHAR
STARTCHAR uni1EAA
ENCODING 7850
SWIDTH 786 0
DWIDTH 14 0
BBX 16 27 1 0
BITMAP
0000B414
0002FE78
0003DFF4
000102D0
00000000
00002D00
0000BF00
0001EB40
0003D780
00078280
00000000
0006FF90
007FFFF0
02FE5590
0BE00A00
1F801F00
3F002F00
7D003E00
BC003D00
BC007D00
F800BC00
F800FC00
F801FC00
BC03FC0D
7E5FBD7D
2FFD7FF4
0BE41F90
ENDCHAR
STARTCHAR uni1EAB
ENCODING 7851
SWIDTH 470 0
DWIDTH 8 0
BBX 11 17 0 0
BITMAP
01E490
03FED0
024640
006900
01FF00
03DB40
074740
000000
01F400
0BFE00
1F6E00
3E2E00
7C3D00
7C3D28
7DBDB8
3FEFE0
1F4B80
ENDCHAR
STARTCHAR uni1EAC
ENCODING 7852
SWIDTH 786 0
DWIDTH 14 0
BBX 16 26 1 -4
BITMAP
00002D00
0000BF00
0001EB40
0003D780
00078280
00000000
0006FF90
007FFFF0
02FE5590
0BE00A00
1F801F00
3F002F00
7D003E00
BC003D00
BC007D00
F800BC00
F800FC00
F801FC00
BC03FC0D
7E5FBD7D
2FFD7FF4
0BE41F90
00000000
00B80000
00FC0000
00B80000
ENDCHAR
STARTCHAR uni1EAD
ENCODING 7853
SWIDTH 470 0
DWIDTH 8 0
BBX 11 21 0 -4
BITMAP
001400
003E00
00BF00
01EB00
02DB40
078740
074740
000000
01F400
0BFE00
1F6E00
3E2E00
7C3D00
7C3D28
7DBDB8
3FEFE0
1F4B80
000000
0B8000
0FC000
0B8000
ENDCHAR
STARTCHAR uni1EAE
ENCODING 7854
SWIDTH 786 0
DWIDTH 14 0
BBX 16 23 1 0
BITMAP
00000280
00000F80
00051950
000B82E0
0007FFD0
0001FE40
00000000
0006FF90
007FFFF0
02FE5590
0BE00A00
1F801F00
3F002F00
7D003E00
BC003D00
BC007D00
F800BC00
F800FC00
F801FC00
BC03FC0D
7E5FBD7D
2FFD7FF4
0BE41F90
ENDCHAR
STARTCHAR uni1EAF
ENCODING 7855
SWIDTH 470 0
DWIDTH 8 0
BBX 11 16 0 0
BITMAP
000780
001F40
051940
0F42D0
0BFFC0
02FE00
000000
01F400
0BFE00
1F6E00
3E2E00
7C3D00
7C3D28
7DBDB8
3FEFE0
1F4B80
ENDCHAR
STARTCHAR uni1EB0
ENCODING 7856
SWIDTH 786 0
DWIDTH 14 0
BBX 16 23 1 0
BITMAP
0001D000
0001F400
00012850
000B81E0
0007FFD0
0001BE40
00000000
0006FF90
007FFFF0
02FE5590
0BE00A00
1F801F00
3F002F00
7D003E00
BC003D00
BC007D00
F800BC00
F800FC00
F801FC00
BC03FC0D
7E5FBD7D
2FFD7FF4
0BE41F90
ENDCHAR
STARTCHAR uni1EB1
ENCODING 7857
SWIDTH 470 0
DWIDTH 8 0
BBX 11 16 0 0
BITMAP
01D000
01F400
056440
0F42D0
0BFFC0
01FE00
000000
01F400
0BFE00
1F6E00
3E2E00
7C3D00
7C3D28
7DBDB8
3FEFE0
1F4B80
ENDCHAR
STARTCHAR uni1EB2
ENCODING 7858
SWIDTH 786 0
DWIDTH 14 0
BBX 16 24 1 0
BITMAP
00007D00
00001B00
00000B00
00003D00
000B91E0
0007FFD0
0001BE40
00000000
0006FF90
007FFFF0
02FE5590
0BE00A00
1F801F00
3F002F00
7D003E00
BC003D00
BC007D00
F800BC00
F800FC00
F801FC00
BC03FC0D
7E5FBD7D
2FFD7FF4
0BE41F90
ENDCHAR
STARTCHAR uni1EB3
ENCODING 7859
SWIDTH 470 0
DWIDTH 8 0
BBX 11 17 0 0
BITMAP
00BD00
001E00
000A00
007D00
0F56D0
0BFFC0
02FE00
000000
01F400
0BFE00
1F6E00
3E2E00
7C3D00
7C3D28
7DBDB8
3FEFE0
1F4B80
ENDCHAR
STARTCHAR uni1EB4
ENCODING 7860
SWIDTH 786 0
DWIDTH 14 0
BBX 16 25 1 0
BITMAP
00005000
0001F8B0
0003EEE0
00034780
00010050
000B81E0
0007FFD0
0001BE40
00000000
0006FF90
007FFFF0
02FE5590
0BE00A00
1F801F00
3F002F00
7D003E00
BC003D00
BC007D00
F800BC00
F800FC00
F801FC00
BC03FC0D
7E5FBD7D
2FFD7FF4
0BE41F90
ENDCHAR
STARTCHAR uni1EB5
ENCODING 7861
SWIDTH 470 0
DWIDTH 8 0
BBX 11 18 0 0
BITMAP
005000
02F4A0
07BED0
074B80
050040
0F42D0
0BFFC0
01FE00
000000
01F400
0BFE00
1F6E00
3E2E00
7C3D00
7C3D28
7DBDB8
3FEFE0
1F4B80
ENDCHAR
STARTCHAR uni1EB6
ENCODING 7862
SWIDTH 786 0
DWIDTH 14 0
BBX 16 25 1 -4
BITMAP
00010050
000B82E0
0007FFD0
0001BE40
00000000
0006FF90
007FFFF0
02FE5590
0BE00A00
1F801F00
3F002F00
7D003E00
BC003D00
BC007D00
F800BC00
F800FC00
F801FC00
BC03FC0D
7E5FBD7D
2FFD7FF4
0BE41F90
00000000
00B80000
00FC0000
00B80000
ENDCHAR
STARTCHAR uni1EB7
ENCODING 7863
SWIDTH 470 0
DWIDTH 8 0
BBX 11 19 0 -4
BITMAP
050040
0F01D0
0B87D0
07FF80
01BE00
000000
01F400
0BFE00
1F6E00
3E2E00
7C3D00
7C3D28
7DBDB8
3FEFE0
1F4B80
000000
0B8000
0FC000
0B8000
ENDCHAR
STARTCHAR uni1EB8
ENCODING 7864
SWIDTH 686 0
DWIDTH 12 0
BBX 15 20 0 -4
BITMAP
002BF900
01FFFF40
07F41F80
0BD00B80
0BC00B80
07E40500
01FF8000
06FF4000
1FD00000
3E000000
7D000000
7D000000
7E000014
3F9016F8
0FFFFFE0
01BFF940
00000000
002E0000
007F0000
002D0000
ENDCHAR
STARTCHAR uni1EB9
ENCODING 7865
SWIDTH 393 0
DWIDTH 7 0
BBX 10 13 0 -4
BITMAP
06E400
1FF800
3E7C00
7C7800
7EF400
7F81D0
3E1BC0
2FFF40
0BF800
000000
07D000
0BD000
078000
ENDCHAR
STARTCHAR uni1EBA
ENCODING 7866
SWIDTH 686 0
DWIDTH 12 0
BBX 15 22 0 0
BITMAP
0002F400
0003FC00
00002D00
0001FC00
0001E400
00000000
002BF900
01FFFF40
07F41F80
0BD00B80
0BC00B80
07E40500
01FF8000
06FF4000
1FD00000
3E000000
7D000000
7D000000
7E000014
3F9016F8
0FFFFFE0
01BFF940
ENDCHAR
STARTCHAR uni1EBB
ENCODING 7867
SWIDTH 393 0
DWIDTH 7 0
BBX 10 16 0 0
BITMAP
01F800
02FD00
001D00
001D00
00FC00
00F400
000000
06E400
1FF800
3E7C00
7C7800
7EF400
7F81D0
3E1BC0
2FFF40
0BF800
ENDCHAR
STARTCHAR uni1EBC
ENCODING 7868
SWIDTH 686 0
DWIDTH 12 0
BBX 15 21 0 0
BITMAP
000B4140
002FE780
003DFF40
00102D00
00000000
002BF900
01FFFF40
07F41F80
0BD00B80
0BC00B80
07E40500
01FF8000
06FF4000
1FD00000
3E000000
7D000000
7D000000
7E000014
3F9016F8
0FFFFFE0
01BFF940
ENDCHAR
STARTCHAR uni1EBD
ENCODING 7869
SWIDTH 393 0
DWIDTH 7 0
BBX 10 14 0 0
BITMAP
0B8140
1FE7C0
2DBF40
141E00
000000
06E400
1FF800
3E7C00
7C7800
7EF400
7F81D0
3E1BC0
2FFF40
0BF800
ENDCHAR
STARTCHAR uni1EBE
ENCODING 7870
SWIDTH 686 0
DWIDTH 12 0
BBX 15 24 0 0
BITMAP
00000050
000001F0
000003E0
0001F500
0007FC00
000F6D00
001D1D00
00000000
002BF900
01FFFF40
07F41F80
0BD00B80
0BC00B80
07E40500
01FF8000
06FF4000
1FD00000
3E000000
7D000000
7D000000
7E000014
3F9016F8
0FFFFFE0
01BFF940
ENDCHAR
STARTCHAR uni1EBF
ENCODING 7871
SWIDTH 393 0
DWIDTH 7 0
BBX 11 17 0 0
BITMAP
000010
0000B4
0002E0
00B940
03FD00
0B9E00
0E0E00
000000
06E400
1FF800
3E7C00
7C7800
7EF400
7F81D0
3E1BC0
2FFF40
0BF800
ENDCHAR
STARTCHAR uni1EC0
ENCODING 7872
SWIDTH 686 0
DWIDTH 12 0
BBX 15 24 0 0
BITMAP
00500000
00F40000
00BC0000
0005F400
0007FC00
000F6D00
001D1D00
00000000
002BF900
01FFFF40
07F41F80
0BD00B80
0BC00B80
07E40500
01FF8000
06FF4000
1FD00000
3E000000
7D000000
7D000000
7E000014
3F9016F8
0FFFFFE0
01BFF940
ENDCHAR
STARTCHAR uni1EC1
ENCODING 7873
SWIDTH 393 0
DWIDTH 7 0
BBX 10 17 0 0
BITMAP
500000
B40000
7D0000
05B800
03FD00
0B9E00
0E0E00
000000
06E400
1FF800
3E7C00
7C7800
7EF400
7F81D0
3E1BC0
2FFF40
0BF800
ENDCHAR
STARTCHAR uni1EC2
ENCODING 7874
SWIDTH 686 0
DWIDTH 12 0
BBX 15 23 0 0
BITMAP
000007E0
00000074
00000074
0001F6E0
000BBD00
001E1D00
00000000
002BF900
01FFFF40
07F41F80
0BD00B80
0BC00B80
07E40500
01FF8000
06FF4000
1FD00000
3E000000
7D000000
7D000000
7E000014
3F9016F8
0FFFFFE0
01BFF940
ENDCHAR
STARTCHAR uni1EC3
ENCODING 7875
SWIDTH 393 0
DWIDTH 7 0
BBX 11 16 0 0
BITMAP
0003E0
000078
000034
01B9E0
07ED00
0F0E00
000000
06E400
1FF800
3E7C00
7C7800
7EF400
7F81D0
3E1BC0
2FFF40
0BF800
ENDCHAR
STARTCHAR uni1EC4
ENCODING 7876
SWIDTH 686 0
DWIDTH 12 0
BBX 15 24 0 0
BITMAP
00079240
000FFB40
00091900
0001A400
0007FC00
000F6D00
001D1D00
00000000
002BF900
01FFFF40
07F41F80
0BD00B80
0BC00B80
07E40500
01FF8000
06FF4000
1FD00000
3E000000
7D000000
7D000000
7E000014
3F9016F8
0FFFFFE0
01BFF940
ENDCHAR
STARTCHAR uni1EC5
ENCODING 7877
SWIDTH 393 0
DWIDTH 7 0
BBX 10 17 0 0
BITMAP
02D280
0BBB40
091A00
00B400
03FC00
0B9E00
0E0E00
000000
06E400
1FF800
3E7C00
7C7800
7EF400
7F81D0
3E1BC0
2FFF40
0BF800
ENDCHAR
STARTCHAR uni1EC6
ENCODING 7878
SWIDTH 686 0
DWIDTH 12 0
BBX 15 26 0 -4
BITMAP
0001F400
0003F800
000BBC00
001F2E00
001D1D00
00000000
002BF900
01FFFF40
07F41F80
0BD00B80
0BC00B80
07E40500
01FF8000
06FF4000
1FD00000
3E000000
7D000000
7D000000
7E000014
3F9016F8
0FFFFFE0
01BFF940
00000000
002E0000
007F0000
002D0000
ENDCHAR
STARTCHAR uni1EC7
ENCODING 7879
SWIDTH 393 0
DWIDTH 7 0
BBX 10 21 0 -4
BITMAP
001000
00F800
01FC00
03ED00
079E00
0F1E00
0D0E00
000000
06E400
1FF800
3E7C00
7C7800
7EF400
7F81D0
3E1BC0
2FFF40
0BF800
000000
07D000
0BD000
078000
ENDCHAR
STARTCHAR uni1EC8
ENCODING 7880
SWIDTH 495 0
DWIDTH 9 0
BBX 11 22 -1 0
BITMAP
000F90
001FE0
0001F0
000BE0
000B80
000000
02FFF8
03FFF8
002F00
002E00
003E00
003E00
003D00
007D00
007C00
00BC00
00B800
00F800
00F400
01F400
2FFF80
7FFF80
ENDCHAR
STARTCHAR uni1EC9
ENCODING 7881
SWIDTH 246 0
DWIDTH 4 0
BBX 6 16 1 0
BITMAP
7E00
7F40
0380
0780
2F40
2D00
0000
7800
B800
B800
F400
F010
F0A0
F6D0
FF80
7E00
ENDCHAR
STARTCHAR uni1ECA
ENCODING 7882
SWIDTH 495 0
DWIDTH 9 0
BBX 11 20 -1 -4
BITMAP
02FFF8
03FFF8
002F00
002E00
003E00
003E00
003D00
007D00
007C00
00BC00
00B800
00F800
00F400
01F400
2FFF80
7FFF80
000000
01E000
03F400
02E000
ENDCHAR
STARTCHAR uni1ECB
ENCODING 7883
SWIDTH 246 0
DWIDTH 4 0
BBX 7 17 0 -4
BITMAP
0B80
1FC0
0B40
0000
1E00
2E00
2E00
3D00
3C04
3C28
3DB4
3FE0
1F80
0000
7800
FD00
B800
ENDCHAR
STARTCHAR uni1ECC
ENCODING 7884
SWIDTH 816 0
DWIDTH 15 0
BBX 14 20 1 -4
BITMAP
006FE400
02FFFD00
0BE47F40
1F800F80
2F000BC0
3D0007D0
7C0007D0
BC0007D0
BC0007C0
B8000BC0
BC000F80
BC001F40
7E003E00
2F81FC00
0FFFF000
01BE4000
00000000
00B80000
00FC0000
00B80000
ENDCHAR
STARTCHAR uni1ECD
ENCODING 7885
SWIDTH 451 0
DWIDTH 8 0
BBX 11 13 0 -4
BITMAP
06E400
1FFD00
3E7E10
7C7FF4
7C2FE4
7C1E00
3D7C00
2FF800
0BE000
000000
078000
0FD000
0B8000
ENDCHAR
STARTCHAR uni1ECE
ENCODING 7886
SWIDTH 816 0
DWIDTH 15 0
BBX 14 22 1 0
BITMAP
0007E000
000BF400
00007400
0003F400
0003D000
00000000
006FE400
02FFFD00
0BE47F40
1F800F80
2F000BC0
3D0007D0
7C0007D0
BC0007D0
BC0007C0
B8000BC0
BC000F80
BC001F40
7E003E00
2F81FC00
0FFFF000
01BE4000
ENDCHAR
STARTCHAR uni1ECF
ENCODING 7887
SWIDTH 451 0
DWIDTH 8 0
BBX 11 16 0 0
BITMAP
02F400
02FD00
001D00
002D00
00FC00
00F400
000000
06E400
1FFD00
3E7E10
7C7FF4
7C2FE4
7C1E00
3D7C00
2FF800
0BE000
ENDCHAR
STARTCHAR uni1ED0
ENCODING 7888
SWIDTH 816 0
DWIDTH 15 0
BBX 14 24 1 0
BITMAP
00000040
000002D0
00000B80
0002E500
000FF400
002E7800
00383800
00000000
006FE400
02FFFD00
0BE47F40
1F800F80
2F000BC0
3D0007D0
7C0007D0
BC0007D0
BC0007C0
B8000BC0
BC000F80
BC001F40
7E003E00
2F81FC00
0FFFF000
01BE4000
ENDCHAR
STARTCHAR uni1ED1
ENCODING 7889
SWIDTH 451 0
DWIDTH 8 0
BBX 11 17 0 0
BITMAP
000010
0000F4
0002E0
00B500
03FC00
0B6E00
1E0E00
000000
06E400
1FFD00
3E7E10
7C7FF4
7C2FE4
7C1E00
3D7C00
2FF800
0BE000
ENDCHAR
STARTCHAR uni1ED2
ENCODING 7890
SWIDTH 816 0
DWIDTH 15 0
BBX 14 24 1 0
BITMAP
01400000
02D00000
01F40000
0016E000
000FF400
002E7800
00383800
00000000
006FE400
02FFFD00
0BE47F40
1F800F80
2F000BC0
3D0007D0
7C0007D0
BC0007D0
BC0007C0
B8000BC0
BC000F80
BC001F40
7E003E00
2F81FC00
0FFFF000
01BE4000
ENDCHAR
STARTCHAR uni1ED3
ENCODING 7891
SWIDTH 451 0
DWIDTH 8 0
BBX 11 17 0 0
BITMAP
500000
F40000
7D0000
05B400
03FC00
0B6E00
1E0E00
000000
06E400
1FFD00
3E7E10
7C7FF4
7C2FE4
7C1E00
3D7C00
2FF800
0BE000
ENDCHAR
STARTCHAR uni1ED4
ENCODING 7892
SWIDTH 816 0
DWIDTH 15 0
BBX 14 23 1 0
BITMAP
00000F80
000001E0
000000D0
0006E7C0
001FB400
003C3800
00000000
006FE400
02FFFD00
0BE47F40
1F800F80
2F000BC0
3D0007D0
7C0007D0
BC0007D0
BC0007C0
B8000BC0
BC000F80
BC001F40
7E003E00
2F81FC00
0FFFF000
01BE4000
ENDCHAR
STARTCHAR uni1ED5
ENCODING 7893
SWIDTH 451 0
DWIDTH 8 0
BBX 11 16 0 0
BITMAP
0003E0
000074
000034
01B9E0
07AD00
0E1E00
000000
06E400
1FFD00
3E7E10
7C7FF4
7C2FE4
7C1E00
3D7C00
2FF800
0BE000
ENDCHAR
STARTCHAR uni1ED6
ENCODING 7894
SWIDTH 816 0
DWIDTH 15 0
BBX 14 24 1 0
BITMAP
000B4A00
002EED00
00246800
0002D000
000BF400
002E7800
00383800
00000000
006FE400
02FFFD00
0BE47F40
1F800F80
2F000BC0
3D0007D0
7C0007D0
BC0007D0
BC0007C0
B8000BC0
BC000F80
BC001F40
7E003E00
2F81FC00
0FFFF000
01BE4000
ENDCHAR
STARTCHAR uni1ED7
ENCODING 7895
SWIDTH 451 0
DWIDTH 8 0
BBX 11 17 0 0
BITMAP
02D280
0BBB40
091900
00B400
03FC00
0B6E00
1E0E00
000000
06E400
1FFD00
3E7E10
7C7FF4
7C2FE4
7C1E00
3D7C00
2FF800
0BE000
ENDCHAR
STARTCHAR uni1ED8
ENCODING 7896
SWIDTH 816 0
DWIDTH 15 0
BBX 14 26 1 -4
BITMAP
0002D000
000BF000
001EB400
003D7800
00782800
00000000
006FE400
02FFFD00
0BE47F40
1F800F80
2F000BC0
3D0007D0
7C0007D0
BC0007D0
BC0007C0
B8000BC0
BC000F80
BC001F40
7E003E00
2F81FC00
0FFFF000
01BE4000
00000000
00B80000
00FC0000
00B80000
ENDCHAR
STARTCHAR uni1ED9
ENCODING 7897
SWIDTH 451 0
DWIDTH 8 0
BBX 11 21 0 -4
BITMAP
001000
00F800
02FC00
03ED00
0B5D00
0F1E00
1D0E00
000000
06E400
1FFD00
3E7E10
7C7FF4
7C2FE4
7C1E00
3D7C00
2FF800
0BE000
000000
078000
0FD000
0B8000
ENDCHAR
STARTCHAR uni1EDA
ENCODING 7898
SWIDTH 816 0
DWIDTH 15 0
BBX 15 22 1 0
BITMAP
00000100
00001F40
00007F50
0001F8B4
000290B4
000001F0
006FFFE0
02FFFF80
0BE47F40
1F800FC0
2F000BC0
3D0007D0
7C0007D0
BC0007D0
BC0007C0
B8000BC0
BC000F80
BC001F40
7E003E00
2F81FC00
0FFFF000
01BE4000
ENDCHAR
STARTCHAR uni1EDB
ENCODING 7899
SWIDTH 451 0
DWIDTH 8 0
BBX 11 16 0 0
BITMAP
001D00
002E00
007D00
00B400
00E140
00C2C0
0007C0
06FF40
1FFE00
3E7E10
7C7FF4
7C2FE4
7C1E00
3D7C00
2FF800
0BE000
ENDCHAR
STARTCHAR uni1EDC
ENCODING 7900
SWIDTH 816 0
DWIDTH 15 0
BBX 15 22 1 0
BITMAP
01400000
03E00000
02F80010
007E00B4
000B40B4
000001F0
006FFFE0
02FFFF80
0BE47F40
1F800FC0
2F000BC0
3D0007D0
7C0007D0
BC0007D0
BC0007C0
B8000BC0
BC000F80
BC001F40
7E003E00
2F81FC00
0FFFF000
01BE4000
ENDCHAR
STARTCHAR uni1EDD
ENCODING 7901
SWIDTH 451 0
DWIDTH 8 0
BBX 11 16 0 0
BITMAP
2C0000
2E0000
1F0000
0B4000
038140
01C2C0
0007C0
06FF40
1FFE00
3E7E10
7C7FF4
7C2FE4
7C1E00
3D7C00
2FF800
0BE000
ENDCHAR
STARTCHAR uni1EDE
ENCODING 7902
SWIDTH 816 0
DWIDTH 15 0
BBX 15 22 1 0
BITMAP
0007E000
000BF400
00007810
0003F4B4
0003D0B4
000001F0
006FFFE0
02FFFF80
0BE47F40
1F800FC0
2F000BC0
3D0007D0
7C0007D0
BC0007D0
BC0007C0
B8000BC0
BC000F80
BC001F40
7E003E00
2F81FC00
0FFFF000
01BE4000
ENDCHAR
STARTCHAR uni1EDF
ENCODING 7903
SWIDTH 451 0
DWIDTH 8 0
BBX 11 16 0 0
BITMAP
03F400
03F800
002C00
002C00
01F940
01E2C0
0007C0
06FF40
1FFE00
3E7E10
7C7FF4
7C2FE4
7C1E00
3D7C00
2FF800
0BE000
ENDCHAR
STARTCHAR uni1EE0
ENCODING 7904
SWIDTH 816 0
DWIDTH 15 0
BBX 15 21 1 0
BITMAP
002E0500
007F9F10
00B6FEB4
005078B4
000001F0
006FFFE0
02FFFF80
0BE47F40
1F800FC0
2F000BC0
3D0007D0
7C0007D0
BC0007D0
BC0007C0
B8000BC0
BC000F80
BC001F40
7E003E00
2F81FC00
0FFFF000
01BE4000
ENDCHAR
STARTCHAR uni1EE1
ENCODING 7905
SWIDTH 451 0
DWIDTH 8 0
BBX 11 14 0 0
BITMAP
0B4600
1FEE00
2CBD40
1416C0
0007C0
06FF40
1FFE00
3E7E10
7C7FF4
7C2FE4
7C1D00
3D3C00
2FF800
0BE000
ENDCHAR
STARTCHAR uni1EE2
ENCODING 7906
SWIDTH 816 0
DWIDTH 15 0
BBX 15 24 1 -4
BITMAP
00000010
000000B4
000000B4
000001F0
006FFFE0
02FFFF80
0BE47F40
1F800FC0
2F000BC0
3D0007D0
7C0007D0
BC0007D0
BC0007C0
B8000BC0
BC000F80
BC001F40
7E003E00
2F81FC00
0FFFF000
01BE4000
00000000
00B80000
00FC0000
00B80000
ENDCHAR
STARTCHAR uni1EE3
ENCODING 7907
SWIDTH 451 0
DWIDTH 8 0
BBX 11 16 0 -4
BITMAP
000140
0002C0
0007C0
06FF40
1FFE00
3E7E10
7C7FF4
7C2FE4
7C1E00
3D7C00
2FF800
0BE000
000000
078000
0FD000
0B8000
ENDCHAR
STARTCHAR uni1EE4
ENCODING 7908
SWIDTH 890 0
DWIDTH 16 0
BBX 19 20 0 -4
BITMAP
06F4007800
2FFC00BC00
79BC00BC00
E07C00B800
40BC00F800
00B801F800
00F801F400
01F402F400
01F403F000
02F007F000
02E00FE000
03E01EE000
03E07AE074
03F6F2FAF0
02FFD2FFD0
00BE00BE40
0000000000
000B800000
000FC00000
000B800000
ENDCHAR
STARTCHAR uni1EE5
ENCODING 7909
SWIDTH 462 0
DWIDTH 8 0
BBX 10 13 1 -4
BITMAP
382800
787800
B4B800
F4F400
F1F400
F2F0A0
FFF6D0
FDFF80
787D00
000000
1F0000
2F4000
1E0000
ENDCHAR
STARTCHAR uni1EE6
ENCODING 7910
SWIDTH 890 0
DWIDTH 16 0
BBX 19 22 0 0
BITMAP
00007E0000
0000BF4000
00000B4000
00003F4000
00003D0000
0000000000
06F4007800
2FFC00BC00
79BC00BC00
E07C00B800
40BC00F800
00B801F800
00F801F400
01F402F400
01F403F000
02F007F000
02E00FE000
03E01EE000
03E07AE074
03F6F2FAF0
02FFD2FFD0
00BE00BE40
ENDCHAR
STARTCHAR uni1EE7
ENCODING 7911
SWIDTH 462 0
DWIDTH 8 0
BBX 10 16 1 0
BITMAP
03F400
07F800
002C00
003C00
01F800
01E000
000000
382800
787800
B4B800
F4F400
F1F400
F2F0A0
FFF6D0
FDFF80
787D00
ENDCHAR
STARTCHAR uni1EE8
ENCODING 7912
SWIDTH 890 0
DWIDTH 16 0
BBX 19 22 0 0
BITMAP
0000005000
000001F400
000007F050
00001F80E0
00002801E0
00000007D0
06F4007F80
2FFC00BD00
79BC00BC00
E07C00B800
40BC00F800
00B801F400
00F801F400
01F402F000
01F403F000
02F007F000
02E00FE000
03E01EE000
03E07AE074
03F6F2FAF0
02FFD2FFD0
00BE00BE40
ENDCHAR
STARTCHAR uni1EE9
ENCODING 7913
SWIDTH 512 0
DWIDTH 9 0
BBX 11 16 1 0
BITMAP
001D00
003E00
007C00
00B400
00E040
01C2C0
0003C0
382F80
787E00
B4B800
F4F400
F1F400
F2F034
FFF5B4
FDFFD0
787E40
ENDCHAR
STARTCHAR uni1EEA
ENCODING 7914
SWIDTH 890 0
DWIDTH 16 0
BBX 19 22 0 0
BITMAP
0014000000
003D000000
002F800050
0007E000E0
0000B001E0
00000007D0
06F4007F80
2FFC00BD00
79BC00BC00
E07C00B800
40BC00F800
00B801F400
00F801F400
01F402F000
01F403F000
02F007F000
02E00FE000
03E01EE000
03E07AE074
03F6F2FAF0
02FFD2FFD0
00BE00BE40
ENDCHAR
STARTCHAR uni1EEB
ENCODING 7915
SWIDTH 512 0
DWIDTH 9 0
BBX 11 16 1 0
BITMAP
2C0000
3D0000
1F0000
0B4000
038040
0182C0
0003C0
382F80
787E00
B4B800
F4F400
F1F400
F2F034
FFF5B4
FDFFD0
787E40
ENDCHAR
STARTCHAR uni1EEC
ENCODING 7916
SWIDTH 890 0
DWIDTH 16 0
BBX 19 22 0 0
BITMAP
00007E0000
0000BF4000
00000B4050
00003F40E0
00003D01E0
00000007D0
06F4007F80
2FFC00BD00
79BC00BC00
E07C00B800
40BC00F800
00B801F400
00F801F400
01F402F000
01F403F000
02F007F000
02E00FE000
03E01EE000
03E07AE074
03F6F2FAF0
02FFD2FFD0
00BE00BE40
ENDCHAR
STARTCHAR uni1EED
ENCODING 7917
SWIDTH 512 0
DWIDTH 9 0
BBX 11 16 1 0
BITMAP
03F400
07F800
002C00
003C00
01F840
01E2C0
0003C0
382F80
787E00
B4B800
F4F400
F1F400
F2F034
FFF5B4
FDFFD0
787E40
ENDCHAR
STARTCHAR uni1EEE
ENCODING 7918
SWIDTH 890 0
DWIDTH 16 0
BBX 19 21 0 0
BITMAP
0002E05000
0007F9F050
000F6FD0E0
00050B81E0
00000007D0
06F4007F80
2FFC00BD00
79BC00BC00
E07C00B800
40BC00F800
00B801F400
00F801F400
01F402F000
01F403F000
02F007F000
02E00FE000
03E01EE000
03E07AE074
03F6F2FAF0
02FFD2FFD0
00BE00BE40
ENDCHAR
STARTCHAR uni1EEF
ENCODING 7919
SWIDTH 512 0
DWIDTH 9 0
BBX 11 14 1 0
BITMAP
0B4600
1FEE00
28BD40
1016C0
0003C0
382F80
787E00
B4B800
F4F400
F1F400
F2F034
FFF5F4
FDFFD0
787E40
ENDCHAR
STARTCHAR uni1EF0
ENCODING 7920
SWIDTH 890 0
DWIDTH 16 0
BBX 19 24 0 -4
BITMAP
0000000050
00000000E0
00000001E0
00000007D0
06F4007F80
2FFC00BD00
79BC00BC00
E07C00B800
40BC00F800
00B801F400
00F801F400
01F402F000
01F403F000
02F007F000
02E00FE000
03E01EE000
03E07AE074
03F6F2FAF0
02FFD2FFD0
00BE00BE40
0000000000
000B800000
000FC00000
000B800000
ENDCHAR
STARTCHAR uni1EF1
ENCODING 7921
SWIDTH 512 0
DWIDTH 9 0
BBX 11 16 1 -4
BITMAP
000040
0002C0
0003C0
382F80
787E00
B4B800
F4F400
F1F400
F2F034
FFF5B4
FDFFD0
787E40
000000
1F0000
2F4000
1E0000
ENDCHAR
STARTCHAR Ygrave
ENCODING 7922
SWIDTH 851 0
DWIDTH 15 0
BBX 18 28 0 -6
BITMAP
0014000000
003E000000
002F800000
0007E00000
0000740000
0000000000
06F4007800
2FFC00BC00
79BC00BC00
E07C00B800
80BC00F800
00BC01F800
00F801F400
01F402F400
01F407F000
01F00BF000
02F01EF000
01F47AE000
00FFE2EBD0
006F9BFF80
0000BFE400
0007E7C000
001F47C000
007C0B8000
00B80F4000
00B82E0000
007FFC0000
001FE00000
ENDCHAR
STARTCHAR ygrave
ENCODING 7923
SWIDTH 479 0
DWIDTH 9 0
BBX 11 25 0 -9
BITMAP
0B0000
0F4000
07C000
02D000
00E000
006000
000000
0E0A00
1E1E00
2D2E00
3D3D00
3C7D00
3CBD78
3FFEF4
3FBF80
1E7E00
01F800
07F400
1EF000
3CF000
B5E000
E2D000
E7C000
FF4000
7D0000
ENDCHAR
STARTCHAR uni1EF4
ENCODING 7924
SWIDTH 851 0
DWIDTH 15 0
BBX 18 22 0 -6
BITMAP
06F4007800
2FFC00BC00
79BC00BC00
E07C00B800
80BC00F800
00BC01F800
00F801F400
01F402F400
01F407F000
01F00BF000
02F01EF000
01F47AE000
00FFE2EBD0
006F9BFF80
0000BFE400
0007E7C000
001F47C000
007C0B8000
00B80F4000
00B82E7800
007FFCFD00
001FE0B800
ENDCHAR
STARTCHAR uni1EF5
ENCODING 7925
SWIDTH 479 0
DWIDTH 9 0
BBX 11 18 0 -9
BITMAP
0E0A00
1E1E00
2D2E00
3D3D00
3C7D00
3CBD78
3FFEF4
3FBF80
1E7E00
01F800
07F400
1EF000
3CF000
B5E000
E2EF40
E7EF40
FF5E00
7D0000
ENDCHAR
STARTCHAR uni1EF6
ENCODING 7926
SWIDTH 851 0
DWIDTH 15 0
BBX 18 28 0 -6
BITMAP
00007E0000
0000BF8000
0000078000
00002F4000
00002E0000
0000000000
06F4007800
2FFC00BC00
79BC00BC00
E07C00B800
80BC00F800
00BC01F800
00F801F400
01F402F400
01F407F000
01F00BF000
02F01EF000
01F47AE000
00FFE2EBD0
006F9BFF80
0000BFE400
0007E7C000
001F47C000
007C0B8000
00B80F4000
00B82E0000
007FFC0000
001FE00000
ENDCHAR
STARTCHAR uni1EF7
ENCODING 7927
SWIDTH 479 0
DWIDTH 9 0
BBX 11 25 0 -9
BITMAP
00FD00
01FE00
000B00
000F00
007E00
007800
000000
0E0A00
1E1E00
2D2E00
3D3D00
3C7D00
3CBD78
3FFEF4
3FBF80
1E7E00
01F800
07F400
1EF000
3CF000
B5E000
E2D000
E7C000
FF4000
7D0000
ENDCHAR
STARTCHAR uni1EF8
ENCODING 7928
SWIDTH 851 0
DWIDTH 15 0
BBX 18 27 0 -6
BITMAP
0001E01000
0007FDF000
000B6FE000
0005078000
0000000000
06F4007800
2FFC00BC00
79BC00BC00
E07C00B800
80BC00F800
00BC01F800
00F801F400
01F402F400
01F407F000
01F00BF000
02F01EF000
01F47AE000
00FFE2EBD0
006F9BFF80
0000BFE400
0007E7C000
001F47C000
007C0B8000
00B80F4000
00B82E0000
007FFC0000
001FE00000
ENDCHAR
STARTCHAR uni1EF9
ENCODING 7929
SWIDTH 479 0
DWIDTH 9 0
BBX 11 23 0 -9
BITMAP
03D040
0BF6D0
1E7FC0
041B40
000000
0E0A00
1E1E00
2D2E00
3D3D00
3C7D00
3CBD78
3FFEF4
3FBF80
1E7E00
01F800
07F400
1EF000
3CF000
B5E000
E2D000
E7C000
FF4000
7D0000
ENDCHAR
STARTCHAR endash
ENCODING 8211
SWIDTH 484 0
DWIDTH 9 0
BBX 7 2 1 5
BITMAP
BFFC
BFF8
ENDCHAR
STARTCHAR emdash
ENCODING 8212
SWIDTH 620 0
DWIDTH 11 0
BBX 10 2 1 5
BITMAP
BFFFD0
BFFFD0
ENDCHAR
STARTCHAR quoteleft
ENCODING 8216
SWIDTH 237 0
DWIDTH 4 0
BBX 3 7 2 11
BITMAP
1C
3C
7C
B8
F8
F4
50
ENDCHAR
STARTCHAR quoteright
ENCODING 8217
SWIDTH 236 0
DWIDTH 4 0
BBX 4 7 2 11
BITMAP
3C
7D
BC
B8
B4
F0
50
ENDCHAR
STARTCHAR quotesinglbase
ENCODING 8218
SWIDTH 257 0
DWIDTH 5 0
BBX 4 7 0 -3
BITMAP
14
3D
7D
7D
78
B4
A0
ENDCHAR
STARTCHAR quotedblleft
ENCODING 8220
SWIDTH 457 0
DWIDTH 8 0
BBX 7 7 2 11
BITMAP
1C1C
3C3C
7C78
B8F8
F8F8
F4F4
5050
ENDCHAR
STARTCHAR quotedblright
ENCODING 8221
SWIDTH 456 0
DWIDTH 8 0
BBX 8 7 2 11
BITMAP
3C3C
7D7D
BCBC
B8B8
B4B4
F0F0
5040
ENDCHAR
STARTCHAR quotedblbase
ENCODING 8222
SWIDTH 477 0
DWIDTH 9 0
BBX 8 7 0 -3
BITMAP
1414
3D3D
7D7D
7D7D
7878
B4B4
A0A0
ENDCHAR
STARTCHAR dagger
ENCODING 8224
SWIDTH 588 0
DWIDTH 11 0
BBX 9 13 2 5
BITMAP
00E000
01E000
01E000
7FFF40
7FFF40
02D000
03C000
03C000
078000
078000
0B8000
0B4000
0B0000
ENDCHAR
STARTCHAR daggerdbl
ENCODING 8225
SWIDTH 588 0
DWIDTH 11 0
BBX 9 13 2 5
BITMAP
00E000
01E000
01E000
7FFF40
7FFF40
02D000
03C000
03C000
FFFE00
FFFE00
078000
0B4000
0B0000
ENDCHAR
STARTCHAR bullet
ENCODING 8226
SWIDTH 512 0
DWIDTH 9 0
BBX 6 6 2 2
BITMAP
2F40
BFD0
FFD0
FFD0
FFC0
6E40
ENDCHAR
STARTCHAR ellipsis
ENCODING 8230
SWIDTH 777 0
DWIDTH 14 0
BBX 14 4 0 0
BITMAP
2D1F0B80
7E2F8FD0
7E2F4FC0
3D1E0B80
ENDCHAR
STARTCHAR perthousand
ENCODING 8240
SWIDTH 1277 0
DWIDTH 23 0
BBX 22 15 1 0
BITMAP
0A4009000000
7FD02E000000
B6E1BD000000
F2FFF8000000
F0FFF4000000
F5D3E0000000
7FC7C0000000
1A0F86901A00
001F1FF47FC0
003D3D78F2E0
00BC783DE1E0
00F47839E1E0
02F07879E2D0
03D03EF0FBC0
02800B906E00
ENDCHAR
STARTCHAR guilsinglleft
ENCODING 8249
SWIDTH 350 0
DWIDTH 6 0
BBX 6 7 0 1
BITMAP
02D0
1BD0
7E40
7C00
3F40
0BD0
02C0
ENDCHAR
STARTCHAR guilsinglright
ENCODING 8250
SWIDTH 350 0
DWIDTH 6 0
BBX 5 7 1 1
BITMAP
A000
BD00
2F40
0B80
2F80
FD00
E000
ENDCHAR
STARTCHAR fraction
ENCODING 8260
SWIDTH 200 0
DWIDTH 4 0
BBX 8 12 -2 2
BITMAP
000A
001F
003D
00B8
00F4
02E0
07C0
0B40
1F00
3D00
7800
7400
ENDCHAR
STARTCHAR uni2074
ENCODING 8308
SWIDTH 450 0
DWIDTH 8 0
BBX 8 9 1 6
BITMAP
0380
0B40
0F78
2D78
3CB4
7EF9
7FFD
00F0
00E0
ENDCHAR
STARTCHAR colonmonetary
ENCODING 8353
SWIDTH 517 0
DWIDTH 9 0
BBX 11 15 0 -2
BITMAP
000334
005A70
02FFD0
0BFFC0
1F37C0
2E77C0
3DDA40
3DDC00
3F6800
3F7040
2FA680
1FFF40
2BF900
774000
A60000
ENDCHAR
STARTCHAR franc
ENCODING 8355
SWIDTH 750 0
DWIDTH 14 0
BBX 13 11 1 0
BITMAP
BFFFF000
7FFFE000
3C002C00
7C00BD00
7FF9FD00
BFFAFE00
B43F6F40
F47F1D00
F07E0000
F07C0000
E0380000
ENDCHAR
STARTCHAR lira
ENCODING 8356
SWIDTH 525 0
DWIDTH 9 0
BBX 10 11 0 0
BITMAP
01BF40
03FFD0
0B83D0
0F4180
7FF800
1F5000
7FF400
2E5000
2E0000
BFFFC0
7FFF80
ENDCHAR
STARTCHAR uni20A6
ENCODING 8358
SWIDTH 672 0
DWIDTH 12 0
BBX 12 12 0 0
BITMAP
010014
07803C
0BD03C
0BE07C
0BF47C
0FB878
7FFFFE
1F5FB8
7FFFFE
2E57F4
2E02F0
1D00E0
ENDCHAR
STARTCHAR peseta
ENCODING 8359
SWIDTH 1085 0
DWIDTH 20 0
BBX 19 12 0 0
BITMAP
1BF40B4000
3FFD0F0000
1F2F1F0000
1F0FFFF460
1E0FFFF5E0
2E1F2D02D0
2D2E2D03F0
3EF83D0BF8
3F903D0E7C
3C002D7C3C
7C002FF7FC
38000B92E4
ENDCHAR
STARTCHAR uni20A9
ENCODING 8361
SWIDTH 775 0
DWIDTH 14 0
BBX 15 12 0 0
BITMAP
06024090
0F0782D0
7FFFFFF4
0F5F97C0
0F0F8780
7FFFFFF0
1F6F9F40
0B7B9E00
0B77AD00
0BF3F800
07E3F400
03C1E000
ENDCHAR
STARTCHAR dong
ENCODING 8363
SWIDTH 463 0
DWIDTH 8 0
BBX 10 18 0 -3
BITMAP
000140
0007C0
000B80
1FFFE0
1FFFD0
000F40
02FF00
0BFF00
2F6E00
3D2E00
7C3D00
787D00
7CBD00
3FFC00
1E7C00
000000
BFFF00
BFFE00
ENDCHAR
STARTCHAR Euro
ENCODING 8364
SWIDTH 552 0
DWIDTH 10 0
BBX 10 11 0 0
BITMAP
007F80
02FFE0
0BD1E0
0F41E0
7FF440
1E0000
BFF400
1F0050
0F82D0
07FFC0
01BE00
ENDCHAR
STARTCHAR uni20AD
ENCODING 8365
SWIDTH 590 0
DWIDTH 11 0
BBX 11 12 0 0
BITMAP
010050
0B80F4
0B42E0
0F47D0
0F1F40
6FBE90
BFFFF0
1E7D00
2E2E00
2D1F40
3D0BF8
2C02F4
ENDCHAR
STARTCHAR uni20AE
ENCODING 8366
SWIDTH 513 0
DWIDTH 9 0
BBX 9 11 1 0
BITMAP
7FFF40
BFFF40
02C000
03E000
1BE000
7F9400
0BF400
3F4000
1B4000
0F0000
0A0000
ENDCHAR
STARTCHAR uni20B1
ENCODING 8369
SWIDTH 557 0
DWIDTH 10 0
BBX 10 12 0 0
BITMAP
015400
1FFE00
1B9F40
7FFFF0
0F4780
BFFFE0
1F2F00
1FFD00
1F9000
2E0000
2E0000
2D0000
ENDCHAR
STARTCHAR uni20B2
ENCODING 8370
SWIDTH 599 0
DWIDTH 11 0
BBX 10 17 1 -3
BITMAP
006000
00A000
00A000
07FD00
2FFF40
7DDB40
B8DB40
F5C600
F1C000
F18FD0
F68FD0
BA87C0
3FFFC0
0BE7C0
034380
070140
010000
ENDCHAR
STARTCHAR uni20B4
ENCODING 8372
SWIDTH 570 0
DWIDTH 10 0
BBX 10 11 0 0
BITMAP
02FD00
0FFF40
1E0B80
040780
2FFFE0
000000
7FFFE0
1F4140
1E07C0
1FFF80
06F900
ENDCHAR
STARTCHAR uni20B5
ENCODING 8373
SWIDTH 517 0
DWIDTH 9 0
BBX 8 17 1 -3
BITMAP
0060
00A0
00A0
0BFD
2FFF
7DDF
B8DF
F5C5
F1C0
F180
F681
BE9A
3FFD
0BE4
0340
0700
0100
ENDCHAR
STARTCHAR uni20B8
ENCODING 8376
SWIDTH 522 0
DWIDTH 9 0
BBX 9 11 1 0
BITMAP
7FFF40
BFFF40
000000
BFFF00
FFFF00
038000
078000
074000
0B4000
0B0000
0B0000
ENDCHAR
STARTCHAR uni20B9
ENCODING 8377
SWIDTH 511 0
DWIDTH 9 0
BBX 10 10 0 0
BITMAP
2FFFE0
3FFFD0
05B900
01F400
7FD000
7F8000
07E000
01F400
00BF80
002F40
ENDCHAR
STARTCHAR uni20BA
ENCODING 8378
SWIDTH 452 0
DWIDTH 8 0
BBX 8 12 0 0
BITMAP
0100
0B80
0F68
0FE4
1F50
7FB4
2F90
7E00
BE07
2E2E
2FF8
1F90
ENDCHAR
STARTCHAR uni20BC
ENCODING 8380
SWIDTH 673 0
DWIDTH 12 0
BBX 12 14 0 0
BITMAP
000700
000B00
000A00
007F80
02FFF0
07EEF4
0F8DB8
1F1C7C
2E1C3C
3D1C3D
7D283D
7C283D
B8283C
B42438
ENDCHAR
STARTCHAR uni20BD
ENCODING 8381
SWIDTH 505 0
DWIDTH 9 0
BBX 9 12 0 0
BITMAP
0BF900
1FFF40
1B8B80
0B4780
0F4780
0F0B40
0F6E00
7FF800
2E0000
BFF400
2E4000
2D0000
ENDCHAR
STARTCHAR uni2116
ENCODING 8470
SWIDTH 1198 0
DWIDTH 22 0
BBX 21 16 1 0
BITMAP
0742F901B900
0F9FFF07FF00
0F7E1F4B8F40
0FB40F8F0B40
1FE00F4B5F00
1FD01F47FE00
2F801F02F800
2F402F000000
3F002E2FFE00
3E003E2FFD00
3E003D000000
7D007D000000
7D007D000000
7C00BC000000
BC00BC000000
780078000000
ENDCHAR
STARTCHAR trademark
ENCODING 8482
SWIDTH 1150 0
DWIDTH 21 0
BBX 18 7 2 8
BITMAP
FFF6DB8BD0
0F02E6E9E0
0E03D1E0E0
1D03C2D1E0
1D0782C1D0
2D0743C2D0
2C074382C0
ENDCHAR
STARTCHAR partialdiff
ENCODING 8706
SWIDTH 451 0
DWIDTH 8 0
BBX 8 15 0 0
BITMAP
0400
1F80
02F0
00B8
003D
001E
02AF
1FFF
2E1F
7C1F
7C1F
7C2E
7D3D
2FF8
0BE0
ENDCHAR
STARTCHAR product
ENCODING 8719
SWIDTH 700 0
DWIDTH 13 0
BBX 12 15 1 0
BITMAP
0BFFFD
0FFFFD
1F003C
1F007C
2E0078
2E00B8
2D00B8
3D00F4
3D00F4
7C00F0
7C01F0
B801E0
B802E0
B402E0
B402D0
ENDCHAR
STARTCHAR summation
ENCODING 8721
SWIDTH 700 0
DWIDTH 13 0
BBX 12 15 1 0
BITMAP
1FFFFD
1FFFFD
0BD000
02F400
00BC00
003E00
001F80
000BC0
001F40
00BD00
02F400
0BD000
3F0000
BFFFE0
BFFFE0
ENDCHAR
STARTCHAR minus
ENCODING 8722
SWIDTH 700 0
DWIDTH 13 0
BBX 11 2 1 4
BITMAP
7FFFF4
7FFFF0
ENDCHAR
STARTCHAR uni2215
ENCODING 8725
SWIDTH 700 0
DWIDTH 13 0
BBX 10 17 2 0
BITMAP
0000D0
0002E0
0007D0
000B80
001F40
002E00
007C00
00F800
01F000
03E000
07C000
0F4000
2F0000
3D0000
BC0000
F40000
A00000
ENDCHAR
STARTCHAR uni2219
ENCODING 8729
SWIDTH 700 0
DWIDTH 13 0
BBX 4 3 4 3
BITMAP
2E
7F
2E
ENDCHAR
STARTCHAR radical
ENCODING 8730
SWIDTH 700 0
DWIDTH 13 0
BBX 12 16 1 -1
BITMAP
000007
00000F
00001E
00002D
000078
0000B4
0000F0
A902D0
FF03C0
0B4740
078F00
039E00
02EC00
01F800
00F400
005000
ENDCHAR
STARTCHAR infinity
ENCODING 8734
SWIDTH 700 0
DWIDTH 13 0
BBX 13 7 0 2
BITMAP
0BE1F800
2FFBFE00
7C7F0F40
782D0F40
7C7F1F00
3FFBFE00
0B92F800
ENDCHAR
STARTCHAR integral
ENCODING 8747
SWIDTH 700 0
DWIDTH 13 0
BBX 11 22 1 -5
BITMAP
0002F8
000FF8
002F40
002E00
003D00
003D00
003D00
007C00
007C00
00BC00
00B800
00B800
00F400
00F400
00F400
01F000
01F000
02F000
02E000
07D000
BFC000
BE0000
ENDCHAR
STARTCHAR approxequal
ENCODING 8776
SWIDTH 700 0
DWIDTH 13 0
BBX 11 9 1 1
BITMAP
0B9028
2FF8B8
3D7FF0
7407D0
050000
2F90B0
7FF9F0
F4BFD0
501B80
ENDCHAR
STARTCHAR notequal
ENCODING 8800
SWIDTH 700 0
DWIDTH 13 0
BBX 11 11 1 0
BITMAP
000100
000B40
000F00
3FFFF4
3FFFF4
007800
00F000
BFFFF0
BFFFE0
078000
060000
ENDCHAR
STARTCHAR lessequal
ENCODING 8804
SWIDTH 700 0
DWIDTH 13 0
BBX 11 11 1 0
BITMAP
000014
0016F8
06FFE0
3FE500
7F9000
1FFE40
01BFF0
0006E0
000000
BFFFF0
BFFFE0
ENDCHAR
STARTCHAR greaterequal
ENCODING 8805
SWIDTH 700 0
DWIDTH 13 0
BBX 11 11 1 0
BITMAP
140000
2F9000
1BFE40
006FF4
0017F4
06FFA0
7FE400
790000
000000
BFFFF0
BFFFE0
ENDCHAR
STARTCHAR lozenge
ENCODING 9674
SWIDTH 700 0
DWIDTH 13 0
BBX 9 17 2 0
BITMAP
003800
00BC00
01FD00
03DE00
078F00
0F4B40
2E0780
3C03C0
B803C0
780780
3C0F40
2D1E00
1D3C00
0EB400
0BF000
07D000
038000
ENDCHAR
STARTCHAR fi
ENCODING 64257
SWIDTH 633 0
DWIDTH 11 0
BBX 14 24 0 -6
BITMAP
001F4000
007F8000
00B78000
01E38000
02D38000
03D76E00
07CA7F00
0B9D3D00
0FB40000
7FFFF400
7FFFF800
1F00B400
1F24F400
2E39F010
2E39F0A0
2E29F6D0
2E28FF80
2E387D00
2E380000
1E340000
1F340000
1F700000
0FE00000
07800000
ENDCHAR
STARTCHAR fl
ENCODING 64258
SWIDTH 688 0
DWIDTH 12 0
BBX 14 24 1 -6
BITMAP
00B80B40
02FD2FC0
079D7AC0
0B5DB2D0
0F1DE2C0
1E2EE2C0
2D3AD380
3D77C740
7CE3CB00
7EC7CE00
BF47AD00
BD07F800
F80BE000
F7FFC000
FBFF80A0
F703D2E0
F742FF80
F740BD00
F7800000
F6800000
B6800000
BB400000
7F000000
2E000000
ENDCHAR
STARTCHAR .notdef
ENCODING -1
SWIDTH 265 0
DWIDTH 5 0
BBX 1 1 0 0
BITMAP
00
ENDCHAR
STARTCHAR Iacute_J.loclNLD
ENCODING -1
SWIDTH 776 0
DWIDTH 14 0
BBX 16 22 1 0
BITMAP
00050005
001F402F
007F00BE
01F802F4
02800380
00000000
0B400B00
1F400F40
1F401F40
1F401F00
2F002F00
2F003F00
3E007F00
3E00FE00
3F47FE00
2FFFBD00
0BFE3D00
01507C00
0000B800
7906F400
3FFFD000
1BFE0000
ENDCHAR
STARTCHAR A.ss01
ENCODING -1
SWIDTH 780 0
DWIDTH 14 0
BBX 14 16 1 0
BITMAP
0006FF90
007FFFE0
02FD4140
0BE00A00
1F801F40
3F002F00
7D002E00
BC003E00
BC007D00
F800BD00
F800FC00
F801FC00
BC02FC00
7E1BF800
2FFDF800
0BE4B400
ENDCHAR
STARTCHAR Aacute.ss01
ENCODING -1
SWIDTH 780 0
DWIDTH 14 0
BBX 15 22 1 0
BITMAP
00000010
000001F4
000007F4
00001F80
00002900
00000000
0006FF90
007FFFE0
02FD4140
0BE00A00
1F801F40
3F002F00
7D002E00
BC003E00
BC007D00
F800BD00
F800FC00
F801FC00
BC02FC00
7E1BF800
2FFDF800
0BE4B400
ENDCHAR
STARTCHAR Abreve.ss01
ENCODING -1
SWIDTH 780 0
DWIDTH 14 0
BBX 14 21 1 0
BITMAP
00010050
000B82E0
0007FFD0
0001BE40
00000000
0006FF90
007FFFE0
02FD4140
0BE00A00
1F801F40
3F002F00
7D002E00
BC003E00
BC007D00
F800BD00
F800FC00
F801FC00
BC02FC00
7E1BF800
2FFDF800
0BE4B400
ENDCHAR
STARTCHAR uni1EAE.ss01
ENCODING -1
SWIDTH 780 0
DWIDTH 14 0
BBX 14 23 1 0
BITMAP
00000280
00000F80
00051950
000B82E0
0007FFD0
0001FE40
00000000
0006FF90
007FFFE0
02FD4140
0BE00A00
1F801F40
3F002F00
7D002E00
BC003E00
BC007D00
F800BD00
F800FC00
F801FC00
BC02FC00
7E1BF800
2FFDF800
0BE4B400
ENDCHAR
STARTCHAR uni1EB6.ss01
ENCODING -1
SWIDTH 780 0
DWIDTH 14 0
BBX 14 25 1 -4
BITMAP
00010050
000B82E0
0007FFD0
0001BE40
00000000
0006FF90
007FFFE0
02FD4140
0BE00A00
1F801F40
3F002F00
7D002E00
BC003E00
BC007D00
F800BD00
F800FC00
F801FC00
BC02FC00
7E1BF800
2FFDF800
0BE4B400
00000000
00B80000
00FC0000
00B80000
ENDCHAR
STARTCHAR uni1EB0.ss01
ENCODING -1
SWIDTH 780 0
DWIDTH 14 0
BBX 14 23 1 0
BITMAP
0001D000
0001F400
00012850
000B81E0
0007FFD0
0001BE40
00000000
0006FF90
007FFFE0
02FD4140
0BE00A00
1F801F40
3F002F00
7D002E00
BC003E00
BC007D00
F800BD00
F800FC00
F801FC00
BC02FC00
7E1BF800
2FFDF800
0BE4B400
ENDCHAR
STARTCHAR uni1EB2.ss01
ENCODING -1
SWIDTH 780 0
DWIDTH 14 0
BBX 14 24 1 0
BITMAP
00007D00
00001B00
00000B00
00003D00
000B91E0
0007FFD0
0001BE40
00000000
0006FF90
007FFFE0
02FD4140
0BE00A00
1F801F40
3F002F00
7D002E00
BC003E00
BC007D00
F800BD00
F800FC00
F801FC00
BC02FC00
7E1BF800
2FFDF800
0BE4B400
ENDCHAR
STARTCHAR uni1EB4.ss01
ENCODING -1
SWIDTH 780 0
DWIDTH 14 0
BBX 14 25 1 0
BITMAP
00005000
0001F8B0
0003EEE0
00034780
00010050
000B81E0
0007FFD0
0001BE40
00000000
0006FF90
007FFFE0
02FD4140
0BE00A00
1F801F40
3F002F00
7D002E00
BC003E00
BC007D00
F800BD00
F800FC00
F801FC00
BC02FC00
7E1BF800
2FFDF800
0BE4B400
ENDCHAR
STARTCHAR Acircumflex.ss01
ENCODING -1
SWIDTH 780 0
DWIDTH 14 0
BBX 14 22 1 0
BITMAP
00002D00
0000BF00
0001EB40
0003D780
00078280
00000000
0006FF90
007FFFE0
02FD4140
0BE00A00
1F801F40
3F002F00
7D002E00
BC003E00
BC007D00
F800BD00
F800FC00
F801FC00
BC02FC00
7E1BF800
2FFDF800
0BE4B400
ENDCHAR
STARTCHAR uni1EA4.ss01
ENCODING -1
SWIDTH 780 0
DWIDTH 14 0
BBX 16 24 1 0
BITMAP
00000004
0000002D
000000B8
00002E50
0000FF00
0002E780
00038380
00000000
0006FF90
007FFFE0
02FD4140
0BE00A00
1F801F40
3F002F00
7D002E00
BC003E00
BC007D00
F800BD00
F800FC00
F801FC00
BC02FC00
7E1BF800
2FFDF800
0BE4B400
ENDCHAR
STARTCHAR uni1EAC.ss01
ENCODING -1
SWIDTH 780 0
DWIDTH 14 0
BBX 14 26 1 -4
BITMAP
00002D00
0000BF00
0001EB40
0003D780
00078280
00000000
0006FF90
007FFFE0
02FD4140
0BE00A00
1F801F40
3F002F00
7D002E00
BC003E00
BC007D00
F800BD00
F800FC00
F801FC00
BC02FC00
7E1BF800
2FFDF800
0BE4B400
00000000
00B80000
00FC0000
00B80000
ENDCHAR
STARTCHAR uni1EA6.ss01
ENCODING -1
SWIDTH 780 0
DWIDTH 14 0
BBX 14 24 1 0
BITMAP
00140000
002D0000
001F4000
00016E00
0000FF00
0002E780
00038380
00000000
0006FF90
007FFFE0
02FD4140
0BE00A00
1F801F40
3F002F00
7D002E00
BC003E00
BC007D00
F800BD00
F800FC00
F801FC00
BC02FC00
7E1BF800
2FFDF800
0BE4B400
ENDCHAR
STARTCHAR uni1EA8.ss01
ENCODING -1
SWIDTH 780 0
DWIDTH 14 0
BBX 16 23 1 0
BITMAP
000000F8
0000001D
0000000D
00006E78
0001EB40
0003C380
00000000
0006FF90
007FFFE0
02FD4140
0BE00A00
1F801F40
3F002F00
7D002E00
BC003E00
BC007D00
F800BD00
F800FC00
F801FC00
BC02FC00
7E1BF800
2FFDF800
0BE4B400
ENDCHAR
STARTCHAR uni1EAA.ss01
ENCODING -1
SWIDTH 780 0
DWIDTH 14 0
BBX 14 24 1 0
BITMAP
0000B4A0
0002EED0
00024680
00002D00
0000FF00
0002E780
00038380
00000000
0006FF90
007FFFE0
02FD4140
0BE00A00
1F801F40
3F002F00
7D002E00
BC003E00
BC007D00
F800BD00
F800FC00
F801FC00
BC02FC00
7E1BF800
2FFDF800
0BE4B400
ENDCHAR
STARTCHAR uni0200.ss01
ENCODING -1
SWIDTH 780 0
DWIDTH 14 0
BBX 14 22 1 0
BITMAP
00050400
000F6D00
000B5E00
00038F00
00028700
00000000
0006FF90
007FFFE0
02FD4140
0BE00A00
1F801F40
3F002F00
7D002E00
BC003E00
BC007D00
F800BD00
F800FC00
F801FC00
BC02FC00
7E1BF800
2FFDF800
0BE4B400
ENDCHAR
STARTCHAR Adieresis.ss01
ENCODING -1
SWIDTH 780 0
DWIDTH 14 0
BBX 14 20 1 0
BITMAP
0002D3C0
0007D7D0
0003C780
00000000
0006FF90
007FFFE0
02FD4140
0BE00A00
1F801F40
3F002F00
7D002E00
BC003E00
BC007D00
F800BD00
F800FC00
F801FC00
BC02FC00
7E1BF800
2FFDF800
0BE4B400
ENDCHAR
STARTCHAR uni1EA0.ss01
ENCODING -1
SWIDTH 780 0
DWIDTH 14 0
BBX 14 20 1 -4
BITMAP
0006FF90
007FFFE0
02FD4140
0BE00A00
1F801F40
3F002F00
7D002E00
BC003E00
BC007D00
F800BD00
F800FC00
F801FC00
BC02FC00
7E1BF800
2FFDF800
0BE4B400
00000000
00B80000
00FC0000
00B80000
ENDCHAR
STARTCHAR Agrave.ss01
ENCODING -1
SWIDTH 780 0
DWIDTH 14 0
BBX 14 22 1 0
BITMAP
00140000
003E0000
002F8000
0007E000
0000B000
00000000
0006FF90
007FFFE0
02FD4140
0BE00A00
1F801F40
3F002F00
7D002E00
BC003E00
BC007D00
F800BD00
F800FC00
F801FC00
BC02FC00
7E1BF800
2FFDF800
0BE4B400
ENDCHAR
STARTCHAR uni1EA2.ss01
ENCODING -1
SWIDTH 780 0
DWIDTH 14 0
BBX 14 22 1 0
BITMAP
00007E00
0000BF40
00000740
00003F40
00003D00
00000000
0006FF90
007FFFE0
02FD4140
0BE00A00
1F801F40
3F002F00
7D002E00
BC003E00
BC007D00
F800BD00
F800FC00
F801FC00
BC02FC00
7E1BF800
2FFDF800
0BE4B400
ENDCHAR
STARTCHAR uni0202.ss01
ENCODING -1
SWIDTH 780 0
DWIDTH 14 0
BBX 14 21 1 0
BITMAP
0001BF40
0007FFD0
000B82E0
00050050
00000000
0006FF90
007FFFE0
02FD4140
0BE00A00
1F801F40
3F002F00
7D002E00
BC003E00
BC007D00
F800BD00
F800FC00
F801FC00
BC02FC00
7E1BF800
2FFDF800
0BE4B400
ENDCHAR
STARTCHAR Amacron.ss01
ENCODING -1
SWIDTH 780 0
DWIDTH 14 0
BBX 14 19 1 0
BITMAP
0003FF80
0003FF40
00000000
0006FF90
007FFFE0
02FD4140
0BE00A00
1F801F40
3F002F00
7D002E00
BC003E00
BC007D00
F800BD00
F800FC00
F801FC00
BC02FC00
7E1BF800
2FFDF800
0BE4B400
ENDCHAR
STARTCHAR Aogonek.ss01
ENCODING -1
SWIDTH 780 0
DWIDTH 14 0
BBX 14 21 1 -5
BITMAP
0006FF90
007FFFE0
02FD4140
0BE00A00
1F801F40
3F002F00
7D002E00
BC003E00
BC007D00
F800BD00
F800FC00
F801FC00
BC02FC00
7E1BF800
2FFDF800
0BE4F400
0002D000
00038000
0007C400
0003FD00
0001B900
ENDCHAR
STARTCHAR Aring.ss01
ENCODING -1
SWIDTH 780 0
DWIDTH 14 0
BBX 14 23 1 0
BITMAP
00007E00
0000FF40
0001D740
0001E740
0000FF00
00007D00
00000000
0006FF90
007FFFE0
02FD4140
0BE00A00
1F801F40
3F002F00
7D002E00
BC003E00
BC007D00
F800BD00
F800FC00
F801FC00
BC02FC00
7E1BF800
2FFDF800
0BE4B400
ENDCHAR
STARTCHAR Aringacute.ss01
ENCODING -1
SWIDTH 780 0
DWIDTH 14 0
BBX 17 25 1 0
BITMAP
0000000740
0000001F40
00007E3D00
0000FF5000
0001E74000
0001D74000
0000FF0000
00007D0000
0000000000
0006FF9000
007FFFE000
02FD414000
0BE00A0000
1F801F4000
3F002F0000
7D002E0000
BC003E0000
BC007D0000
F800BD0000
F800FC0000
F801FC0000
BC02FC0000
7E1BF80000
2FFDF80000
0BE4B40000
ENDCHAR
STARTCHAR Atilde.ss01
ENCODING -1
SWIDTH 780 0
DWIDTH 14 0
BBX 14 21 1 0
BITMAP
0002E050
0007F9F0
000F6FE0
00050B80
00000000
0006FF90
007FFFE0
02FD4140
0BE00A00
1F801F40
3F002F00
7D002E00
BC003E00
BC007D00
F800BD00
F800FC00
F801FC00
BC02FC00
7E1BF800
2FFDF800
0BE4B400
ENDCHAR
STARTCHAR AE.ss01
ENCODING -1
SWIDTH 1057 0
DWIDTH 19 0
BBX 19 16 1 0
BITMAP
000BD2FFF4
00BFE7FFF4
02FE4B8000
0BE00F4000
1F801F4000
3F002F0000
7D002F0000
BC003FFFC0
BC007FFFC0
F800BD0000
F800FD0000
F801FD0000
BC03FE0000
7E1BAF9150
2FFE1FFFF0
07F802BF90
ENDCHAR
STARTCHAR AEacute.ss01
ENCODING -1
SWIDTH 1057 0
DWIDTH 19 0
BBX 19 22 1 0
BITMAP
0000000100
0000001F40
0000007F40
000001F800
0000029000
0000000000
000BD2FFF4
00BFE7FFF4
02FE4B8000
0BE00F4000
1F801F4000
3F002F0000
7D002F0000
BC003FFFC0
BC007FFFC0
F800BD0000
F800FD0000
F801FD0000
BC03FE0000
7E1BAF9150
2FFE1FFFF0
07F802BF90
ENDCHAR
STARTCHAR B.ss01
ENCODING -1
SWIDTH 826 0
DWIDTH 15 0
BBX 14 16 1 0
BITMAP
01BFE800
0FFFFF40
0A506FD0
010007D0
0B8007D0
0F800BD0
1F406F80
1F0FF900
2F0FF800
3E007F00
3E001F40
3D001F40
7D002F00
7D05FE00
7FFFF800
2FFE4000
ENDCHAR
STARTCHAR C.ss01
ENCODING -1
SWIDTH 704 0
DWIDTH 13 0
BBX 12 16 1 0
BITMAP
006FE0
01FFFC
07E47D
1F802E
2F002E
7D003D
7C0004
BC0000
BC0000
B80000
BC0000
BC0000
7E001E
2F91BD
0BFFF4
01BE80
ENDCHAR
STARTCHAR Cacute.ss01
ENCODING -1
SWIDTH 704 0
DWIDTH 13 0
BBX 13 22 1 0
BITMAP
00000100
00001F40
00007F40
0001F800
00029000
00000000
006FE000
01FFFC00
07E47D00
1F802E00
2F002E00
7D003D00
7C000400
BC000000
BC000000
B8000000
BC000000
BC000000
7E001E00
2F91BD00
0BFFF400
01BE8000
ENDCHAR
STARTCHAR Ccaron.ss01
ENCODING -1
SWIDTH 704 0
DWIDTH 13 0
BBX 12 22 1 0
BITMAP
002C1D
002D3C
001EB4
000BE0
000780
000000
006FE0
01FFFC
07E47D
1F802E
2F002E
7D003D
7C0004
BC0000
BC0000
B80000
BC0000
BC0000
7E001E
2F91BD
0BFFF4
01BE80
ENDCHAR
STARTCHAR Ccedilla.ss01
ENCODING -1
SWIDTH 704 0
DWIDTH 13 0
BBX 12 21 1 -5
BITMAP
002FE0
01FFFC
07E47D
1F802E
2F002E
7D003D
7C0014
BC0000
BC0000
B80000
BC0000
BC0000
7E000E
3F807D
1FFFF8
06FFD0
01FE00
001F00
001F00
07FD00
03F800
ENDCHAR
STARTCHAR Ccircumflex.ss01
ENCODING -1
SWIDTH 704 0
DWIDTH 13 0
BBX 12 22 1 0
BITMAP
0002D0
000BF0
001EB4
003D78
007828
000000
006FE0
01FFFC
07E47D
1F802E
2F002E
7D003D
7C0004
BC0000
BC0000
B80000
BC0000
BC0000
7E001E
2F91BD
0BFFF4
01BE80
ENDCHAR
STARTCHAR Cdotaccent.ss01
ENCODING -1
SWIDTH 704 0
DWIDTH 13 0
BBX 12 20 1 0
BITMAP
0007D0
000BE0
0007D0
000000
006FE0
01FFFC
07E47D
1F802E
2F002E
7D003D
7C0004
BC0000
BC0000
B80000
BC0000
BC0000
7E001E
2F91BD
0BFFF4
01BE80
ENDCHAR
STARTCHAR D.ss01
ENCODING -1
SWIDTH 810 0
DWIDTH 15 0
BBX 14 16 1 0
BITMAP
02BF9000
0FFFF800
0A41BF00
00001F80
0B800BC0
0F800BC0
1F4007D0
1F0007D0
2F000BC0
2E000BC0
3E000F80
3D002F40
7D00BE00
7D17F800
7FFFD000
6FF90000
ENDCHAR
STARTCHAR uni01C4.ss01
ENCODING -1
SWIDTH 1455 0
DWIDTH 26 0
BBX 26 22 1 0
BITMAP
00000000070740
00000000078F40
0000000003DE00
0000000002FC00
0000000000F400
00000000000000
02BF9002FFFF90
0FFFF807FFFFE0
0A41BF00000BD0
00001F80001F80
0B800BC0007F00
0F800BC000FD00
1F4007D002F800
1F0007D007E000
2F000BC00FD000
2E000BC02F4000
3E000F80BE0000
3D002F41FC0000
7D00BE07F40000
7D17F80FE00000
7FFFD02FFFFF40
6FF9001FFFFF80
ENDCHAR
STARTCHAR Eth.ss01
ENCODING -1
SWIDTH 821 0
DWIDTH 15 0
BBX 15 16 0 0
BITMAP
006FE400
00BFFF40
00F46FD0
01F007E0
02E002F0
03E001F4
7FFF81F4
BFFF81F4
0BC001F4
0B8002F0
0F8003E0
0F400BD0
1F401F80
1F45BE00
1FFFF800
0BFE8000
ENDCHAR
STARTCHAR Dcaron.ss01
ENCODING -1
SWIDTH 810 0
DWIDTH 15 0
BBX 14 22 1 0
BITMAP
00342800
0038B400
002DF000
001FD000
000B4000
00000000
02BF9000
0FFFF800
0A41BF00
00001F80
0B800BC0
0F800BC0
1F4007D0
1F0007D0
2F000BC0
2E000BC0
3E000F80
3D002F40
7D00BE00
7D17F800
7FFFD000
6FF90000
ENDCHAR
STARTCHAR Dcroat.ss01
ENCODING -1
SWIDTH 821 0
DWIDTH 15 0
BBX 15 16 0 0
BITMAP
006FE400
00BFFF40
00F46FD0
01F007E0
02E002F0
03E001F4
7FFF81F4
BFFF81F4
0BC001F4
0B8002F0
0F8003E0
0F400BD0
1F401F80
1F45BE00
1FFFF800
0BFE8000
ENDCHAR
STARTCHAR E.ss01
ENCODING -1
SWIDTH 720 0
DWIDTH 13 0
BBX 13 16 0 0
BITMAP
006BF900
02FFFF40
07E41F80
0FC00B80
0F800B80
07E00500
01FF4000
02FF4000
0FD00000
2F000000
3E000000
7E000140
3E000780
2F906F40
0FFFFD00
01BF9000
ENDCHAR
STARTCHAR Eacute.ss01
ENCODING -1
SWIDTH 720 0
DWIDTH 13 0
BBX 13 22 0 0
BITMAP
00000140
00000BC0
00002F80
0000BD00
0001E000
00000000
006BF900
02FFFF40
07E41F80
0FC00B80
0F800B80
07E00500
01FF4000
02FF4000
0FD00000
2F000000
3E000000
7E000140
3E000780
2F906F40
0FFFFD00
01BF9000
ENDCHAR
STARTCHAR Ebreve.ss01
ENCODING -1
SWIDTH 720 0
DWIDTH 13 0
BBX 13 21 0 0
BITMAP
00140100
003D1F40
002FFE00
000BF800
00000000
006BF900
02FFFF40
07E41F80
0FC00B80
0F800B80
07E00500
01FF4000
02FF4000
0FD00000
2F000000
3E000000
7E000140
3E000780
2F906F40
0FFFFD00
01BF9000
ENDCHAR
STARTCHAR Ecaron.ss01
ENCODING -1
SWIDTH 720 0
DWIDTH 13 0
BBX 13 22 0 0
BITMAP
000D0A00
000F1E00
000B7C00
0003F400
0002E000
00000000
006BF900
02FFFF40
07E41F80
0FC00B80
0F800B80
07E00500
01FF4000
02FF4000
0FD00000
2F000000
3E000000
7E000140
3E000780
2F906F40
0FFFFD00
01BF9000
ENDCHAR
STARTCHAR Ecircumflex.ss01
ENCODING -1
SWIDTH 720 0
DWIDTH 13 0
BBX 13 22 0 0
BITMAP
0001F000
0007F800
000B7C00
001E2D00
002D1D00
00000000
006BF900
02FFFF40
07E41F80
0FC00B80
0F800B80
07E00500
01FF4000
02FF4000
0FD00000
2F000000
3E000000
7E000140
3E000780
2F906F40
0FFFFD00
01BF9000
ENDCHAR
STARTCHAR uni1EBE.ss01
ENCODING -1
SWIDTH 720 0
DWIDTH 13 0
BBX 14 24 0 0
BITMAP
00000050
000001F0
000007D0
0001F500
0007F800
001F7D00
002D1D00
00000000
006BF900
02FFFF40
07E41F80
0FC00B80
0F800B80
07E00500
01FF4000
02FF4000
0FD00000
2F000000
3E000000
7E000140
3E000780
2F906F40
0FFFFD00
01BF9000
ENDCHAR
STARTCHAR uni1EC6.ss01
ENCODING -1
SWIDTH 720 0
DWIDTH 13 0
BBX 13 26 0 -4
BITMAP
0001F000
0007F800
000B7C00
001E2D00
002D1D00
00000000
006BF900
02FFFF40
07E41F80
0FC00B80
0F800B80
07E00500
01FF4000
02FF4000
0FD00000
2F000000
3E000000
7E000140
3E000780
2F906F40
0FFFFD00
01BF9000
00000000
007D0000
00BE0000
007C0000
ENDCHAR
STARTCHAR uni1EC0.ss01
ENCODING -1
SWIDTH 720 0
DWIDTH 13 0
BBX 13 24 0 0
BITMAP
00400000
01F00000
00BC0000
0005F400
0007F800
001F7D00
002D1D00
00000000
006BF900
02FFFF40
07E41F80
0FC00B80
0F800B80
07E00500
01FF4000
02FF4000
0FD00000
2F000000
3E000000
7E000140
3E000780
2F906F40
0FFFFD00
01BF9000
ENDCHAR
STARTCHAR uni1EC2.ss01
ENCODING -1
SWIDTH 720 0
DWIDTH 13 0
BBX 14 23 0 0
BITMAP
000007E0
000000B0
00000070
0002F6D0
000BBC00
002E2D00
00000000
006BF900
02FFFF40
07E41F80
0FC00B80
0F800B80
07E00500
01FF4000
02FF4000
0FD00000
2F000000
3E000000
7E000140
3E000780
2F906F40
0FFFFD00
01BF9000
ENDCHAR
STARTCHAR uni1EC4.ss01
ENCODING -1
SWIDTH 720 0
DWIDTH 13 0
BBX 13 24 0 0
BITMAP
00078340
000EFB00
00182900
0001A000
0007F800
001F3D00
002D1D00
00000000
006BF900
02FFFF40
07E41F80
0FC00B80
0F800B80
07E00500
01FF4000
02FF4000
0FD00000
2F000000
3E000000
7E000140
3E000780
2F906F40
0FFFFD00
01BF9000
ENDCHAR
STARTCHAR uni0204.ss01
ENCODING -1
SWIDTH 720 0
DWIDTH 13 0
BBX 13 22 0 0
BITMAP
00105000
0078F000
003CB400
002D7800
000D2800
00000000
006BF900
02FFFF40
07E41F80
0FC00B80
0F800B80
07E00500
01FF4000
02FF4000
0FD00000
2F000000
3E000000
7E000140
3E000780
2F906F40
0FFFFD00
01BF9000
ENDCHAR
STARTCHAR Edieresis.ss01
ENCODING -1
SWIDTH 720 0
DWIDTH 13 0
BBX 13 20 0 0
BITMAP
001E1D00
002F3E00
001E2D00
00000000
006BF900
02FFFF40
07E41F80
0FC00B80
0F800B80
07E00500
01FF4000
02FF4000
0FD00000
2F000000
3E000000
7E000140
3E000780
2F906F40
0FFFFD00
01BF9000
ENDCHAR
STARTCHAR Edotaccent.ss01
ENCODING -1
SWIDTH 720 0
DWIDTH 13 0
BBX 13 20 0 0
BITMAP
0002E000
0003F000
0002E000
00000000
006BF900
02FFFF40
07E41F80
0FC00B80
0F800B80
07E00500
01FF4000
02FF4000
0FD00000
2F000000
3E000000
7E000140
3E000780
2F906F40
0FFFFD00
01BF9000
ENDCHAR
STARTCHAR uni1EB8.ss01
ENCODING -1
SWIDTH 720 0
DWIDTH 13 0
BBX 13 20 0 -4
BITMAP
006BF900
02FFFF40
07E41F80
0FC00B80
0F800B80
07E00500
01FF4000
02FF4000
0FD00000
2F000000
3E000000
7E000140
3E000780
2F906F40
0FFFFD00
01BF9000
00000000
007D0000
00BE0000
007C0000
ENDCHAR
STARTCHAR Egrave.ss01
ENCODING -1
SWIDTH 720 0
DWIDTH 13 0
BBX 13 22 0 0
BITMAP
00400000
01F40000
01FD0000
002F4000
00068000
00000000
006BF900
02FFFF40
07E41F80
0FC00B80
0F800B80
07E00500
01FF4000
02FF4000
0FD00000
2F000000
3E000000
7E000140
3E000780
2F906F40
0FFFFD00
01BF9000
ENDCHAR
STARTCHAR uni1EBA.ss01
ENCODING -1
SWIDTH 720 0
DWIDTH 13 0
BBX 13 22 0 0
BITMAP
0002F400
0003FC00
00002C00
0001F800
0001E400
00000000
006BF900
02FFFF40
07E41F80
0FC00B80
0F800B80
07E00500
01FF4000
02FF4000
0FD00000
2F000000
3E000000
7E000140
3E000780
2F906F40
0FFFFD00
01BF9000
ENDCHAR
STARTCHAR uni0206.ss01
ENCODING -1
SWIDTH 720 0
DWIDTH 13 0
BBX 13 21 0 0
BITMAP
0007F900
002FFF00
003D0F40
00140100
00000000
006BF900
02FFFF40
07E41F80
0FC00B80
0F800B80
07E00500
01FF4000
02FF4000
0FD00000
2F000000
3E000000
7E000140
3E000780
2F906F40
0FFFFD00
01BF9000
ENDCHAR
STARTCHAR Emacron.ss01
ENCODING -1
SWIDTH 720 0
DWIDTH 13 0
BBX 13 19 0 0
BITMAP
001FFD00
001FFC00
00000000
006BF900
02FFFF40
07E41F80
0FC00B80
0F800B80
07E00500
01FF4000
02FF4000
0FD00000
2F000000
3E000000
7E000140
3E000780
2F906F40
0FFFFD00
01BF9000
ENDCHAR
STARTCHAR Eogonek.ss01
ENCODING -1
SWIDTH 720 0
DWIDTH 13 0
BBX 13 21 0 -5
BITMAP
006BF900
02FFFF40
07E41F80
0FC00B80
0F800B80
07E00500
01FF4000
02FF4000
0FD00000
2F000000
3E000000
7E000140
3E000780
2F906F40
0FFFFD00
01BFD000
000F0000
001E0000
001E1000
000FF400
0007E000
ENDCHAR
STARTCHAR uni1EBC.ss01
ENCODING -1
SWIDTH 720 0
DWIDTH 13 0
BBX 13 21 0 0
BITMAP
000F4100
002FD780
0079FF00
00102D00
00000000
006BF900
02FFFF40
07E41F80
0FC00B80
0F800B80
07E00500
01FF4000
02FF4000
0FD00000
2F000000
3E000000
7E000140
3E000780
2F906F40
0FFFFD00
01BF9000
ENDCHAR
STARTCHAR F.ss01
ENCODING -1
SWIDTH 671 0
DWIDTH 12 0
BBX 13 16 1 0
BITMAP
7FFFFF40
7FFFFE00
02E00000
03E00000
03D00000
07D00000
0BC00000
BFFFE000
BFFFE000
0F800000
0F400000
1F400000
1F000000
2F000000
2F000000
1E000000
ENDCHAR
STARTCHAR G.ss01
ENCODING -1
SWIDTH 811 0
DWIDTH 15 0
BBX 13 21 1 -5
BITMAP
002FE400
01FFFD00
07E46F00
1F801F00
2F001F00
3D001E00
7C000400
BC000000
BC000000
BC01FF40
BC01FF80
BD000B80
3E000F40
2FD05F40
0BFFFF40
01BFEF00
00001F00
00002E00
00002E00
00002D00
00001400
ENDCHAR
STARTCHAR Gbreve.ss01
ENCODING -1
SWIDTH 811 0
DWIDTH 15 0
BBX 13 26 1 -5
BITMAP
00100500
007D1F00
003FFE00
000BE400
00000000
002FE400
01FFFD00
07E46F00
1F801F00
2F001F00
3D001E00
7C000400
BC000000
BC000000
BC01FF40
BC01FF80
BD000B80
3E000F40
2FD05F40
0BFFFF40
01BFEF00
00001F00
00002E00
00002E00
00002D00
00001400
ENDCHAR
STARTCHAR Gcaron.ss01
ENCODING -1
SWIDTH 811 0
DWIDTH 15 0
BBX 13 27 1 -5
BITMAP
001D1D00
001E2D00
000F7800
0007F000
0002D000
00000000
002FE400
01FFFD00
07E46F00
1F801F00
2F001F00
3D001E00
7C000400
BC000000
BC000000
BC01FF40
BC01FF80
BD000B80
3E000F40
2FD05F40
0BFFFF40
01BFEF00
00001F00
00002E00
00002E00
00002D00
00001400
ENDCHAR
STARTCHAR Gcircumflex.ss01
ENCODING -1
SWIDTH 811 0
DWIDTH 15 0
BBX 13 27 1 -5
BITMAP
0002E000
0007F400
000F7800
002E3C00
00382C00
00000000
002FE400
01FFFD00
07E46F00
1F801F00
2F001F00
3D001E00
7C000400
BC000000
BC000000
BC01FF40
BC01FF80
BD000B80
3E000F40
2FD05F40
0BFFFF40
01BFEF00
00001F00
00002E00
00002E00
00002D00
00001400
ENDCHAR
STARTCHAR uni0122.ss01
ENCODING -1
SWIDTH 811 0
DWIDTH 15 0
BBX 13 21 1 -5
BITMAP
002FE400
01FFFD00
07E46F00
1F801F00
2F001F00
3D001E00
7C000400
BC000000
BC000000
BC01FF40
BC01FF80
BD000B80
3E000F40
2FD05F40
0BFFFF40
01BFEF00
00001F00
002C2E00
003C2E00
003C2D00
00241400
ENDCHAR
STARTCHAR Gdotaccent.ss01
ENCODING -1
SWIDTH 811 0
DWIDTH 15 0
BBX 13 25 1 -5
BITMAP
0002D000
0007E000
0003D000
00000000
002FE400
01FFFD00
07E46F00
1F801F00
2F001F00
3D001E00
7C000400
BC000000
BC000000
BC01FF40
BC01FF80
BD000B80
3E000F40
2FD05F40
0BFFFF40
01BFEF00
00001F00
00002E00
00002E00
00002D00
00001400
ENDCHAR
STARTCHAR H.ss01
ENCODING -1
SWIDTH 846 0
DWIDTH 15 0
BBX 14 16 1 0
BITMAP
07C002C0
07C007D0
0BC007D0
0BC007C0
0B800BC0
0F800B80
0F400F80
BFFFFFF0
FFFFFFF0
2F001F00
2E002F00
3E002F00
3D003E00
7D003E00
7D003D00
3C003D00
ENDCHAR
STARTCHAR Hbar.ss01
ENCODING -1
SWIDTH 856 0
DWIDTH 15 0
BBX 15 16 1 0
BITMAP
07C003D0
07C007D0
7FFFFFF8
7FFFFFF8
0F800BC0
0F800B80
0F400B80
BFFFFFF0
FFFFFFF0
2F001F40
2F001F00
3E002F00
3E002E00
3D003E00
7D003E00
3C002D00
ENDCHAR
STARTCHAR Hcircumflex.ss01
ENCODING -1
SWIDTH 846 0
DWIDTH 15 0
BBX 14 22 1 0
BITMAP
0001E000
0007F400
000F7C00
002E3D00
002C1D00
00000000
07C002C0
07C007D0
0BC007D0
0BC007C0
0B800BC0
0F800B80
0F400F80
BFFFFFF0
FFFFFFF0
2F001F00
2E002F00
3E002F00
3D003E00
7D003E00
7D003D00
3C003D00
ENDCHAR
STARTCHAR I.ss01
ENCODING -1
SWIDTH 357 0
DWIDTH 6 0
BBX 5 16 1 0
BITMAP
0780
0B80
0F80
0F80
0F40
1F40
1F00
2F00
2E00
3E00
3D00
7D00
7D00
7C00
BC00
7800
ENDCHAR
STARTCHAR Iacute.ss01
ENCODING -1
SWIDTH 357 0
DWIDTH 6 0
BBX 9 22 1 0
BITMAP
000100
001F40
007F40
01F800
029000
000000
078000
0B8000
0F8000
0F8000
0F4000
1F4000
1F0000
2F0000
2E0000
3E0000
3D0000
7D0000
7D0000
7C0000
BC0000
780000
ENDCHAR
STARTCHAR Iacute_J.loclNLD.ss01
ENCODING -1
SWIDTH 776 0
DWIDTH 14 0
BBX 16 22 1 0
BITMAP
00050005
001F402F
007F00BE
01F802F4
02800380
00000000
0B400B00
1F400F40
1F401F40
1F401F00
2F002F00
2F003F00
3E007F00
3E00FE00
3F47FE00
2FFFBD00
0BFE3D00
01507C00
0000B800
7906F400
3FFFD000
1BFE0000
ENDCHAR
STARTCHAR Ibreve.ss01
ENCODING -1
SWIDTH 357 0
DWIDTH 6 0
BBX 8 21 1 0
BITMAP
1005
B82E
7FFD
1BE4
0000
0780
0B80
0F80
0F80
0F40
1F40
1F00
2F00
2E00
3E00
3D00
7D00
7D00
7C00
BC00
7800
ENDCHAR
STARTCHAR Icircumflex.ss01
ENCODING -1
SWIDTH 357 0
DWIDTH 6 0
BBX 7 22 1 0
BITMAP
02E0
0BF0
1FB4
3D7C
3828
0000
0780
0B80
0F80
0F80
0F40
1F40
1F00
2F00
2E00
3E00
3D00
7D00
7D00
7C00
BC00
7800
ENDCHAR
ENDFONT
